<svg width="1151" height="216" viewBox="0 0 1151 216" fill="none" xmlns="http://www.w3.org/2000/svg">
<path d="M0 15C0 6.71572 6.71573 0 15 0H1136C1144.28 0 1151 6.71573 1151 15V201C1151 209.284 1144.28 216 1136 216H15C6.71572 216 0 209.284 0 201V15Z" fill="#F0F0F0"/>
<path d="M0 15C0 6.71572 6.71573 0 15 0H1136C1144.28 0 1151 6.71573 1151 15V201C1151 209.284 1144.28 216 1136 216H15C6.71572 216 0 209.284 0 201V15Z" fill="#9CEAEB"/>
<path d="M0 15C0 6.71572 6.71573 0 15 0H1136C1144.28 0 1151 6.71573 1151 15V201C1151 209.284 1144.28 216 1136 216H15C6.71572 216 0 209.284 0 201V15Z" fill="url(#paint0_linear_26002_5)"/>
<mask id="mask0_26002_5" style="mask-type:alpha" maskUnits="userSpaceOnUse" x="0" y="0" width="1151" height="216">
<path d="M0 15C0 6.71572 6.71573 0 15 0H1136C1144.28 0 1151 6.71573 1151 15V201C1151 209.284 1144.28 216 1136 216H15C6.71572 216 0 209.284 0 201V15Z" fill="#F0F0F0"/>
<path d="M0 15C0 6.71572 6.71573 0 15 0H1136C1144.28 0 1151 6.71573 1151 15V201C1151 209.284 1144.28 216 1136 216H15C6.71572 216 0 209.284 0 201V15Z" fill="#9CEAEB"/>
<path d="M0 15C0 6.71572 6.71573 0 15 0H1136C1144.28 0 1151 6.71573 1151 15V201C1151 209.284 1144.28 216 1136 216H15C6.71572 216 0 209.284 0 201V15Z" fill="url(#paint1_linear_26002_5)"/>
</mask>
<g mask="url(#mask0_26002_5)">
<path opacity="0.3" d="M1184.69 88.7624C1185.55 84.7992 1185.64 80.7095 1184.9 76.2451C1181.96 58.3877 1165.05 46.143 1147.41 49.3058C1138.81 50.7226 1131.48 55.2423 1126.77 61.8778C1119.97 57.393 1111.78 55.1757 1103.18 56.5925C1085.25 59.5477 1073.41 76.5288 1076.35 94.3862C1077.09 98.8506 1078.48 102.697 1080.57 106.175C1080.57 106.175 1080.57 106.175 1080.85 106.382C1081.88 107.997 1082.9 109.612 1084.13 110.938C1091.41 119.928 1109.71 139.076 1141.03 146.908C1141.03 146.908 1170.23 126.557 1182.32 95.7777C1183.22 93.5911 1184.12 91.4045 1184.73 89.0104C1184.69 88.7624 1184.69 88.7624 1184.69 88.7624Z" fill="white"/>
<path opacity="0.3" d="M343.311 295.015C348.245 287.514 351.672 279.132 353.707 269.324C361.844 230.092 336.667 191.339 297.693 183.823C278.802 179.905 260.061 183.406 245.048 193.364C234.581 178.689 219.431 167.59 200.54 163.672C161.139 155.5 123.167 181.155 115.029 220.387C112.995 230.195 112.806 239.249 114.349 248.094C114.349 248.094 114.349 248.094 114.776 248.751C115.604 252.901 116.432 257.051 117.913 260.768C125.806 285.138 148.358 339.26 206.823 380.371C206.823 380.371 283.343 361.575 332.816 307.615C336.419 303.816 340.022 300.016 343.198 295.56C343.311 295.015 343.311 295.015 343.311 295.015Z" fill="white"/>
</g>
<defs>
<linearGradient id="paint0_linear_26002_5" x1="1372.88" y1="228.075" x2="1358.15" y2="-28.1533" gradientUnits="userSpaceOnUse">
<stop stop-color="#77DBDC"/>
<stop offset="1" stop-color="#DDFFFF"/>
</linearGradient>
<linearGradient id="paint1_linear_26002_5" x1="1372.88" y1="228.075" x2="1358.15" y2="-28.1533" gradientUnits="userSpaceOnUse">
<stop stop-color="#77DBDC"/>
<stop offset="1" stop-color="#DDFFFF"/>
</linearGradient>
</defs>
</svg>
