<svg width="1437" height="896" viewBox="0 0 1437 896" fill="none" xmlns="http://www.w3.org/2000/svg">
<path opacity="0.3" d="M86.1021 250.712C54.3344 200.405 66.8854 151.223 72.131 135.83C57.366 122.865 53.4035 105.692 52.5005 100.405C51.7645 96.1094 49.6009 94.607 49.5066 94.5402C47.2102 93.2854 45.9922 90.8726 46.1928 88.261C46.3965 85.6519 48.2299 83.466 50.6939 82.5714C71.6328 74.943 85.6622 88.1002 90.945 93.0528C94.2409 96.1406 97.6741 95.1899 98.8913 94.6932C147.293 60.0134 203.779 63.1263 208.931 63.4905C213.079 63.4818 222.126 63.5933 224.029 70.5555C225.162 74.6956 222.956 78.8558 217.961 82.0726L150.921 152.165C162.532 158.867 184.163 171.354 187.226 173.091C187.759 173.395 188.463 173.735 189.254 174.127C194.361 176.644 202.088 180.463 203.209 187.566C203.619 190.155 203.278 194.056 199.319 197.946C197.977 199.26 196.517 200.569 195.024 201.911C189.114 207.215 183.53 212.231 183.548 219.56C183.552 223.075 183.267 253.917 171.598 254.847C163.784 255.466 162.331 246.044 161.633 241.508C159.82 229.694 146.355 210.959 135.582 197.796C128.761 273.467 118.388 275.435 112.65 276.525C106.837 277.627 102.366 273.562 100.104 269.463C94.6824 263.235 90.05 256.964 86.1021 250.712ZM85.716 130.072C86.8828 131.92 87.0966 134.282 86.1543 136.37C84.9866 138.985 58.0232 201.368 110.681 261.264C110.719 261.308 110.754 261.348 110.793 261.392C113.627 255.711 119.394 237.573 123.566 180.952C123.76 178.302 125.507 176.02 128.014 175.138C130.519 174.249 133.31 174.93 135.115 176.873C138.097 180.071 159.825 203.77 169.957 224.985C170.113 223.068 170.2 221.241 170.196 219.618C170.171 206.322 179.01 198.386 186.116 192.011C187.13 191.093 188.133 190.198 189.083 189.304C187.402 188.1 184.569 186.702 183.313 186.08C182.257 185.556 181.323 185.092 180.618 184.694C176.389 182.294 136.878 159.47 136.878 159.47C135.114 158.449 133.91 156.678 133.622 154.647C133.338 152.623 133.996 150.584 135.411 149.103L204.693 76.6677C191.833 76.3946 145.314 77.5576 106.165 105.872C105.925 106.05 105.667 106.207 105.403 106.347C100.722 108.852 90.4795 110.926 81.7913 102.781C76.243 97.5751 70.8913 93.9722 64.4736 93.5841C64.9652 94.9456 65.3746 96.4602 65.6631 98.1328C66.2026 101.326 69.65 117.788 84.0147 128.252C84.7078 128.759 85.2806 129.383 85.716 130.072Z" fill="#E1E1E1"/>
<path opacity="0.3" d="M1472.74 895.559C1385.38 895.559 1334.16 841.42 1319.17 822.841C1291.5 831.007 1267.07 822.463 1259.8 819.439C1253.89 816.986 1250.33 818.494 1250.17 818.559C1246.81 820.426 1242.86 820.046 1239.78 817.75C1236.7 815.452 1235.42 811.462 1236.24 807.702C1243.19 775.726 1270.52 768.624 1280.81 765.948C1287.23 764.277 1288.74 759.27 1289.08 757.369C1283.97 670.093 1332.11 602.409 1336.61 596.298C1339.85 591.141 1347.08 579.997 1357.21 583.093C1363.24 584.932 1366.68 590.932 1366.75 599.655L1401.21 737.831C1418.64 728.671 1451.1 711.606 1455.65 709.165C1456.45 708.741 1457.42 708.134 1458.53 707.461C1465.66 703.094 1476.46 696.495 1486.16 700.671C1489.69 702.192 1494.27 705.673 1495.99 713.638C1496.57 716.334 1497.05 719.173 1497.55 722.078C1499.5 733.573 1501.35 744.438 1510.46 750.162C1514.83 752.912 1552.89 777.444 1544.9 792.661C1539.54 802.846 1526.71 797.263 1520.53 794.574C1504.44 787.562 1470.63 789.592 1445.84 792.648C1534.43 860.438 1528.75 874.859 1525.6 882.836C1522.41 890.917 1513.86 893.281 1507 892.875C1495.02 894.724 1483.6 895.559 1472.74 895.559ZM1322.67 801.462C1325.88 801.462 1328.98 803.048 1330.83 805.855C1333.16 809.354 1389.47 891.734 1505.11 873.317C1505.19 873.304 1505.27 873.292 1505.36 873.279C1500.53 865.307 1482.53 843.927 1415.51 794.359C1412.37 792.041 1410.91 788.084 1411.78 784.279C1412.64 780.473 1415.67 777.542 1419.5 776.824C1425.81 775.628 1472.26 767.234 1506.54 771.287C1504.28 769.59 1502.08 768.05 1500.07 766.783C1483.54 756.39 1480.62 739.195 1478.27 725.376C1477.93 723.397 1477.6 721.451 1477.24 719.571C1474.43 720.714 1470.47 723.135 1468.71 724.206C1467.23 725.107 1465.93 725.903 1464.88 726.466C1458.58 729.834 1399.28 760.993 1399.28 760.993C1396.62 762.382 1393.48 762.488 1390.73 761.254C1388 760.019 1385.98 757.604 1385.25 754.686L1349.64 611.889C1339.22 627.641 1304.2 686.304 1308.66 757.103C1308.69 757.54 1308.68 757.984 1308.65 758.42C1308.09 766.196 1302.63 780.538 1285.71 784.938C1274.9 787.746 1266.23 791.565 1260.72 799.228C1262.79 799.685 1264.99 800.364 1267.3 801.317C1271.68 803.151 1294.82 811.777 1319.08 802.146C1320.25 801.684 1321.47 801.462 1322.67 801.462Z" fill="#E1E1E1"/>
</svg>
