<svg width="1421" height="1023" viewBox="0 0 1421 1023" fill="none" xmlns="http://www.w3.org/2000/svg">
<path opacity="0.3" d="M86.0942 250.154C54.3266 199.847 66.8776 150.664 72.1232 135.272C57.3582 122.307 53.3957 105.133 52.4927 99.8463C51.7567 95.5508 49.5931 94.0484 49.4988 93.9816C47.2024 92.7269 45.9844 90.314 46.185 87.7024C46.3887 85.0933 48.2221 82.9074 50.6861 82.0128C71.625 74.3844 85.6543 87.5416 90.9372 92.4942C94.2331 95.582 97.6663 94.6313 98.8835 94.1346C147.285 59.4548 203.771 62.5677 208.923 62.9319C213.072 62.9232 222.118 63.0347 224.021 69.9969C225.154 74.137 222.948 78.2972 217.953 81.5141L150.913 151.606C162.524 158.308 184.156 170.795 187.218 172.532C187.752 172.836 188.455 173.176 189.246 173.569C194.353 176.085 202.08 179.904 203.201 187.008C203.611 189.597 203.27 193.497 199.311 197.387C197.969 198.701 196.51 200.011 195.016 201.352C189.106 206.657 183.522 211.672 183.54 219.001C183.544 222.516 183.26 253.358 171.59 254.289C163.776 254.907 162.324 245.485 161.626 240.95C159.813 229.135 146.347 210.4 135.574 197.238C128.753 272.908 118.38 274.877 112.642 275.966C106.829 277.069 102.358 273.003 100.096 268.904C94.6746 262.677 90.0421 256.405 86.0942 250.154ZM85.7082 129.514C86.875 131.362 87.0888 133.723 86.1465 135.812C84.9788 138.426 58.0154 200.809 110.673 260.705C110.711 260.749 110.747 260.789 110.785 260.834C113.619 255.153 119.386 237.015 123.559 180.394C123.753 177.743 125.499 175.462 128.007 174.58C130.511 173.691 133.302 174.371 135.107 176.314C138.09 179.512 159.817 203.211 169.949 224.427C170.105 222.509 170.192 220.683 170.188 219.059C170.163 205.763 179.002 197.827 186.109 191.452C187.122 190.534 188.125 189.639 189.075 188.745C187.394 187.542 184.561 186.143 183.305 185.521C182.249 184.998 181.315 184.534 180.61 184.135C176.382 181.735 136.87 158.912 136.87 158.912C135.106 157.89 133.902 156.119 133.614 154.088C133.331 152.065 133.988 150.025 135.404 148.544L204.686 76.1091C191.825 75.8361 145.306 76.9991 106.157 105.313C105.918 105.491 105.659 105.648 105.396 105.788C100.714 108.294 90.4716 110.367 81.7835 102.222C76.2351 97.0165 70.8835 93.4136 64.4658 93.0255C64.9574 94.387 65.3668 95.9016 65.6553 97.5742C66.1948 100.768 69.6422 117.229 84.0069 127.693C84.7 128.201 85.2728 128.824 85.7082 129.514Z" fill="#E1E1E1"/>
<path opacity="0.3" d="M1472.74 1023C1385.38 1023 1334.16 968.861 1319.17 950.282C1291.5 958.449 1267.07 949.905 1259.8 946.881C1253.89 944.427 1250.33 945.935 1250.17 946C1246.81 947.867 1242.86 947.488 1239.78 945.191C1236.7 942.893 1235.42 938.903 1236.24 935.143C1243.19 903.168 1270.52 896.066 1280.81 893.39C1287.23 891.719 1288.74 886.711 1289.08 884.811C1283.97 797.535 1332.11 729.85 1336.61 723.74C1339.85 718.582 1347.08 707.438 1357.21 710.534C1363.24 712.374 1366.68 718.373 1366.75 727.097L1401.21 865.273C1418.64 856.113 1451.1 839.047 1455.65 836.607C1456.45 836.183 1457.42 835.576 1458.53 834.902C1465.66 830.535 1476.46 823.936 1486.16 828.113C1489.69 829.634 1494.27 833.115 1495.99 841.079C1496.57 843.776 1497.05 846.614 1497.55 849.519C1499.5 861.015 1501.35 871.879 1510.46 877.603C1514.83 880.353 1552.89 904.885 1544.9 920.102C1539.54 930.287 1526.71 924.704 1520.53 922.016C1504.44 915.004 1470.63 917.034 1445.84 920.089C1534.43 987.879 1528.75 1002.3 1525.6 1010.28C1522.41 1018.36 1513.86 1020.72 1507 1020.32C1495.02 1022.17 1483.6 1023 1472.74 1023ZM1322.67 928.903C1325.88 928.903 1328.98 930.489 1330.83 933.296C1333.16 936.796 1389.47 1019.18 1505.11 1000.76C1505.19 1000.75 1505.27 1000.73 1505.36 1000.72C1500.53 992.748 1482.53 971.369 1415.51 921.801C1412.37 919.482 1410.91 915.526 1411.78 911.721C1412.64 907.914 1415.67 904.983 1419.5 904.265C1425.81 903.07 1472.26 894.676 1506.54 898.728C1504.28 897.031 1502.08 895.492 1500.07 894.224C1483.54 883.832 1480.62 866.637 1478.27 852.817C1477.93 850.839 1477.6 848.892 1477.24 847.012C1474.43 848.156 1470.47 850.576 1468.71 851.648C1467.23 852.549 1465.93 853.344 1464.88 853.907C1458.58 857.275 1399.28 888.434 1399.28 888.434C1396.62 889.824 1393.48 889.929 1390.73 888.695C1388 887.461 1385.98 885.046 1385.25 882.127L1349.64 739.33C1339.22 755.082 1304.2 813.745 1308.66 884.544C1308.69 884.981 1308.68 885.425 1308.65 885.862C1308.09 893.638 1302.63 907.979 1285.71 912.38C1274.9 915.187 1266.23 919.006 1260.72 926.669C1262.79 927.127 1264.99 927.806 1267.3 928.759C1271.68 930.593 1294.82 939.218 1319.08 929.588C1320.25 929.125 1321.47 928.903 1322.67 928.903Z" fill="#E1E1E1"/>
</svg>
