<svg width="715" height="504" viewBox="0 0 715 504" fill="none" xmlns="http://www.w3.org/2000/svg">
<path fill-rule="evenodd" clip-rule="evenodd" d="M71.2968 482.069C-37.4034 400.409 -15.1233 289.729 92.9019 243.163C246.163 177.025 250.214 64.9954 408.2 45.4239C670.161 13.0299 874.734 386.236 541.206 507.039C374.442 567.103 165.819 552.256 71.2968 482.069Z" fill="#5DC5C6"/>
<path d="M337.986 43.3985C637.081 -15.3157 788.316 438.876 509.476 577.9C452.763 605.57 390.648 620.418 331.234 622.442" stroke="white" stroke-width="2.61581"/>
<path d="M392 1.55664C437.236 3.58127 485.172 15.0542 532.433 38" stroke="white" stroke-width="2.61581"/>
<path d="M250.891 25.8492C283.973 12.3517 319.757 4.25314 357.565 2.22852" stroke="white" stroke-width="2.61581"/>
<path d="M340.007 557.655C117.205 557.655 28.084 368.014 67.2431 209.418C68.5935 204.694 69.2686 199.97 71.2941 195.921" stroke="white" stroke-width="2.61581"/>
<path d="M543.234 307.952C547.285 297.829 549.31 287.031 549.31 274.883C549.31 226.292 509.476 186.474 460.865 187.149C437.234 187.149 415.629 195.922 400.1 211.445C383.897 196.597 362.967 187.149 339.336 187.149C290.05 187.149 250.891 226.967 250.891 275.558C250.891 287.706 252.916 298.504 256.967 308.627C256.967 308.627 256.967 308.627 257.642 309.302C259.668 314.026 261.693 318.75 264.394 322.799C279.922 349.794 320.432 408.508 400.776 442.927C400.776 442.927 487.871 401.76 533.782 325.499C537.157 320.1 540.533 314.701 543.234 308.627C543.234 307.952 543.234 307.952 543.234 307.952Z" fill="white"/>
<path d="M81.4273 2.9065C81.4273 2.9065 135.44 5.606 175.274 42.7242C175.274 42.7242 182.701 47.4483 190.803 42.0493C198.229 36.6503 209.032 30.5764 222.535 38.0001C222.535 38.0001 217.809 39.3498 215.784 46.7735C213.083 53.5222 206.331 67.6946 192.153 75.7931C192.153 75.7931 211.733 141.256 151.644 193.222C151.644 193.222 130.039 212.118 136.79 103.463C136.79 103.463 103.032 143.281 97.6311 162.852C91.5547 182.424 90.2043 154.079 92.2298 143.281C93.5801 131.808 84.8031 123.709 78.7267 116.961C73.3254 109.537 86.1534 106.837 90.8795 104.813C94.9304 103.463 134.09 87.266 134.09 87.266L76.026 8.30551C76.026 8.30551 65.8987 0.881868 81.4273 2.9065Z" fill="white"/>
</svg>
