<?xml version="1.0" encoding="UTF-8"?>
<svg id="_Слой_2" data-name="Слой 2" xmlns="http://www.w3.org/2000/svg" xmlns:xlink="http://www.w3.org/1999/xlink" viewBox="0 0 354.51 44">
  <defs>
    <style>
      .cls-1, .cls-2, .cls-3 {
        stroke-width: 0px;
      }

      .cls-2 {
        fill: none;
      }

      .cls-3 {
        fill: #e40032;
        fill-rule: evenodd;
      }

      .cls-4 {
        clip-path: url(#clippath);
      }
    </style>
    <clipPath id="clippath">
      <rect class="cls-2" width="354.51" height="44"/>
    </clipPath>
  </defs>
  <g id="_Слой_1-2" data-name="Слой 1">
    <g class="cls-4">
      <path class="cls-3" d="m116.91,27.87c-1.71.08-2.83,1.72-2.83,1.72,0,0-1.13-1.64-2.83-1.72-2.13-.09-3.57,1.43-3.67,3.15-.09,1.7,1.55,3.4,2.58,4.37,2.18,2.05,3.16,2.69,3.9,3.38l.02.02.02-.02c.74-.68,1.73-1.32,3.9-3.38,1.04-.98,2.68-2.68,2.58-4.37-.11-1.72-1.54-3.25-3.67-3.15h0Z"/>
      <path class="cls-1" d="m214.33,1.03v9.57h-1V1.9h-6.06v8.69h-1V1.03h8.05Zm6.7,2.32c.67,0,1.29.15,1.83.46.55.31.98.74,1.29,1.29s.46,1.19.46,1.9-.15,1.36-.46,1.91-.74.99-1.28,1.29c-.54.31-1.15.46-1.84.46-.58,0-1.11-.12-1.58-.36-.47-.24-.85-.59-1.16-1.06v4.01h-.97V3.4h.93v1.42c.29-.47.68-.84,1.15-1.09.48-.26,1.02-.38,1.62-.38Zm-.07,6.45c.5,0,.96-.12,1.37-.35.41-.23.73-.56.96-.99.23-.43.35-.92.35-1.46s-.12-1.03-.35-1.46c-.23-.42-.55-.75-.96-.99-.41-.24-.87-.36-1.37-.36s-.97.12-1.37.36c-.4.24-.72.57-.96.99-.23.42-.35.91-.35,1.46s.12,1.03.35,1.46c.23.43.55.76.96.99.41.23.86.35,1.37.35m12.03-2.5h-6.01c.05.75.34,1.35.86,1.81.52.46,1.18.69,1.97.69.45,0,.86-.08,1.23-.24.37-.16.7-.4.97-.7l.55.63c-.32.38-.72.67-1.2.88-.48.2-1.01.3-1.58.3-.74,0-1.39-.16-1.96-.47-.57-.31-1.01-.75-1.33-1.31-.32-.56-.48-1.18-.48-1.89s.15-1.33.46-1.89c.31-.56.72-.99,1.26-1.3.53-.31,1.13-.47,1.8-.47s1.26.16,1.79.47c.53.31.94.74,1.24,1.29.3.55.45,1.18.45,1.89v.3s-.01,0-.01,0Zm-3.47-3.12c-.69,0-1.27.22-1.74.66-.47.44-.74,1.02-.8,1.73h5.1c-.06-.71-.33-1.29-.8-1.73-.47-.44-1.06-.66-1.76-.66h0Zm13.67-.78v7.19h-.89v-5.69l-2.91,4.81h-.44l-2.91-4.83v5.7h-.89V3.4h.98l3.05,5.18,3.1-5.18h.9Zm2.76,0h.97v5.71l4.8-5.71h.86v7.19h-.97v-5.72l-4.78,5.72h-.88V3.4Zm14.93,0v7.19h-.89v-2.38h-2.53l-1.67,2.38h-1.05l1.79-2.52c-.56-.16-.98-.42-1.28-.79-.3-.37-.45-.85-.45-1.42,0-.8.27-1.41.82-1.83.55-.42,1.29-.63,2.24-.63h3.02,0Zm-5.1,2.49c0,1.07.68,1.6,2.04,1.6h2.17v-3.23h-2.11c-1.4,0-2.1.54-2.1,1.63m17.76-3.99h-5.1v8.69s-.98,0-.98,0V1.03h6.08v.88Zm5.97,1.5l-3.6,8.05c-.29.67-.63,1.15-1.01,1.43-.38.28-.84.42-1.38.42-.35,0-.67-.06-.97-.16-.3-.11-.56-.27-.78-.49l.45-.73c.36.36.8.55,1.31.55.33,0,.61-.09.84-.27.23-.18.45-.49.65-.93l.32-.7-3.21-7.18h1.01l2.71,6.11,2.71-6.11h.96Zm4.89.18c.67,0,1.26.15,1.78.44.52.3.93.71,1.22,1.24.29.53.44,1.14.44,1.83s-.15,1.32-.46,1.87c-.31.54-.73.96-1.28,1.26-.55.3-1.18.45-1.89.45-1.19,0-2.12-.42-2.77-1.26-.66-.84-.98-2-.98-3.47s.29-2.72.88-3.54c.59-.82,1.51-1.38,2.76-1.67L287.33,0l.16.89-3.04.7c-1.03.23-1.79.63-2.27,1.21-.48.58-.75,1.43-.79,2.56.29-.56.7-.99,1.22-1.31.52-.32,1.12-.47,1.79-.47h0Zm-.15,6.29c.5,0,.95-.12,1.35-.35.4-.23.71-.56.93-.98.22-.42.33-.89.33-1.42s-.11-.99-.33-1.39c-.22-.4-.53-.71-.92-.94-.4-.22-.85-.33-1.36-.33s-.96.11-1.36.33c-.4.22-.71.53-.93.94s-.33.87-.33,1.39.11,1,.33,1.42c.22.42.54.75.94.98.4.23.85.35,1.35.35m11.96-2.57h-6.02c.06.75.34,1.35.86,1.81.52.46,1.18.69,1.97.69.45,0,.86-.08,1.23-.24.37-.16.7-.4.97-.7l.55.63c-.32.38-.72.67-1.2.88-.48.2-1.01.3-1.58.3-.74,0-1.39-.16-1.96-.47-.57-.31-1.01-.75-1.33-1.31-.32-.56-.48-1.18-.48-1.89s.15-1.33.46-1.89c.31-.56.73-.99,1.26-1.3.53-.31,1.13-.47,1.8-.47s1.26.16,1.79.47c.53.31.94.74,1.24,1.29.3.55.45,1.18.45,1.89v.3s-.01,0-.01,0Zm-3.47-3.12c-.69,0-1.27.22-1.74.66-.47.44-.74,1.02-.8,1.73h5.1c-.06-.71-.33-1.29-.8-1.73-.47-.44-1.05-.66-1.76-.66m9.34-.83c.67,0,1.29.15,1.83.46.55.31.98.74,1.29,1.29s.46,1.19.46,1.9-.15,1.36-.46,1.91-.73.99-1.28,1.29c-.54.31-1.15.46-1.84.46-.58,0-1.11-.12-1.58-.36-.47-.24-.86-.59-1.16-1.06v4.01h-.97V3.4h.93v1.42c.29-.47.68-.84,1.16-1.09.48-.26,1.02-.38,1.62-.38Zm-.07,6.45c.5,0,.96-.12,1.37-.35.41-.23.73-.56.96-.99.23-.43.35-.92.35-1.46s-.12-1.03-.35-1.46c-.23-.42-.55-.75-.96-.99-.41-.24-.87-.36-1.37-.36s-.97.12-1.37.36c-.4.24-.72.57-.96.99-.23.42-.35.91-.35,1.46s.12,1.03.35,1.46c.23.43.55.76.96.99.41.23.86.35,1.37.35m5.74-6.4h.97v3.19h4.52v-3.19h.97v7.19h-.97v-3.17h-4.52v3.17h-.97V3.4Zm11.7-.06c.94,0,1.66.24,2.16.7.5.47.75,1.17.75,2.08v4.46h-.93v-1.12c-.22.37-.54.67-.96.87-.42.21-.93.31-1.51.31-.8,0-1.44-.19-1.91-.57s-.71-.89-.71-1.52.22-1.1.66-1.48c.44-.37,1.15-.56,2.11-.56h2.28v-.44c0-.62-.17-1.09-.52-1.41-.35-.32-.85-.49-1.52-.49-.46,0-.89.08-1.31.23-.42.15-.78.36-1.08.62l-.44-.72c.36-.31.8-.55,1.31-.72.51-.17,1.05-.25,1.61-.25Zm-.34,6.55c.55,0,1.02-.12,1.41-.38.39-.25.68-.61.88-1.09v-1.18h-2.26c-1.23,0-1.85.43-1.85,1.28,0,.42.16.75.48.99s.77.36,1.34.36h0Zm10.9-5.63h-2.72v6.33h-.97v-6.33h-2.72v-.86h6.41v.86Zm4.05,6.4c-.69,0-1.32-.16-1.87-.47-.56-.31-.99-.75-1.31-1.31s-.48-1.18-.48-1.89.16-1.33.48-1.89.76-.99,1.31-1.3c.56-.31,1.18-.46,1.87-.46s1.32.16,1.87.46c.56.31.99.74,1.31,1.3.31.56.47,1.19.47,1.89s-.16,1.33-.47,1.89c-.31.56-.75.99-1.31,1.31-.56.32-1.18.47-1.87.47m0-.86c.51,0,.97-.11,1.37-.35.4-.23.72-.56.95-.99.23-.43.34-.92.34-1.46s-.11-1.03-.34-1.46c-.23-.43-.55-.76-.95-.99-.41-.23-.86-.35-1.37-.35s-.97.12-1.37.35c-.41.23-.73.56-.96.99-.23.43-.35.92-.35,1.46s.12,1.03.35,1.46c.23.43.55.76.96.99.41.23.86.35,1.37.35m9.43-6.45c.67,0,1.29.15,1.83.46.55.31.97.74,1.28,1.29.31.56.47,1.19.47,1.9s-.15,1.36-.47,1.91c-.31.56-.74.99-1.28,1.29-.54.31-1.15.46-1.84.46-.58,0-1.11-.12-1.58-.36-.47-.24-.86-.6-1.16-1.06v4.01h-.97V3.4h.93v1.42c.29-.47.68-.84,1.16-1.09.48-.26,1.02-.38,1.62-.38Zm-.07,6.45c.5,0,.96-.11,1.37-.35.41-.23.73-.56.96-.99.23-.43.35-.92.35-1.46s-.12-1.03-.35-1.46c-.23-.42-.55-.75-.96-.99-.41-.24-.86-.36-1.37-.36s-.97.12-1.37.36c-.4.24-.73.57-.96.99-.23.42-.35.91-.35,1.46s.11,1.03.35,1.46c.23.43.55.76.96.99.41.23.86.35,1.37.35m8.18-6.45c.94,0,1.66.24,2.16.7.5.47.75,1.16.75,2.08v4.46h-.93v-1.12c-.22.37-.54.67-.96.88-.42.21-.93.31-1.51.31-.8,0-1.44-.19-1.91-.57-.47-.38-.71-.89-.71-1.52s.22-1.1.66-1.48c.44-.37,1.15-.56,2.11-.56h2.28v-.44c0-.62-.17-1.09-.52-1.42-.35-.32-.85-.49-1.52-.49-.46,0-.89.08-1.31.23-.42.15-.78.36-1.08.62l-.44-.72c.37-.31.8-.55,1.31-.72.51-.17,1.05-.25,1.61-.25h0Zm-.34,6.55c.55,0,1.02-.13,1.41-.38.39-.25.68-.61.88-1.09v-1.18h-2.26c-1.23,0-1.85.43-1.85,1.28,0,.42.16.75.48.99.32.24.76.36,1.34.36m-135.04,6.21v9.57h-.97v-7.65l-3.76,6.44h-.48l-3.76-6.4v7.61h-.97v-9.57h.83l4.15,7.09,4.12-7.09h.83,0Zm5.96,9.64c-.69,0-1.32-.16-1.87-.47-.56-.31-.99-.75-1.31-1.31s-.48-1.18-.48-1.89.16-1.33.48-1.89.76-.99,1.31-1.3c.56-.31,1.18-.47,1.87-.47s1.32.15,1.87.47c.55.31.99.74,1.31,1.3.31.56.47,1.18.47,1.89s-.16,1.33-.47,1.89c-.32.56-.75.99-1.31,1.31-.56.32-1.18.47-1.87.47m0-.86c.51,0,.97-.12,1.37-.35.41-.23.72-.56.95-.99.23-.43.34-.92.34-1.46s-.11-1.03-.34-1.46c-.23-.43-.54-.76-.95-.99-.41-.23-.86-.35-1.37-.35s-.97.12-1.37.35c-.4.23-.72.56-.96.99-.23.43-.35.92-.35,1.46s.11,1.03.35,1.46c.23.43.55.76.96.99.41.23.86.35,1.37.35m8.74.86c-.71,0-1.35-.15-1.91-.47-.56-.31-1-.74-1.32-1.31-.32-.56-.48-1.19-.48-1.89s.16-1.33.48-1.89.76-.99,1.32-1.3c.56-.31,1.2-.47,1.91-.47.62,0,1.17.12,1.66.36.49.24.87.6,1.15,1.06l-.72.49c-.24-.36-.54-.62-.9-.8-.36-.18-.76-.27-1.19-.27-.52,0-.99.12-1.4.35-.41.23-.74.56-.97.99-.23.43-.35.92-.35,1.46s.12,1.05.35,1.47c.23.42.56.75.97.98.41.23.88.35,1.4.35.43,0,.82-.09,1.19-.26.36-.17.67-.44.9-.79l.72.49c-.28.47-.67.82-1.16,1.06-.49.24-1.04.36-1.65.36Zm7.3-3.27h-1.64v3.2h-.97v-7.19h.97v3.16h1.65l2.53-3.16h1.05l-2.83,3.49,3.04,3.7h-1.15l-2.65-3.2h0Zm8.04,3.27c-.69,0-1.32-.16-1.87-.47-.55-.31-.99-.75-1.31-1.31s-.48-1.18-.48-1.89.16-1.33.48-1.89.76-.99,1.31-1.3c.56-.31,1.18-.47,1.87-.47s1.32.15,1.87.47c.56.31.99.74,1.31,1.3.31.56.47,1.18.47,1.89s-.16,1.33-.47,1.89c-.32.56-.75.99-1.31,1.31-.56.32-1.18.47-1.87.47m0-.86c.51,0,.97-.12,1.37-.35.41-.23.72-.56.95-.99.23-.43.34-.92.34-1.46s-.11-1.03-.34-1.46c-.23-.43-.55-.76-.95-.99-.41-.23-.86-.35-1.37-.35s-.97.12-1.37.35c-.4.23-.72.56-.96.99-.23.43-.35.92-.35,1.46s.12,1.03.35,1.46c.23.43.55.76.96.99.41.23.86.35,1.37.35m10.31-2.92c.98.23,1.46.82,1.46,1.76,0,.63-.23,1.11-.7,1.45-.46.34-1.16.5-2.08.5h-3.27v-7.19h3.17c.82,0,1.46.16,1.93.48.46.32.7.77.7,1.37,0,.39-.11.73-.32,1.01-.21.28-.51.48-.9.62h0Zm-3.64-.27h2.16c.56,0,.98-.1,1.28-.31.3-.21.44-.52.44-.92s-.15-.7-.44-.9c-.3-.2-.72-.3-1.28-.3h-2.16v2.43Zm2.28,3.23c.62,0,1.08-.1,1.39-.3.31-.2.46-.51.46-.94s-.14-.75-.42-.95c-.28-.2-.73-.31-1.34-.31h-2.38v2.5h2.28Zm8.09.83c-.71,0-1.35-.15-1.91-.47-.56-.31-1-.74-1.32-1.31-.32-.56-.48-1.19-.48-1.89s.16-1.33.48-1.89c.32-.56.76-.99,1.32-1.3.56-.31,1.2-.47,1.91-.47.62,0,1.17.12,1.66.36.49.24.87.6,1.16,1.06l-.73.49c-.24-.36-.54-.62-.9-.8s-.76-.27-1.19-.27c-.52,0-.99.12-1.4.35-.41.23-.74.56-.97.99-.23.43-.35.92-.35,1.46s.11,1.05.35,1.47c.23.42.56.75.97.98.42.23.88.35,1.4.35.43,0,.82-.09,1.19-.26.36-.17.67-.44.9-.79l.73.49c-.28.47-.67.82-1.16,1.06-.49.24-1.04.36-1.65.36Zm7.3-3.27h-1.64v3.2h-.97v-7.19h.97v3.16h1.65l2.53-3.16h1.05l-2.83,3.49,3.04,3.7h-1.15l-2.65-3.2h0Zm8.04,3.27c-.69,0-1.32-.16-1.87-.47-.56-.31-.99-.75-1.31-1.31s-.48-1.18-.48-1.89.16-1.33.48-1.89c.32-.56.76-.99,1.31-1.3.56-.31,1.18-.47,1.87-.47s1.32.15,1.87.47c.56.31.99.74,1.31,1.3s.47,1.18.47,1.89-.16,1.33-.47,1.89-.75.99-1.31,1.31c-.55.32-1.18.47-1.87.47m0-.86c.51,0,.97-.12,1.37-.35.4-.23.72-.56.95-.99.23-.43.34-.92.34-1.46s-.11-1.03-.34-1.46-.55-.76-.95-.99c-.41-.23-.86-.35-1.37-.35s-.97.12-1.37.35c-.41.23-.73.56-.96.99-.23.43-.35.92-.35,1.46s.12,1.03.35,1.46c.23.43.55.76.96.99.4.23.86.35,1.37.35m5.73-6.4h.97v5.71l4.8-5.71h.86v7.19h-.97v-5.71l-4.78,5.71h-.88v-7.19Zm3.27-1.04c-.62,0-1.11-.16-1.48-.47-.36-.31-.55-.75-.56-1.31h.7c0,.36.14.64.38.85.25.22.57.32.96.32s.71-.11.96-.32c.25-.21.38-.5.39-.85h.7c0,.56-.2,1-.57,1.31-.37.31-.86.47-1.48.47m12.69,8.3c-.69,0-1.32-.16-1.87-.47-.56-.31-.99-.75-1.31-1.31s-.48-1.18-.48-1.89.16-1.33.48-1.89c.32-.56.76-.99,1.31-1.3.55-.31,1.18-.47,1.87-.47s1.32.15,1.87.47c.56.31.99.74,1.31,1.3.31.56.47,1.18.47,1.89s-.16,1.33-.47,1.89c-.32.56-.75.99-1.31,1.31-.56.31-1.18.47-1.87.47m0-.86c.51,0,.97-.12,1.37-.35.41-.23.72-.56.95-.99.23-.43.34-.92.34-1.46s-.11-1.03-.34-1.46c-.23-.43-.54-.76-.95-.99-.41-.23-.86-.35-1.37-.35s-.97.12-1.37.35c-.4.23-.72.56-.96.99-.23.43-.35.92-.35,1.46s.12,1.03.35,1.46c.23.43.55.76.96.99.41.23.86.35,1.37.35m9.21-6.22c.66,0,1.26.15,1.78.44.52.3.93.71,1.22,1.24.29.53.44,1.14.44,1.83s-.15,1.32-.46,1.87c-.31.54-.73.96-1.28,1.26-.55.3-1.18.45-1.89.45-1.19,0-2.12-.42-2.77-1.26-.66-.84-.98-2-.98-3.47s.29-2.72.88-3.54c.59-.82,1.51-1.38,2.75-1.67l3.23-.74.16.89-3.04.7c-1.03.23-1.79.63-2.27,1.21-.48.58-.75,1.43-.79,2.56.29-.56.7-.99,1.22-1.31.52-.31,1.12-.47,1.79-.47h0Zm-.15,6.29c.5,0,.95-.12,1.35-.35.4-.23.71-.56.93-.98.22-.42.34-.89.34-1.42s-.11-.99-.33-1.39c-.22-.4-.53-.71-.92-.94-.4-.22-.85-.33-1.36-.33s-.96.11-1.36.33c-.4.22-.71.54-.93.94-.22.4-.33.87-.33,1.39s.11,1,.33,1.42c.22.42.54.74.94.98.4.23.85.35,1.35.35h0Zm11.51-6.47v7.19h-.97v-6.33h-3.45l-.1,1.78c-.07,1.5-.25,2.64-.52,3.44-.27.8-.76,1.2-1.46,1.2-.19,0-.42-.04-.7-.11l.07-.84c.16.04.28.06.34.06.37,0,.66-.17.85-.52.19-.35.32-.77.38-1.28.06-.51.12-1.19.16-2.02l.12-2.57h5.26Zm5.24-.06c.94,0,1.66.24,2.16.7.5.47.75,1.16.75,2.08v4.46h-.93v-1.12c-.22.37-.54.66-.96.88-.42.21-.93.31-1.51.31-.8,0-1.44-.19-1.91-.57-.47-.38-.71-.89-.71-1.52s.22-1.1.66-1.48c.44-.37,1.15-.56,2.11-.56h2.28v-.44c0-.62-.17-1.09-.52-1.41-.35-.32-.85-.49-1.52-.49-.46,0-.89.07-1.31.23-.42.15-.78.36-1.08.62l-.44-.73c.36-.31.8-.55,1.31-.72.51-.17,1.05-.25,1.61-.25h0Zm-.34,6.55c.55,0,1.02-.13,1.41-.38.39-.25.68-.61.87-1.09v-1.17h-2.26c-1.23,0-1.85.43-1.85,1.28,0,.42.16.75.48.99.32.24.77.36,1.34.36h0Zm8.85.76c-.71,0-1.35-.16-1.91-.47-.56-.31-1-.74-1.32-1.31-.32-.56-.48-1.19-.48-1.89s.16-1.33.48-1.89c.32-.56.76-.99,1.32-1.3.56-.31,1.2-.46,1.91-.46.62,0,1.17.12,1.66.36.49.24.87.59,1.15,1.06l-.72.49c-.24-.36-.54-.62-.9-.8-.36-.18-.76-.27-1.19-.27-.52,0-.99.12-1.4.35-.42.23-.74.56-.97.99-.23.43-.35.92-.35,1.46s.12,1.05.35,1.47c.23.42.56.75.97.98.41.23.88.35,1.4.35.43,0,.82-.09,1.19-.26.36-.17.67-.44.9-.79l.72.49c-.28.47-.67.82-1.16,1.06-.49.24-1.04.36-1.65.36Zm9.61-6.4h-2.72v6.33h-.97v-6.33h-2.72v-.86h6.41v.86h0Zm1.41-.86h.97v5.72l4.8-5.72h.86v7.19h-.97v-5.71l-4.79,5.71h-.88v-7.19Zm-133.74,21.4v.88h-6.71v-.7l3.98-3.9c.5-.49.84-.92,1.02-1.28.18-.36.27-.72.27-1.09,0-.56-.19-1.01-.58-1.32-.39-.31-.94-.47-1.66-.47-1.12,0-1.99.35-2.61,1.07l-.7-.6c.37-.44.85-.77,1.43-1.01.58-.24,1.23-.36,1.96-.36.97,0,1.75.23,2.32.69.57.46.85,1.09.85,1.89,0,.49-.11.97-.33,1.42-.22.46-.63.98-1.24,1.57l-3.25,3.2h5.26Zm4.99.96c-.74,0-1.4-.19-1.98-.59s-1.03-.96-1.35-1.69c-.32-.73-.49-1.6-.49-2.59s.16-1.86.49-2.59c.32-.73.77-1.3,1.35-1.69s1.24-.59,1.98-.59,1.4.2,1.98.59,1.03.95,1.36,1.69c.33.73.49,1.6.49,2.59s-.16,1.86-.49,2.59c-.33.73-.78,1.3-1.36,1.69-.58.39-1.24.59-1.98.59m0-.9c.56,0,1.05-.16,1.47-.47.42-.31.75-.76.99-1.35.24-.59.36-1.31.36-2.15s-.12-1.55-.36-2.15c-.24-.59-.57-1.04-.99-1.35-.42-.31-.91-.47-1.47-.47s-1.04.15-1.47.47c-.42.31-.75.76-.99,1.35s-.36,1.31-.36,2.15.12,1.55.36,2.15c.24.59.57,1.04.99,1.35.42.31.91.47,1.47.47m11.74-.06v.88h-6.71v-.7l3.98-3.9c.5-.49.84-.92,1.02-1.28.18-.36.27-.72.27-1.09,0-.56-.19-1.01-.58-1.32-.39-.31-.94-.47-1.66-.47-1.12,0-1.99.35-2.61,1.07l-.7-.6c.37-.44.85-.77,1.43-1.01.58-.24,1.23-.36,1.96-.36.98,0,1.75.23,2.32.69.57.46.85,1.09.85,1.89,0,.49-.11.97-.33,1.42-.22.46-.63.98-1.24,1.57l-3.25,3.2h5.26Z"/>
      <path class="cls-1" d="m232.39,35.11c1.39,0,2.39.25,3.03.75.63.5.95,1.19.95,2.08,0,.56-.13,1.05-.39,1.49-.26.44-.65.78-1.17,1.03-.52.25-1.16.38-1.91.38-.68,0-1.33-.11-1.95-.34-.62-.22-1.11-.52-1.48-.89l.48-.78c.32.33.74.6,1.26.8s1.08.31,1.68.31c.79,0,1.4-.18,1.84-.53.43-.35.65-.83.65-1.42,0-.66-.24-1.15-.73-1.49-.49-.34-1.31-.51-2.47-.51h-2.04l.49-4.8h5.24v.88h-4.37l-.33,3.05h1.23,0Z"/>
      <path class="cls-1" d="m73.93,17.04l-.02-16.17h-1.89l-6.66,11.37L58.6.87h-1.89v16.17h2.22V5.33l5.85,9.75h1.07l5.85-9.82.02,11.78h2.22Zm11.06-10.54h-4.81V.87h-2.29v16.17h6.68c4.04,0,6.38-1.85,6.38-5.43,0-3.37-2.12-5.11-5.96-5.11Zm8.53,10.54h2.29V.87h-2.29v16.17Zm-9.03-1.83h-4.3v-6.89h4.3c2.7,0,4.16,1.04,4.16,3.33s-1.48,3.56-4.16,3.56M112.3.87h-6.31v16.17h2.31v-4.9h4c4.21,0,6.75-2.13,6.75-5.64s-2.54-5.64-6.75-5.64Zm-.07,9.27h-3.93V2.88h3.93c2.96,0,4.51,1.32,4.51,3.63s-1.55,3.63-4.51,3.63ZM127.11.87c-3.97,0-6.54,2.13-6.54,5.82,0,2.61,1.29,4.46,3.58,5.22l-3.58,5.13h2.45l3.24-4.74c.21.02.42.02.62.02h4.46v4.71h2.26V.87h-6.49Zm-4.2,5.8c0-2.5,1.55-3.79,4.3-3.79h4.14v7.51h-4.28c-2.75,0-4.16-1.34-4.16-3.72m27.5,8.37V.87h-11.36l-.16,5.2c-.15,4.92-.69,8.97-2.91,8.97h-.79l-.02,5.55h2.15l.02-3.54h13.3v3.54h2.15v-5.55h-2.38Zm-9.49-8.76l.12-3.4h7.08v12.15h-9.12c1.39-1.25,1.78-4.81,1.92-8.76m21.25,10.95c4.92,0,8.57-3.51,8.57-8.27s-3.65-8.27-8.57-8.27-8.62,3.54-8.62,8.27,3.65,8.27,8.62,8.27m0-2.06c-3.63,0-6.31-2.63-6.31-6.21s2.68-6.22,6.31-6.22,6.26,2.63,6.26,6.22-2.68,6.21-6.26,6.21m28.48,1.87l-.02-16.17h-1.9l-6.66,11.37-6.75-11.37h-1.9v16.17h2.22V5.33l5.85,9.75h1.07l5.85-9.82.02,11.78h2.22Z"/>
      <path class="cls-1" d="m138.4,37.14v-12.51h-12.98l-.18,4.98c-.17,4.31-.69,7.48-2.74,7.53h-.58v6.86h4.19v-3.25h10.32v3.25h4.17v-6.86h-2.19,0Zm-9.18-7.14l.07-1.75h4.62v8.89h-6.09c.94-1.36,1.29-3.98,1.4-7.14m17.74,7.23v-2.95h7.16v-3.41h-7.16v-2.72h8.13v-3.52h-12.64v16.12h12.94v-3.52h-8.43Zm12.75-12.6l-.23,6.43c-.14,3.64-.48,6.03-2.35,6.03-.21,0-.41-.02-.62-.07l-.25,3.73c.76.18,1.45.28,2.07.28,4.1,0,4.95-3.87,5.16-10.15l.09-2.62h4.63v12.5h4.49v-16.12h-12.99Zm24.04,16.44c5.16,0,8.96-3.55,8.96-8.38s-3.8-8.38-8.96-8.38-8.96,3.55-8.96,8.38,3.8,8.38,8.96,8.38m0-3.78c-2.44,0-4.35-1.82-4.35-4.61s1.91-4.61,4.35-4.61,4.35,1.82,4.35,4.61-1.91,4.61-4.35,4.61"/>
      <path class="cls-1" d="m16.49,37.14v-12.5H3.5l-.18,4.97c-.17,4.31-.69,7.48-2.74,7.53H0v6.86h4.19v-3.25h10.32v3.25h4.17v-6.86h-2.19Zm-9.18-7.14l.07-1.75h4.62v8.89h-6.1c.94-1.36,1.29-3.98,1.4-7.14Zm21.15,11.08c5.16,0,8.96-3.55,8.96-8.38s-3.8-8.38-8.96-8.38-8.96,3.55-8.96,8.38,3.8,8.38,8.96,8.38m0-3.78c-2.44,0-4.35-1.82-4.35-4.61s1.91-4.61,4.35-4.61,4.35,1.82,4.35,4.61-1.91,4.61-4.35,4.61m11.07,3.45h8.06c4.19,0,6.65-1.91,6.65-5.18s-2.14-4.81-6.06-4.81h-4.17v-2.6h8.98v-3.52h-13.47v16.12Zm4.49-3.27v-3.48h3.27c1.56,0,2.35.55,2.35,1.7s-.83,1.77-2.35,1.77h-3.27Zm19.62-12.85h-7.37v16.12h4.56v-4.21h2.81c4.4,0,7.16-2.28,7.16-5.94s-2.76-5.97-7.16-5.97m-.28,8.31h-2.53v-4.72h2.53c1.89,0,2.83.88,2.83,2.37s-.94,2.35-2.83,2.35m17.31,8.13c5.16,0,8.96-3.55,8.96-8.38s-3.8-8.38-8.96-8.38-8.96,3.55-8.96,8.38,3.8,8.38,8.96,8.38m0-3.78c-2.44,0-4.35-1.82-4.35-4.61s1.91-4.61,4.35-4.61,4.35,1.82,4.35,4.61-1.91,4.61-4.35,4.61m15.59-.07v-2.95h7.16v-3.41h-7.16v-2.72h8.13v-3.52h-12.64v16.12h12.94v-3.52h-8.43Z"/>
    </g>
  </g>
</svg>