<svg width="355" height="44" viewBox="0 0 355 44" fill="none" xmlns="http://www.w3.org/2000/svg">
<path fill-rule="evenodd" clip-rule="evenodd" d="M116.906 27.8742C115.201 27.9579 114.072 29.5944 114.072 29.5944C114.072 29.5944 112.942 27.9579 111.237 27.8742C109.104 27.7799 107.671 29.3008 107.566 31.0206C107.472 32.7195 109.114 34.4184 110.15 35.3942C112.325 37.4496 113.308 38.089 114.051 38.7711L114.072 38.79L114.093 38.7711C114.836 38.089 115.819 37.4496 117.994 35.3942C119.03 34.4184 120.672 32.7195 120.578 31.0206C120.473 29.3008 119.04 27.7696 116.907 27.8742H116.906Z" fill="#E40032"/>
<path d="M214.331 1.02542V10.595H213.333V1.90072H207.277V10.595H206.279V1.02542H214.331H214.331ZM221.03 3.34943C221.704 3.34943 222.315 3.50201 222.861 3.80758C223.408 4.11275 223.836 4.54343 224.146 5.09961C224.456 5.65498 224.611 6.28828 224.611 6.99992C224.611 7.71935 224.456 8.35757 224.146 8.91376C223.836 9.46913 223.411 9.8998 222.868 10.2054C222.326 10.5105 221.713 10.6631 221.03 10.6631C220.447 10.6631 219.92 10.5425 219.451 10.3009C218.982 10.0594 218.596 9.7062 218.295 9.24107V13.2472H217.325V3.40398H218.255V4.82603C218.546 4.35188 218.931 3.98806 219.41 3.73252C219.888 3.4774 220.428 3.34984 221.03 3.34984V3.34943ZM220.961 9.80218C221.463 9.80218 221.918 9.68651 222.329 9.45354C222.738 9.22139 223.06 8.89079 223.293 8.46216C223.525 8.03395 223.641 7.54626 223.641 6.99992C223.641 6.45275 223.525 5.96753 223.293 5.54382C223.06 5.12012 222.739 4.78994 222.329 4.55245C221.918 4.31578 221.463 4.19683 220.961 4.19683C220.451 4.19683 219.993 4.31537 219.587 4.55245C219.182 4.78953 218.863 5.12012 218.63 5.54382C218.398 5.96753 218.282 6.45275 218.282 6.99992C218.282 7.54626 218.398 8.03395 218.63 8.46216C218.863 8.89079 219.182 9.22139 219.587 9.45354C219.993 9.68651 220.451 9.80218 220.961 9.80218ZM232.991 7.30057H226.976C227.031 8.0479 227.318 8.65125 227.837 9.11187C228.357 9.57167 229.013 9.80218 229.806 9.80218C230.253 9.80218 230.663 9.72261 231.036 9.56305C231.41 9.4035 231.734 9.16888 232.006 8.85921L232.554 9.48758C232.234 9.87068 231.836 10.1623 231.358 10.3629C230.879 10.563 230.352 10.6635 229.779 10.6635C229.04 10.6635 228.386 10.5064 227.817 10.1918C227.247 9.87724 226.803 9.44205 226.484 8.88628C226.164 8.33009 226.005 7.7013 226.005 6.99992C226.005 6.29771 226.158 5.66892 226.463 5.11315C226.769 4.55696 227.188 4.12423 227.721 3.81415C228.254 3.50447 228.853 3.34943 229.519 3.34943C230.184 3.34943 230.781 3.50447 231.31 3.81415C231.838 4.12423 232.253 4.55491 232.554 5.10617C232.854 5.65744 233.004 6.28828 233.004 6.99992L232.99 7.30057H232.991ZM229.519 4.18371C228.826 4.18371 228.246 4.40479 227.776 4.84654C227.307 5.28911 227.04 5.86539 226.977 6.57621H232.076C232.012 5.86581 231.746 5.28911 231.276 4.84654C230.807 4.40479 230.221 4.18371 229.52 4.18371H229.519ZM243.19 3.40398V10.595H242.301V4.90806L239.389 9.72015H238.952L236.04 4.89494V10.5954H235.152V3.40439H236.136L239.184 8.58604L242.288 3.40439H243.19L243.19 3.40398ZM245.951 3.40398H246.922V9.11884L251.72 3.40398H252.582V10.595H251.611V4.88058L246.827 10.595H245.951V3.40398ZM260.88 3.40398V10.595H259.991V8.21606H257.736H257.462L255.795 10.595H254.742L256.533 8.07989C255.977 7.92485 255.549 7.6607 255.248 7.28662C254.947 6.91296 254.797 6.43922 254.797 5.86498C254.797 5.06311 255.071 4.45237 255.617 4.03277C256.164 3.61399 256.912 3.40398 257.86 3.40398H260.881H260.88ZM255.781 5.89247C255.781 6.95849 256.46 7.49212 257.818 7.49212H259.991V4.26574H257.886C256.483 4.26574 255.781 4.80798 255.781 5.89247H255.781ZM273.54 1.90072H268.44L268.454 10.595H267.456V1.02542H273.54V1.90072ZM279.514 3.40398L275.918 11.456C275.627 12.1307 275.289 12.609 274.907 12.8916C274.524 13.1746 274.064 13.3157 273.526 13.3157C273.179 13.3157 272.856 13.2607 272.556 13.1516C272.255 13.0425 271.995 12.878 271.776 12.6594L272.227 11.9346C272.592 12.2993 273.029 12.4814 273.54 12.4814C273.867 12.4814 274.148 12.3907 274.38 12.2082C274.613 12.0257 274.829 11.7156 275.029 11.2788L275.344 10.5811L272.131 3.40357H273.143L275.85 9.51466L278.556 3.40357H279.514V3.40398ZM284.408 3.58199C285.073 3.58199 285.668 3.73006 286.191 4.02661C286.715 4.32275 287.123 4.73743 287.415 5.27065C287.706 5.80387 287.852 6.41174 287.852 7.09549C287.852 7.79769 287.7 8.41951 287.395 8.96134C287.089 9.50358 286.663 9.92523 286.117 10.2259C285.569 10.5265 284.94 10.6767 284.23 10.6767C283.036 10.6767 282.11 10.2579 281.455 9.41909C280.799 8.58111 280.471 7.42321 280.471 5.94661C280.471 4.40643 280.764 3.22638 281.352 2.40645C281.939 1.58612 282.858 1.02993 284.107 0.738301L287.333 0L287.497 0.888423L284.462 1.58612C283.432 1.81417 282.676 2.21696 282.193 2.7957C281.71 3.37445 281.446 4.22924 281.4 5.35884C281.692 4.80347 282.097 4.36787 282.617 4.05327C283.136 3.73868 283.733 3.58158 284.408 3.58158V3.58199ZM284.258 9.87068C284.759 9.87068 285.208 9.75419 285.604 9.52204C286.001 9.28906 286.311 8.96339 286.533 8.54461C286.757 8.12542 286.868 7.65167 286.868 7.12256C286.868 6.59385 286.759 6.12913 286.54 5.7284C286.322 5.32726 286.014 5.01512 285.618 4.79199C285.222 4.56845 284.768 4.45729 284.258 4.45729C283.747 4.45729 283.294 4.56845 282.898 4.79199C282.501 5.01512 282.191 5.32767 281.968 5.7284C281.745 6.12954 281.633 6.59426 281.633 7.12256C281.633 7.65167 281.745 8.12542 281.968 8.54461C282.192 8.96339 282.504 9.28947 282.905 9.52204C283.306 9.75419 283.757 9.87068 284.258 9.87068H284.258ZM296.219 7.30057H290.204C290.259 8.0479 290.546 8.65125 291.065 9.11187C291.584 9.57167 292.241 9.80218 293.034 9.80218C293.48 9.80218 293.89 9.72261 294.264 9.56305C294.637 9.4035 294.961 9.16888 295.234 8.85921L295.781 9.48758C295.462 9.87068 295.064 10.1623 294.585 10.3629C294.106 10.563 293.58 10.6635 293.006 10.6635C292.268 10.6635 291.614 10.5064 291.045 10.1918C290.475 9.87724 290.031 9.44205 289.711 8.88628C289.392 8.33009 289.233 7.7013 289.233 6.99992C289.233 6.29771 289.385 5.66892 289.691 5.11315C289.996 4.55696 290.416 4.12423 290.948 3.81415C291.482 3.50447 292.081 3.34943 292.746 3.34943C293.411 3.34943 294.009 3.50447 294.537 3.81415C295.066 4.12423 295.481 4.55491 295.781 5.10617C296.082 5.65744 296.232 6.28828 296.232 6.99992L296.218 7.30057H296.219ZM292.747 4.18371C292.054 4.18371 291.473 4.40479 291.004 4.84654C290.534 5.28911 290.268 5.86539 290.204 6.57621H295.303C295.239 5.86581 294.973 5.28911 294.504 4.84654C294.034 4.40479 293.449 4.18371 292.747 4.18371H292.747ZM302.084 3.34943C302.758 3.34943 303.369 3.50201 303.915 3.80758C304.462 4.11275 304.89 4.54343 305.2 5.09961C305.51 5.65498 305.665 6.28828 305.665 6.99992C305.665 7.71935 305.51 8.35757 305.2 8.91376C304.89 9.46913 304.465 9.8998 303.922 10.2054C303.381 10.5105 302.767 10.6631 302.084 10.6631C301.501 10.6631 300.974 10.5425 300.505 10.3009C300.036 10.0594 299.65 9.7062 299.349 9.24107V13.2472H298.379V3.40398H299.308V4.82603C299.6 4.35188 299.985 3.98806 300.464 3.73252C300.942 3.4774 301.482 3.34984 302.084 3.34984V3.34943ZM302.015 9.80218C302.517 9.80218 302.972 9.68651 303.383 9.45354C303.792 9.22139 304.114 8.89079 304.347 8.46216C304.579 8.03395 304.695 7.54626 304.695 6.99992C304.695 6.45275 304.579 5.96753 304.347 5.54382C304.114 5.12012 303.793 4.78994 303.383 4.55245C302.972 4.31578 302.517 4.19683 302.015 4.19683C301.505 4.19683 301.047 4.31537 300.641 4.55245C300.236 4.78953 299.917 5.12012 299.684 5.54382C299.452 5.96753 299.336 6.45275 299.336 6.99992C299.336 7.54626 299.452 8.03395 299.684 8.46216C299.917 8.89079 300.236 9.22139 300.641 9.45354C301.047 9.68651 301.505 9.80218 302.015 9.80218ZM307.757 3.40398H308.727V6.58975H313.252V3.40398H314.223V10.595H313.252V7.42321H308.727V10.595H307.757V3.40398ZM319.459 3.34943C320.398 3.34943 321.117 3.58445 321.619 4.05369C322.12 4.52292 322.371 5.21815 322.371 6.13816V10.595H321.441V9.47405C321.223 9.84771 320.902 10.1389 320.477 10.3489C320.054 10.5585 319.55 10.6635 318.967 10.6635C318.165 10.6635 317.527 10.472 317.053 10.0893C316.579 9.70661 316.343 9.20088 316.343 8.57168C316.343 7.96094 316.563 7.46915 317.005 7.09508C317.448 6.72141 318.151 6.53479 319.118 6.53479H321.401V6.09673C321.401 5.47697 321.228 5.00527 320.882 4.68206C320.535 4.35844 320.029 4.19642 319.363 4.19642C318.908 4.19642 318.471 4.27189 318.052 4.42243C317.632 4.57255 317.272 4.78009 316.972 5.04424L316.534 4.31988C316.898 4.0098 317.336 3.77067 317.846 3.60209C318.357 3.4331 318.894 3.34902 319.459 3.34902V3.34943ZM319.117 9.89775C319.664 9.89775 320.134 9.77224 320.525 9.52204C320.918 9.27102 321.209 8.90884 321.401 8.43509V7.25914H319.145C317.915 7.25914 317.3 7.68736 317.3 8.5442C317.3 8.96298 317.459 9.29398 317.778 9.53557C318.097 9.77675 318.544 9.89775 319.118 9.89775H319.117ZM330.013 4.26533H327.292V10.5946H326.322V4.26533H323.601V3.40357H330.013V4.26533H330.013ZM334.06 10.6631C333.367 10.6631 332.743 10.506 332.187 10.1914C331.631 9.87683 331.194 9.44164 330.875 8.88587C330.556 8.32968 330.397 7.70089 330.397 6.99951C330.397 6.2973 330.556 5.66851 330.875 5.11274C331.194 4.55655 331.631 4.12382 332.187 3.81374C332.743 3.50406 333.367 3.34902 334.06 3.34902C334.753 3.34902 335.377 3.50406 335.933 3.81374C336.488 4.12382 336.924 4.55655 337.238 5.11274C337.553 5.66851 337.71 6.2973 337.71 6.99951C337.71 7.70089 337.553 8.32968 337.238 8.88587C336.924 9.44164 336.488 9.87683 335.933 10.1914C335.377 10.506 334.753 10.6631 334.06 10.6631ZM334.06 9.80177C334.57 9.80177 335.028 9.6861 335.434 9.45313C335.839 9.22097 336.156 8.89038 336.384 8.46175C336.612 8.03354 336.726 7.54585 336.726 6.99951C336.726 6.45234 336.612 5.96465 336.384 5.53644C336.156 5.10823 335.839 4.77804 335.434 4.54507C335.028 4.31291 334.57 4.19642 334.06 4.19642C333.55 4.19642 333.092 4.31291 332.686 4.54507C332.28 4.77804 331.961 5.10823 331.729 5.53644C331.496 5.96465 331.38 6.45234 331.38 6.99951C331.38 7.54585 331.496 8.03354 331.729 8.46175C331.961 8.89038 332.28 9.22097 332.686 9.45313C333.092 9.6861 333.55 9.80177 334.06 9.80177ZM343.492 3.34902C344.167 3.34902 344.778 3.5016 345.324 3.80717C345.871 4.11234 346.299 4.54302 346.609 5.0992C346.919 5.65457 347.074 6.28787 347.074 6.99951C347.074 7.71894 346.919 8.35716 346.609 8.91335C346.299 9.46872 345.873 9.89939 345.331 10.205C344.789 10.5101 344.176 10.6627 343.492 10.6627C342.909 10.6627 342.383 10.5421 341.914 10.3005C341.444 10.0589 341.059 9.70579 340.758 9.24066V13.2468H339.788V3.40357H340.717V4.82562C341.009 4.35147 341.394 3.98765 341.873 3.73211C342.351 3.47699 342.891 3.34943 343.492 3.34943V3.34902ZM343.424 9.80177C343.926 9.80177 344.381 9.6861 344.791 9.45313C345.201 9.22097 345.523 8.89038 345.755 8.46175C345.988 8.03354 346.104 7.54585 346.104 6.99951C346.104 6.45234 345.988 5.96712 345.755 5.54341C345.523 5.11971 345.202 4.78953 344.791 4.55204C344.381 4.31537 343.926 4.19642 343.424 4.19642C342.914 4.19642 342.456 4.31496 342.05 4.55204C341.645 4.78912 341.325 5.11971 341.093 5.54341C340.86 5.96712 340.745 6.45234 340.745 6.99951C340.745 7.54585 340.86 8.03354 341.093 8.46175C341.325 8.89038 341.645 9.22097 342.05 9.45313C342.456 9.6861 342.914 9.80177 343.424 9.80177ZM351.599 3.34902C352.538 3.34902 353.258 3.58404 353.759 4.05327C354.261 4.52251 354.511 5.21774 354.511 6.13775V10.5946H353.582V9.47364C353.363 9.8473 353.042 10.1385 352.618 10.3485C352.194 10.5581 351.69 10.6631 351.107 10.6631C350.305 10.6631 349.667 10.4716 349.193 10.0889C348.719 9.7062 348.483 9.20047 348.483 8.57127C348.483 7.96053 348.704 7.46874 349.146 7.09467C349.588 6.721 350.292 6.53438 351.258 6.53438H353.541V6.09632C353.541 5.47656 353.368 5.00486 353.021 4.68165C352.675 4.35803 352.169 4.19601 351.504 4.19601C351.048 4.19601 350.611 4.27148 350.192 4.42202C349.772 4.57214 349.412 4.77968 349.112 5.04383L348.674 4.31947C349.039 4.00939 349.476 3.77026 349.987 3.60168C350.496 3.43269 351.035 3.34861 351.599 3.34861V3.34902ZM351.258 9.89734C351.804 9.89734 352.274 9.77183 352.666 9.52163C353.057 9.27061 353.349 8.90843 353.541 8.43468V7.25873H351.285C350.055 7.25873 349.439 7.68695 349.439 8.54379C349.439 8.96257 349.599 9.29357 349.918 9.53516C350.237 9.77634 350.683 9.89734 351.258 9.89734H351.258ZM216.218 16.106V25.6757H215.248V18.0203L211.489 24.4595H211.01L207.251 18.0617V25.6757H206.28V16.106H207.115L211.27 23.2015L215.385 16.106H216.219H216.218ZM222.179 25.7442C221.486 25.7442 220.862 25.5871 220.306 25.2725C219.75 24.9579 219.313 24.5227 218.994 23.9665C218.675 23.4107 218.516 22.7819 218.516 22.0801C218.516 21.3783 218.675 20.7496 218.994 20.1934C219.313 19.6376 219.75 19.2045 220.306 18.8944C220.862 18.5847 221.486 18.4296 222.179 18.4296C222.872 18.4296 223.496 18.5847 224.052 18.8944C224.607 19.2045 225.043 19.6376 225.358 20.1934C225.672 20.7496 225.829 21.3783 225.829 22.0801C225.829 22.7819 225.672 23.4107 225.358 23.9665C225.043 24.5227 224.607 24.9579 224.052 25.2725C223.496 25.5871 222.872 25.7442 222.179 25.7442ZM222.179 24.8824C222.689 24.8824 223.147 24.7667 223.553 24.5342C223.959 24.3016 224.275 23.971 224.503 23.5428C224.731 23.1146 224.845 22.6269 224.845 22.0801C224.845 21.5334 224.731 21.0457 224.503 20.6171C224.275 20.1889 223.959 19.8587 223.553 19.6261C223.147 19.3935 222.689 19.2775 222.179 19.2775C221.669 19.2775 221.211 19.3935 220.805 19.6261C220.4 19.8587 220.08 20.1889 219.848 20.6171C219.615 21.0457 219.5 21.5334 219.5 22.0801C219.5 22.6269 219.615 23.1146 219.848 23.5428C220.08 23.971 220.4 24.3016 220.805 24.5342C221.211 24.7667 221.669 24.8824 222.179 24.8824ZM230.914 25.7442C230.204 25.7442 229.568 25.5891 229.007 25.2794C228.447 24.9694 228.007 24.5342 227.688 23.9735C227.369 23.4132 227.21 22.7819 227.21 22.0801C227.21 21.3783 227.369 20.7496 227.688 20.1934C228.007 19.6376 228.447 19.2045 229.007 18.8944C229.568 18.5847 230.203 18.4296 230.914 18.4296C231.534 18.4296 232.088 18.5506 232.575 18.7922C233.063 19.0338 233.448 19.387 233.73 19.8517L233.006 20.3439C232.769 19.9883 232.468 19.7221 232.104 19.5445C231.739 19.3665 231.343 19.2779 230.914 19.2779C230.395 19.2779 229.928 19.3939 229.513 19.6265C229.099 19.8591 228.775 20.1893 228.543 20.6175C228.31 21.0461 228.194 21.5338 228.194 22.0805C228.194 22.6367 228.31 23.1265 228.543 23.5502C228.775 23.9739 229.099 24.302 229.513 24.5346C229.928 24.7671 230.395 24.8828 230.914 24.8828C231.343 24.8828 231.739 24.7967 232.104 24.6232C232.468 24.4501 232.769 24.1859 233.006 23.8303L233.73 24.3225C233.448 24.7872 233.061 25.1408 232.568 25.382C232.076 25.6236 231.525 25.7446 230.914 25.7446V25.7442ZM238.215 22.4768H236.574V25.6753H235.604V18.4846H236.574V21.6425H238.228L240.757 18.4846H241.809L238.98 21.971L242.015 25.6757H240.866L238.214 22.4772L238.215 22.4768ZM246.253 25.7442C245.56 25.7442 244.937 25.5871 244.38 25.2725C243.825 24.9579 243.387 24.5227 243.068 23.9665C242.749 23.4107 242.59 22.7819 242.59 22.0801C242.59 21.3783 242.749 20.7496 243.068 20.1934C243.387 19.6376 243.825 19.2045 244.38 18.8944C244.937 18.5847 245.56 18.4296 246.253 18.4296C246.946 18.4296 247.57 18.5847 248.126 18.8944C248.682 19.2045 249.117 19.6376 249.432 20.1934C249.746 20.7496 249.903 21.3783 249.903 22.0801C249.903 22.7819 249.746 23.4107 249.432 23.9665C249.117 24.5227 248.682 24.9579 248.126 25.2725C247.57 25.5871 246.946 25.7442 246.253 25.7442ZM246.253 24.8824C246.763 24.8824 247.221 24.7667 247.627 24.5342C248.033 24.3016 248.349 23.971 248.578 23.5428C248.805 23.1146 248.919 22.6269 248.919 22.0801C248.919 21.5334 248.805 21.0457 248.578 20.6171C248.349 20.1889 248.033 19.8587 247.627 19.6261C247.221 19.3935 246.763 19.2775 246.253 19.2775C245.743 19.2775 245.285 19.3935 244.879 19.6261C244.474 19.8587 244.155 20.1889 243.922 20.6171C243.69 21.0457 243.574 21.5334 243.574 22.0801C243.574 22.6269 243.69 23.1146 243.922 23.5428C244.155 23.971 244.474 24.3016 244.879 24.5342C245.285 24.7667 245.743 24.8824 246.253 24.8824ZM256.561 21.9571C257.536 22.1851 258.024 22.7729 258.024 23.7208C258.024 24.3496 257.791 24.8328 257.326 25.1699C256.862 25.5071 256.169 25.6753 255.248 25.6753H251.981V18.4846H255.153C255.973 18.4846 256.615 18.6442 257.08 18.9633C257.545 19.2824 257.777 19.7381 257.777 20.3304C257.777 20.7225 257.67 21.0572 257.456 21.3353C257.242 21.6134 256.943 21.8209 256.56 21.9571H256.561ZM252.925 21.6835H255.085C255.641 21.6835 256.066 21.5785 256.363 21.3689C256.659 21.1593 256.807 20.8541 256.807 20.453C256.807 20.0519 256.659 19.7508 256.363 19.5506C256.066 19.3505 255.641 19.25 255.085 19.25H252.925V21.6831V21.6835ZM255.208 24.9099C255.828 24.9099 256.292 24.8094 256.602 24.6092C256.912 24.4087 257.067 24.0941 257.067 23.6658C257.067 23.2376 256.925 22.9206 256.643 22.7155C256.361 22.5104 255.914 22.4079 255.303 22.4079H252.924V24.9099H255.208H255.208ZM263.301 25.7442C262.59 25.7442 261.954 25.5891 261.393 25.2794C260.833 24.9694 260.393 24.5342 260.074 23.9735C259.755 23.4132 259.596 22.7819 259.596 22.0801C259.596 21.3783 259.755 20.7496 260.074 20.1934C260.394 19.6376 260.833 19.2045 261.393 18.8944C261.954 18.5847 262.59 18.4296 263.301 18.4296C263.92 18.4296 264.474 18.5506 264.962 18.7922C265.449 19.0338 265.834 19.387 266.117 19.8517L265.392 20.3439C265.156 19.9883 264.855 19.7221 264.49 19.5445C264.125 19.3665 263.729 19.2779 263.301 19.2779C262.781 19.2779 262.314 19.3939 261.899 19.6265C261.485 19.8591 261.161 20.1893 260.929 20.6175C260.696 21.0461 260.581 21.5338 260.581 22.0805C260.581 22.6367 260.696 23.1265 260.929 23.5502C261.162 23.9739 261.485 24.302 261.899 24.5346C262.314 24.7671 262.781 24.8828 263.301 24.8828C263.729 24.8828 264.125 24.7967 264.49 24.6232C264.855 24.4501 265.155 24.1859 265.392 23.8303L266.117 24.3225C265.834 24.7872 265.447 25.1408 264.955 25.382C264.462 25.6236 263.911 25.7446 263.301 25.7446V25.7442ZM270.601 22.4768H268.96V25.6753H267.99V18.4846H268.96V21.6425H270.614L273.143 18.4846H274.196L271.366 21.971L274.401 25.6757H273.252L270.601 22.4772L270.601 22.4768ZM278.64 25.7442C277.947 25.7442 277.323 25.5871 276.767 25.2725C276.211 24.9579 275.773 24.5227 275.454 23.9665C275.135 23.4107 274.976 22.7819 274.976 22.0801C274.976 21.3783 275.135 20.7496 275.454 20.1934C275.774 19.6376 276.211 19.2045 276.767 18.8944C277.323 18.5847 277.947 18.4296 278.64 18.4296C279.332 18.4296 279.957 18.5847 280.512 18.8944C281.068 19.2045 281.503 19.6376 281.818 20.1934C282.133 20.7496 282.29 21.3783 282.29 22.0801C282.29 22.7819 282.133 23.4107 281.818 23.9665C281.503 24.5227 281.068 24.9579 280.512 25.2725C279.957 25.5871 279.332 25.7442 278.64 25.7442ZM278.64 24.8824C279.15 24.8824 279.608 24.7667 280.014 24.5342C280.419 24.3016 280.736 23.971 280.964 23.5428C281.192 23.1146 281.305 22.6269 281.305 22.0801C281.305 21.5334 281.192 21.0457 280.964 20.6171C280.736 20.1889 280.419 19.8587 280.014 19.6261C279.608 19.3935 279.15 19.2775 278.64 19.2775C278.129 19.2775 277.671 19.3935 277.266 19.6261C276.86 19.8587 276.541 20.1889 276.309 20.6171C276.076 21.0457 275.96 21.5334 275.96 22.0801C275.96 22.6269 276.076 23.1146 276.309 23.5428C276.541 23.971 276.86 24.3016 277.266 24.5342C277.671 24.7667 278.129 24.8824 278.64 24.8824ZM284.367 18.4846H285.338V24.1995L290.136 18.4846H290.998V25.6753H290.027V19.9612L285.242 25.6753H284.367V18.4846ZM287.635 17.4461C287.015 17.4461 286.523 17.291 286.158 16.9813C285.794 16.6708 285.607 16.2332 285.597 15.6688H286.295C286.304 16.0244 286.432 16.3091 286.677 16.5228C286.924 16.7373 287.243 16.8443 287.635 16.8443C288.027 16.8443 288.348 16.7373 288.598 16.5228C288.849 16.3091 288.979 16.0244 288.989 15.6688H289.685C289.676 16.2336 289.488 16.6713 289.118 16.9813C288.749 17.291 288.254 17.4461 287.635 17.4461H287.635ZM300.321 25.7438C299.628 25.7438 299.004 25.5867 298.449 25.2721C297.892 24.9575 297.455 24.5223 297.136 23.9661C296.817 23.4103 296.658 22.7815 296.658 22.0797C296.658 21.3779 296.817 20.7491 297.136 20.193C297.456 19.6372 297.892 19.204 298.449 18.894C299.004 18.5843 299.628 18.4292 300.321 18.4292C301.014 18.4292 301.639 18.5843 302.194 18.894C302.75 19.204 303.185 19.6372 303.5 20.193C303.814 20.7491 303.972 21.3779 303.972 22.0797C303.972 22.7815 303.814 23.4103 303.5 23.9661C303.185 24.5223 302.75 24.9575 302.194 25.2721C301.639 25.5867 301.014 25.7438 300.321 25.7438ZM300.321 24.882C300.832 24.882 301.289 24.7663 301.695 24.5338C302.101 24.3012 302.417 23.9706 302.645 23.5424C302.874 23.1142 302.987 22.6265 302.987 22.0797C302.987 21.533 302.874 21.0453 302.645 20.6167C302.417 20.1884 302.101 19.8583 301.695 19.6257C301.289 19.3931 300.832 19.2771 300.321 19.2771C299.811 19.2771 299.353 19.3931 298.947 19.6257C298.542 19.8583 298.223 20.1884 297.99 20.6167C297.758 21.0453 297.642 21.533 297.642 22.0797C297.642 22.6265 297.758 23.1142 297.99 23.5424C298.223 23.9706 298.542 24.3012 298.947 24.5338C299.353 24.7663 299.811 24.882 300.321 24.882ZM309.535 18.6622C310.2 18.6622 310.795 18.8103 311.319 19.1064C311.843 19.4026 312.251 19.8177 312.542 20.3505C312.834 20.8841 312.98 21.492 312.98 22.1757C312.98 22.8775 312.827 23.4993 312.522 24.0416C312.217 24.5834 311.791 25.0054 311.244 25.3061C310.697 25.6068 310.068 25.7569 309.357 25.7569C308.163 25.7569 307.238 25.3381 306.582 24.4993C305.926 23.6609 305.598 22.5034 305.598 21.0268C305.598 19.4866 305.892 18.3062 306.48 17.4863C307.067 16.6659 307.986 16.1101 309.234 15.8185L312.461 15.0802L312.625 15.9686L309.59 16.6659C308.56 16.894 307.804 17.2968 307.321 17.8759C306.838 18.4547 306.573 19.3095 306.528 20.4391C306.819 19.8833 307.225 19.4481 307.744 19.1335C308.264 18.8189 308.861 18.6618 309.535 18.6618V18.6622ZM309.385 24.9505C309.886 24.9505 310.335 24.8344 310.732 24.6018C311.129 24.3693 311.438 24.0436 311.661 23.6244C311.884 23.2052 311.996 22.7315 311.996 22.2024C311.996 21.6741 311.887 21.2093 311.668 20.8082C311.45 20.4075 311.142 20.0953 310.745 19.8718C310.349 19.6487 309.896 19.5371 309.386 19.5371C308.875 19.5371 308.421 19.6487 308.025 19.8718C307.629 20.0953 307.319 20.4079 307.096 20.8082C306.873 21.2098 306.761 21.6745 306.761 22.2024C306.761 22.7315 306.873 23.2052 307.096 23.6244C307.319 24.0436 307.631 24.3697 308.032 24.6018C308.433 24.8344 308.885 24.9505 309.386 24.9505H309.385ZM320.896 18.4842V25.6748H319.925V19.346H316.48L316.384 21.1228C316.312 22.6179 316.139 23.7659 315.865 24.5678C315.591 25.3701 315.104 25.7712 314.402 25.7712C314.211 25.7712 313.978 25.7347 313.705 25.6621L313.773 24.8278C313.937 24.8644 314.051 24.8824 314.115 24.8824C314.488 24.8824 314.771 24.7097 314.962 24.3631C315.154 24.0169 315.281 23.5887 315.345 23.0781C315.409 22.5678 315.463 21.8935 315.509 21.0551L315.632 18.4846H320.895L320.896 18.4842ZM326.132 18.4292C327.071 18.4292 327.79 18.6647 328.292 19.1339C328.793 19.6031 329.044 20.2984 329.044 21.2184V25.6748H328.114V24.5543C327.895 24.9275 327.575 25.2187 327.151 25.4292C326.727 25.6387 326.223 25.7438 325.64 25.7438C324.838 25.7438 324.2 25.5518 323.726 25.1695C323.252 24.7864 323.015 24.2807 323.015 23.6515C323.015 23.0407 323.236 22.549 323.678 22.1753C324.121 21.8016 324.824 21.6146 325.791 21.6146H328.074V21.1769C328.074 20.5572 327.9 20.0855 327.555 19.7623C327.208 19.4387 326.702 19.2766 326.037 19.2766C325.581 19.2766 325.144 19.3517 324.725 19.5026C324.305 19.6528 323.945 19.8599 323.644 20.1245L323.207 19.3997C323.571 19.0896 324.009 18.8509 324.519 18.6823C325.03 18.5133 325.567 18.4288 326.132 18.4288V18.4292ZM325.79 24.978C326.337 24.978 326.806 24.8525 327.199 24.6018C327.59 24.3512 327.882 23.9886 328.073 23.5149V22.3394H325.818C324.587 22.3394 323.972 22.7676 323.972 23.624C323.972 24.0432 324.132 24.3742 324.451 24.6154C324.77 24.857 325.216 24.978 325.791 24.978H325.79ZM334.636 25.7433C333.925 25.7433 333.289 25.5883 332.728 25.2786C332.168 24.9685 331.728 24.5333 331.409 23.9726C331.09 23.4124 330.931 22.7811 330.931 22.0793C330.931 21.3775 331.09 20.7487 331.409 20.1925C331.728 19.6368 332.168 19.2036 332.728 18.8935C333.289 18.5839 333.924 18.4288 334.636 18.4288C335.255 18.4288 335.809 18.5498 336.296 18.7914C336.784 19.033 337.169 19.3862 337.451 19.8509L336.727 20.3431C336.49 19.9875 336.189 19.7213 335.825 19.5437C335.46 19.3656 335.064 19.2771 334.636 19.2771C334.116 19.2771 333.649 19.3931 333.235 19.6257C332.82 19.8583 332.496 20.1884 332.264 20.6167C332.031 21.0453 331.915 21.533 331.915 22.0797C331.915 22.6359 332.031 23.1257 332.264 23.5494C332.496 23.9731 332.82 24.3012 333.235 24.5338C333.649 24.7663 334.116 24.882 334.636 24.882C335.064 24.882 335.46 24.7959 335.825 24.6224C336.189 24.4493 336.49 24.1851 336.727 23.8295L337.451 24.3217C337.169 24.7864 336.782 25.14 336.289 25.3812C335.797 25.6228 335.246 25.7438 334.636 25.7438V25.7433ZM344.246 19.3455H341.525V25.6744H340.555V19.3455H337.834V18.4838H344.245V19.3455H344.246ZM345.654 18.4838H346.624V24.1986L351.423 18.4838H352.284V25.6744H351.314V19.9604L346.529 25.6744H345.654V18.4838ZM211.914 39.8814V40.7563H205.201V40.059L209.179 36.1628C209.681 35.6706 210.02 35.2445 210.198 34.8847C210.375 34.5242 210.464 34.1624 210.464 33.7978C210.464 33.233 210.271 32.7925 209.884 32.4783C209.496 32.1641 208.942 32.007 208.222 32.007C207.101 32.007 206.231 32.3626 205.612 33.0734L204.914 32.4717C205.288 32.0341 205.764 31.6969 206.343 31.4603C206.922 31.2232 207.575 31.1046 208.305 31.1046C209.279 31.1046 210.052 31.3352 210.622 31.7954C211.191 32.2552 211.476 32.8868 211.476 33.6887C211.476 34.1809 211.367 34.6546 211.148 35.1103C210.93 35.566 210.515 36.0902 209.904 36.6825L206.651 39.8814H211.914H211.914ZM216.903 40.8379C216.165 40.8379 215.507 40.6427 214.928 40.2506C214.349 39.8588 213.898 39.2957 213.575 38.5623C213.251 37.8285 213.089 36.9647 213.089 35.9713C213.089 34.9779 213.251 34.114 213.575 33.3807C213.898 32.6469 214.349 32.0841 214.928 31.692C215.507 31.3003 216.165 31.1042 216.903 31.1042C217.642 31.1042 218.3 31.3003 218.879 31.692C219.458 32.0841 219.911 32.6469 220.239 33.3807C220.567 34.114 220.731 34.9779 220.731 35.9713C220.731 36.9647 220.567 37.8285 220.239 38.5623C219.911 39.2957 219.457 39.8588 218.879 40.2506C218.3 40.6427 217.642 40.8379 216.903 40.8379ZM216.903 39.936C217.459 39.936 217.949 39.7813 218.373 39.4712C218.797 39.1611 219.127 38.7104 219.365 38.1181C219.601 37.5254 219.72 36.8105 219.72 35.9717C219.72 35.1337 219.601 34.4176 219.365 33.8253C219.128 33.2334 218.797 32.7814 218.373 32.4721C217.949 32.1621 217.459 32.0074 216.903 32.0074C216.347 32.0074 215.858 32.1621 215.434 32.4721C215.01 32.7818 214.68 33.2334 214.443 33.8253C214.206 34.4176 214.087 35.1333 214.087 35.9717C214.087 36.8101 214.205 37.5254 214.443 38.1181C214.679 38.7104 215.01 39.1616 215.434 39.4712C215.858 39.7813 216.347 39.936 216.903 39.936ZM228.647 39.8814V40.7563H221.934V40.059L225.913 36.1628C226.414 35.6706 226.753 35.2445 226.931 34.8847C227.109 34.5242 227.198 34.1624 227.198 33.7978C227.198 33.233 227.004 32.7925 226.617 32.4783C226.229 32.1641 225.676 32.007 224.956 32.007C223.835 32.007 222.964 32.3626 222.345 33.0734L221.647 32.4717C222.021 32.0341 222.497 31.6969 223.076 31.4603C223.655 31.2232 224.308 31.1046 225.038 31.1046C226.013 31.1046 226.785 31.3352 227.355 31.7954C227.924 32.2552 228.21 32.8868 228.21 33.6887C228.21 34.1809 228.1 34.6546 227.881 35.1103C227.663 35.566 227.248 36.0902 226.637 36.6825L223.384 39.8814H228.647H228.647Z" fill="black"/>
<path d="M232.394 35.1121C233.78 35.1121 234.789 35.3603 235.422 35.8574C236.056 36.3541 236.372 37.049 236.372 37.9423C236.372 38.4977 236.243 38.9944 235.983 39.432C235.723 39.8697 235.333 40.2134 234.814 40.4644C234.294 40.7146 233.656 40.8397 232.9 40.8397C232.216 40.8397 231.567 40.7286 230.952 40.5054C230.336 40.2819 229.842 39.9833 229.469 39.6096L229.947 38.8303C230.267 39.1584 230.686 39.425 231.205 39.6301C231.724 39.8352 232.285 39.9378 232.887 39.9378C233.68 39.9378 234.292 39.7597 234.725 39.4045C235.159 39.0489 235.375 38.5752 235.375 37.9829C235.375 37.3266 235.131 36.8299 234.643 36.4928C234.156 36.1556 233.333 35.9866 232.176 35.9866H230.139L230.632 31.1885H235.867V32.0638H231.493L231.165 35.1121H232.395H232.394Z" fill="black"/>
<path d="M73.9293 17.0427L73.9064 0.867759H72.0114L65.3527 12.2364L58.5981 0.867759H56.7031V17.0427H58.9213V5.32751L64.7715 15.0788H65.838L71.6882 5.25819L71.7112 17.0427H73.9293ZM84.9862 6.50592H80.1799V0.867759H77.892V17.0427H84.5699C88.6137 17.0427 90.9472 15.1941 90.9472 11.6129C90.9472 8.23929 88.8217 6.50592 84.9858 6.50592H84.9862ZM93.5124 17.0427H95.8003V0.867759H93.5124V17.0427ZM84.4776 15.2175H80.1799V8.33199H84.4776C87.1814 8.33199 88.6371 9.37176 88.6371 11.6589C88.6371 13.9931 87.1581 15.2175 84.4776 15.2175ZM112.298 0.868169H105.99V17.0431H108.301V12.1445H112.298C116.504 12.1445 119.046 10.0186 119.046 6.50592C119.046 2.99407 116.504 0.867759 112.298 0.867759V0.868169ZM112.229 10.1343H108.301V2.8784H112.229C115.187 2.8784 116.735 4.19545 116.735 6.50592C116.735 8.8168 115.187 10.1339 112.229 10.1339V10.1343ZM127.107 0.868169C123.135 0.868169 120.568 2.99407 120.568 6.69091C120.568 9.30203 121.862 11.1507 124.149 11.9132L120.568 17.0427H123.017L126.253 12.3057C126.461 12.3287 126.668 12.3287 126.876 12.3287H131.336V17.0423H133.601V0.867349H127.107V0.868169ZM122.902 6.66835C122.902 4.17248 124.45 2.8784 127.2 2.8784H131.336V10.3882H127.061C124.312 10.3882 122.902 9.04814 122.902 6.66835H122.902ZM150.399 15.0329V0.868169H139.042L138.881 6.06745C138.728 10.9886 138.191 15.0329 135.969 15.0329H135.183L135.16 20.5788H137.309L137.332 17.0431H150.63V20.5788H152.779V15.0329H150.399H150.399ZM140.913 6.27541L141.029 2.8784H148.111V15.0329H138.996C140.382 13.7852 140.779 10.2266 140.913 6.27541ZM162.16 17.2281C167.082 17.2281 170.733 13.7158 170.733 8.95585C170.733 4.19586 167.082 0.683594 162.16 0.683594C157.193 0.683594 153.542 4.21924 153.542 8.95585C153.542 13.6929 157.193 17.2281 162.16 17.2281ZM162.16 15.1715C158.533 15.1715 155.852 12.5374 155.852 8.95585C155.852 5.37468 158.532 2.74017 162.16 2.74017C165.742 2.74017 168.422 5.37468 168.422 8.95585C168.422 12.5374 165.742 15.1715 162.16 15.1715ZM190.64 17.0431L190.617 0.868169H188.722L182.063 12.2368L175.308 0.868169H173.413V17.0431H175.632V5.32792L181.482 15.0792H182.548L188.398 5.2586L188.421 17.0431H190.64Z" fill="black"/>
<path d="M138.403 37.1377V24.6333H125.419L125.234 29.6074C125.069 33.9138 124.54 37.0918 122.49 37.1377H121.914V44.0002H126.105V40.7533H136.422V44.0002H140.59V37.1377H138.402H138.403ZM129.222 29.9987L129.291 28.2486H133.912V37.1377H127.817C128.761 35.7792 129.107 33.1538 129.222 29.9987H129.222ZM146.965 37.2296V34.2817H154.127V30.8732H146.965V28.1559H155.094V24.6325H142.451V40.7525H155.393V37.2292H146.965V37.2296ZM159.718 24.6329L159.488 31.0578C159.35 34.6964 159.004 37.0914 157.139 37.0914C156.932 37.0914 156.725 37.0684 156.517 37.0225L156.264 40.7529C157.024 40.9371 157.715 41.0294 158.337 41.0294C162.435 41.0294 163.288 37.1607 163.495 30.8736L163.587 28.2486H168.216V40.7529H172.706V24.6329H159.718ZM183.756 41.0757C188.915 41.0757 192.714 37.5294 192.714 32.6931C192.714 27.8573 188.915 24.3105 183.756 24.3105C178.597 24.3105 174.797 27.8569 174.797 32.6931C174.797 37.5294 178.597 41.0757 183.756 41.0757ZM183.756 37.2989C181.315 37.2989 179.404 35.4794 179.404 32.6927C179.404 29.9065 181.315 28.087 183.756 28.087C186.197 28.087 188.108 29.9065 188.108 32.6927C188.108 35.4794 186.197 37.2989 183.756 37.2989Z" fill="black"/>
<path d="M16.4887 37.1371V24.6328H3.50447L3.32031 29.6069C3.15501 33.9132 2.62548 37.0912 0.575875 37.1371H0V43.9997H4.19109V40.7528H14.508V43.9997H18.6762V37.1371H16.4883H16.4887ZM7.30795 29.9982L7.37686 28.248H11.9978V37.1371H5.90272C6.84692 35.7787 7.1927 33.1532 7.30754 29.9982H7.30795ZM28.4595 41.0752C33.6181 41.0752 37.4175 37.5289 37.4175 32.6926C37.4175 27.8567 33.6181 24.31 28.4595 24.31C23.3008 24.31 19.501 27.8563 19.501 32.6926C19.501 37.5289 23.3008 41.0752 28.4595 41.0752ZM28.4595 37.2983C26.0182 37.2983 24.1072 35.4788 24.1072 32.6922C24.1072 29.9059 26.0182 28.0864 28.4595 28.0864C30.9004 28.0864 32.8118 29.9059 32.8118 32.6922C32.8118 35.4788 30.9004 37.2983 28.4595 37.2983ZM39.5315 40.7524H47.5917C51.7828 40.7524 54.2471 38.841 54.2471 35.5711C54.2471 32.4621 52.1056 30.7578 48.1906 30.7578H44.022V28.1557H53.0035V24.6324H39.5315V40.7524ZM44.022 37.4821V34.0047H47.2923C48.8579 34.0047 49.6413 34.5576 49.6413 35.7089C49.6413 36.8603 48.812 37.4821 47.2923 37.4821H44.022ZM63.6379 24.6324H56.2688V40.7524H60.8287V36.5379H63.6379C68.0365 36.5379 70.7998 34.2582 70.7998 30.5966C70.7998 26.9121 68.0365 24.6324 63.6379 24.6324ZM63.3614 32.9456H60.8282V28.2246H63.3614C65.2498 28.2246 66.1941 29.0999 66.1941 30.5966C66.1941 32.0708 65.2498 32.9456 63.3614 32.9456ZM80.6746 41.0748C85.8333 41.0748 89.6327 37.5284 89.6327 32.6922C89.6327 27.8563 85.8333 24.3096 80.6746 24.3096C75.5159 24.3096 71.7161 27.8559 71.7161 32.6922C71.7161 37.5284 75.5159 41.0748 80.6746 41.0748ZM80.6746 37.2979C78.2333 37.2979 76.3223 35.4784 76.3223 32.6918C76.3223 29.9055 78.2333 28.086 80.6746 28.086C83.1155 28.086 85.0269 29.9055 85.0269 32.6918C85.0269 35.4784 83.1155 37.2979 80.6746 37.2979ZM96.2606 37.229V34.2812H103.422V30.8727H96.2606V28.1553H104.39V24.632H91.7467V40.752H104.689V37.2286H96.2606V37.229Z" fill="black"/>
</svg>
