<svg width="351" height="46" viewBox="0 0 351 46" fill="none" xmlns="http://www.w3.org/2000/svg">
<path fill-rule="evenodd" clip-rule="evenodd" d="M115.586 29.2447C113.764 29.3341 112.558 31.0829 112.558 31.0829C112.558 31.0829 111.35 29.3341 109.529 29.2447C107.249 29.144 105.718 30.769 105.606 32.6067C105.505 34.4223 107.259 36.2375 108.366 37.2803C110.691 39.4766 111.741 40.16 112.535 40.8889V40.9332C112.535 40.9332 112.546 40.9223 112.558 40.9115C112.558 40.9115 112.569 40.9223 112.579 40.9332V40.8889C113.373 40.16 114.424 39.4766 116.748 37.2803C117.855 36.2375 119.61 34.4223 119.509 32.6067C119.397 30.769 117.866 29.1327 115.586 29.2447Z" fill="#E40032"/>
<path d="M212.308 11.3176H213.651V0.251211H204.956V11.3176H206.3V1.51587H212.308V11.3176ZM216.45 14.4795H217.714V10.9855C218.22 11.3176 218.963 11.4752 219.722 11.4752C221.951 11.4752 223.422 9.81589 223.422 7.64993C223.422 5.54693 222.156 4.04524 220.133 4.04524C219.153 4.04524 218.204 4.47242 217.714 5.04115V4.20326H216.45V14.4795ZM219.769 5.23088C221.24 5.23088 222.078 6.25849 222.078 7.69725C222.078 9.19896 221.129 10.29 219.611 10.29C218.932 10.29 218.346 10.1632 217.714 9.73646V6.21119C218.157 5.65765 218.932 5.23088 219.769 5.23088ZM230.852 9.54674C230.393 9.9735 229.587 10.29 228.67 10.29C227.279 10.29 226.299 9.49941 226.188 8.15573H231.658C231.705 7.93431 231.737 7.64995 231.737 7.30177C231.737 5.3416 230.267 4.04524 228.433 4.04524C226.093 4.04524 224.765 5.68933 224.765 7.76021C224.765 10.0056 226.267 11.4752 228.575 11.4752C229.524 11.4752 230.551 11.1752 231.247 10.5426L230.852 9.54674ZM228.37 5.23088C229.602 5.23088 230.361 5.95808 230.425 7.12811H226.109C226.251 6.0371 227.074 5.23088 228.37 5.23088ZM233.46 11.3176H234.725V6.13216L237.286 9.43604H237.333L239.8 6.13216V11.3176H241.064V4.20326H239.942L237.349 7.72854L234.614 4.20326H233.46V11.3176ZM244.621 11.3176L248.732 6.02146V11.3176H249.997V4.20326H248.732L244.621 9.49942V4.20326H243.357V11.3176H244.621ZM255.404 4.20326C253.032 4.20326 252.226 5.35722 252.226 6.57457C252.226 7.7446 253.032 8.45572 253.759 8.62981L251.704 11.3176H253.237L254.977 8.94631H256.352V11.3176H257.617V4.20326H255.404ZM253.57 6.60624C253.57 5.94243 254.012 5.38936 255.198 5.38936H256.352V7.76021H254.898C254.265 7.76021 253.57 7.33344 253.57 6.60624ZM263.988 11.3176H265.332V1.51587H270.154V0.251211H263.988V11.3176ZM275.892 4.20326H274.454L272.81 8.70927C272.683 9.08871 272.572 9.45211 272.477 9.79942C272.335 9.43604 272.209 9.08873 272.051 8.72491L269.964 4.20326H268.446L271.861 11.3176L271.703 11.6971C271.228 12.8354 270.786 13.3091 270.185 13.3091C269.901 13.3091 269.632 13.1831 269.395 13.0724L268.983 14.0367C269.363 14.2898 269.79 14.4795 270.327 14.4795C271.339 14.4795 272.003 13.8626 273.047 11.3176L275.892 4.20326ZM282.69 0.0927734C281.963 1.04138 280.983 0.59898 279.323 1.31055C277.063 2.25872 276.683 4.94607 276.683 7.04908C276.683 9.78377 278.137 11.4752 280.445 11.4752C282.612 11.4752 284.097 9.81589 284.097 7.82359C284.097 5.68933 282.833 4.28271 280.794 4.28271C279.592 4.28271 278.438 4.94606 277.979 5.94243H277.947C278.042 4.61438 278.422 3.11225 279.75 2.51183C281.315 1.80026 282.501 2.25871 283.37 1.08868L282.69 0.0927734ZM278.027 7.28612C278.248 6.3692 279.133 5.46792 280.477 5.46792C281.947 5.46792 282.753 6.49597 282.753 7.88697C282.753 9.21459 281.805 10.29 280.414 10.29C279.007 10.29 278.027 9.11996 278.027 7.28612ZM291.528 9.54674C291.069 9.9735 290.263 10.29 289.346 10.29C287.955 10.29 286.975 9.49941 286.864 8.15573H292.334C292.381 7.93431 292.413 7.64995 292.413 7.30177C292.413 5.3416 290.943 4.04524 289.109 4.04524C286.769 4.04524 285.442 5.68933 285.442 7.76021C285.442 10.0056 286.943 11.4752 289.252 11.4752C290.2 11.4752 291.227 11.1752 291.923 10.5426L291.528 9.54674ZM289.046 5.23088C290.279 5.23088 291.038 5.95808 291.101 7.12811H286.785C286.928 6.0371 287.749 5.23088 289.046 5.23088ZM294.137 14.4795H295.401V10.9855C295.907 11.3176 296.65 11.4752 297.409 11.4752C299.638 11.4752 301.109 9.81589 301.109 7.64993C301.109 5.54693 299.843 4.04524 297.82 4.04524C296.84 4.04524 295.891 4.47242 295.401 5.04115V4.20326H294.137V14.4795ZM297.457 5.23088C298.927 5.23088 299.764 6.25849 299.764 7.69725C299.764 9.19896 298.816 10.29 297.298 10.29C296.618 10.29 296.033 10.1632 295.401 9.73646V6.21119C295.844 5.65765 296.618 5.23088 297.457 5.23088ZM308.143 11.3176H309.408V4.20326H308.143V7.12811H304.191V4.20326H302.926V11.3176H304.191V8.31332H308.143V11.3176ZM312.08 5.70496C312.649 5.40497 313.171 5.18356 314.04 5.18356C315.448 5.18356 315.653 6.10005 315.653 7.42853C315.179 7.08078 314.436 6.97005 313.882 6.97005C312.349 6.97005 311.195 7.77628 311.195 9.23067C311.195 10.606 312.08 11.4279 313.377 11.4279C314.546 11.4279 315.226 10.9382 315.653 10.4007V11.3176H316.855V6.95403C316.855 5.10456 316.143 4.04524 314.119 4.04524C313.234 4.04524 312.38 4.29834 311.748 4.69341L312.08 5.70496ZM313.819 10.29C312.997 10.29 312.538 9.84716 312.538 9.16728C312.538 8.34544 313.297 7.99772 314.056 7.99772C314.673 7.99772 315.21 8.15574 315.653 8.4718V9.37308C315.289 9.79941 314.752 10.29 313.819 10.29ZM318.072 5.46792H320.68V11.3176H321.945V5.46792H324.553V4.20326H318.072V5.46792ZM325.218 7.76021C325.218 9.89447 326.735 11.4752 329.012 11.4752C331.288 11.4752 332.806 9.89447 332.806 7.76021C332.806 5.62638 331.288 4.04524 329.012 4.04524C326.735 4.04524 325.218 5.62638 325.218 7.76021ZM326.561 7.76021C326.561 6.25849 327.621 5.23088 329.012 5.23088C330.434 5.23088 331.462 6.27412 331.462 7.76021C331.462 9.27842 330.434 10.29 329.012 10.29C327.589 10.29 326.561 9.24629 326.561 7.76021ZM334.624 14.4795H335.888V10.9855C336.395 11.3176 337.137 11.4752 337.896 11.4752C340.125 11.4752 341.596 9.81589 341.596 7.64993C341.596 5.54693 340.331 4.04524 338.308 4.04524C337.327 4.04524 336.379 4.47242 335.888 5.04115V4.20326H334.624V14.4795ZM337.944 5.23088C339.414 5.23088 340.252 6.25849 340.252 7.69725C340.252 9.19896 339.303 10.29 337.786 10.29C337.106 10.29 336.521 10.1632 335.888 9.73646V6.21119C336.331 5.65765 337.106 5.23088 337.944 5.23088ZM343.793 5.70496C344.362 5.40497 344.884 5.18356 345.754 5.18356C347.161 5.18356 347.366 6.10005 347.366 7.42853C346.892 7.08078 346.149 6.97005 345.596 6.97005C344.062 6.97005 342.908 7.77628 342.908 9.23067C342.908 10.606 343.793 11.4279 345.09 11.4279C346.259 11.4279 346.939 10.9382 347.366 10.4007V11.3176H348.568V6.95403C348.568 5.10456 347.856 4.04524 345.833 4.04524C344.947 4.04524 344.094 4.29834 343.461 4.69341L343.793 5.70496ZM345.533 10.29C344.71 10.29 344.252 9.84716 344.252 9.16728C344.252 8.34544 345.011 7.99772 345.77 7.99772C346.386 7.99772 346.924 8.15574 347.366 8.4718V9.37308C347.002 9.79941 346.465 10.29 345.533 10.29ZM204.956 27.1635H206.3V18.2631L210.268 23.7168H210.474L214.394 18.2158V27.1635H215.738V16.0971H214.457L210.474 21.7727L206.316 16.0971H204.956V27.1635ZM218.062 23.6066C218.062 25.7404 219.579 27.3216 221.856 27.3216C224.133 27.3216 225.65 25.7404 225.65 23.6066C225.65 21.4723 224.133 19.8916 221.856 19.8916C219.579 19.8916 218.062 21.4723 218.062 23.6066ZM219.406 23.6066C219.406 22.1048 220.465 21.0768 221.856 21.0768C223.279 21.0768 224.307 22.1205 224.307 23.6066C224.307 25.1243 223.279 26.1359 221.856 26.1359C220.433 26.1359 219.406 25.0926 219.406 23.6066ZM232.938 25.219C232.464 25.7565 231.753 26.1359 230.899 26.1359C229.492 26.1359 228.338 25.1716 228.338 23.6066C228.338 22.1048 229.492 21.0768 230.772 21.0768C231.516 21.0768 232.211 21.2665 232.812 21.8201L233.397 20.8241C232.733 20.1599 231.737 19.8916 230.599 19.8916C228.511 19.8916 226.994 21.5352 226.994 23.6066C226.994 25.8515 228.544 27.3216 230.804 27.3216C231.895 27.3216 232.938 26.9109 233.539 26.1359L232.938 25.219ZM241.412 20.0492H239.752L236.749 23.5271L239.958 27.1635H241.713L238.298 23.4485L241.412 20.0492ZM235.183 27.1635H236.448V20.0492H235.183V27.1635ZM242.203 23.6066C242.203 25.7404 243.72 27.3216 245.997 27.3216C248.273 27.3216 249.791 25.7404 249.791 23.6066C249.791 21.4723 248.273 19.8916 245.997 19.8916C243.72 19.8916 242.203 21.4723 242.203 23.6066ZM243.547 23.6066C243.547 22.1048 244.606 21.0768 245.997 21.0768C247.42 21.0768 248.447 22.1205 248.447 23.6066C248.447 25.1243 247.42 26.1359 245.997 26.1359C244.574 26.1359 243.547 25.0926 243.547 23.6066ZM251.609 27.1635C252.258 27.1635 253.332 27.2265 254.218 27.2265C256.431 27.2265 257.49 26.4993 257.49 25.1556C257.49 24.2704 256.968 23.6856 255.831 23.4798V23.4485C256.684 23.3218 257.253 22.658 257.253 21.8201C257.253 20.5393 256.178 19.9862 254.186 19.9862C253.159 19.9862 252.226 20.0492 251.609 20.0492V27.1635ZM254.392 23.9704C255.53 23.9704 256.147 24.3181 256.147 25.0609C256.147 25.8042 255.498 26.1993 254.328 26.1993C253.759 26.1993 253.253 26.1676 252.874 26.1515V23.9704H254.392ZM254.281 21.0138C255.198 21.0138 255.909 21.2982 255.909 22.0727C255.909 22.7686 255.309 23.1794 254.471 23.1794H252.874V21.0612C253.19 21.0455 253.712 21.0138 254.281 21.0138ZM264.889 25.219C264.415 25.7565 263.703 26.1359 262.85 26.1359C261.443 26.1359 260.289 25.1716 260.289 23.6066C260.289 22.1048 261.443 21.0768 262.723 21.0768C263.466 21.0768 264.162 21.2665 264.763 21.8201L265.347 20.8241C264.684 20.1599 263.688 19.8916 262.549 19.8916C260.462 19.8916 258.945 21.5352 258.945 23.6066C258.945 25.8515 260.494 27.3216 262.755 27.3216C263.846 27.3216 264.889 26.9109 265.49 26.1359L264.889 25.219ZM273.363 20.0492H271.703L268.699 23.5271L271.909 27.1635H273.664L270.249 23.4485L273.363 20.0492ZM267.134 27.1635H268.399V20.0492H267.134V27.1635ZM274.154 23.6066C274.154 25.7404 275.671 27.3216 277.948 27.3216C280.224 27.3216 281.742 25.7404 281.742 23.6066C281.742 21.4723 280.224 19.8916 277.948 19.8916C275.671 19.8916 274.154 21.4723 274.154 23.6066ZM275.497 23.6066C275.497 22.1048 276.557 21.0768 277.948 21.0768C279.37 21.0768 280.398 22.1205 280.398 23.6066C280.398 25.1243 279.37 26.1359 277.948 26.1359C276.525 26.1359 275.497 25.0926 275.497 23.6066ZM284.825 27.1635L288.936 21.8674V27.1635H290.2V20.0492H288.936L284.825 25.3453V20.0492H283.56V27.1635H284.825ZM284.572 16.4132C284.572 17.6622 285.41 18.6265 286.975 18.6265C288.398 18.6265 289.315 17.6622 289.315 16.4132H288.129C288.065 17.2667 287.67 17.6622 286.975 17.6622C286.216 17.6622 285.821 17.2667 285.758 16.4132H284.572ZM295.575 23.6066C295.575 25.7404 297.093 27.3216 299.369 27.3216C301.646 27.3216 303.164 25.7404 303.164 23.6066C303.164 21.4723 301.646 19.8916 299.369 19.8916C297.093 19.8916 295.575 21.4723 295.575 23.6066ZM296.919 23.6066C296.919 22.1048 297.978 21.0768 299.369 21.0768C300.792 21.0768 301.82 22.1205 301.82 23.6066C301.82 25.1243 300.792 26.1359 299.369 26.1359C297.946 26.1359 296.919 25.0926 296.919 23.6066ZM310.483 15.9387C309.756 16.8873 308.776 16.4449 307.116 17.1565C304.855 18.1046 304.476 20.792 304.476 22.895C304.476 25.6301 305.93 27.3216 308.238 27.3216C310.404 27.3216 311.89 25.6618 311.89 23.6695C311.89 21.5352 310.625 20.1286 308.586 20.1286C307.385 20.1286 306.231 20.792 305.772 21.7884H305.74C305.835 20.4607 306.215 18.9586 307.543 18.3577C309.108 17.6462 310.293 18.1046 311.163 16.935L310.483 15.9387ZM305.819 23.132C306.041 22.2151 306.926 21.3138 308.27 21.3138C309.74 21.3138 310.546 22.3419 310.546 23.7329C310.546 25.0609 309.598 26.1359 308.207 26.1359C306.8 26.1359 305.819 24.9659 305.819 23.132ZM318.293 27.1635H319.558V20.0492H314.609L314.483 22.2624C314.309 25.5507 313.297 26.0725 312.76 26.0252L312.855 27.2582C314.325 27.2582 315.4 26.5627 315.716 22.5155L315.795 21.3138H318.293V27.1635ZM322.214 21.5513C322.783 21.2509 323.304 21.0295 324.174 21.0295C325.581 21.0295 325.787 21.9464 325.787 23.2745C325.312 22.9267 324.569 22.816 324.016 22.816C322.482 22.816 321.329 23.6222 321.329 25.077C321.329 26.452 322.214 27.2742 323.511 27.2742C324.68 27.2742 325.36 26.7841 325.787 26.2466V27.1635H326.988V22.7999C326.988 20.9504 326.277 19.8916 324.253 19.8916C323.368 19.8916 322.514 20.1443 321.882 20.5393L322.214 21.5513ZM323.953 26.1359C323.131 26.1359 322.672 25.6931 322.672 25.0132C322.672 24.1914 323.431 23.8436 324.19 23.8436C324.807 23.8436 325.344 24.0017 325.787 24.3181V25.219C325.423 25.6458 324.885 26.1359 323.953 26.1359ZM334.576 25.219C334.102 25.7565 333.391 26.1359 332.537 26.1359C331.13 26.1359 329.976 25.1716 329.976 23.6066C329.976 22.1048 331.13 21.0768 332.411 21.0768C333.154 21.0768 333.849 21.2665 334.45 21.8201L335.035 20.8241C334.371 20.1599 333.375 19.8916 332.237 19.8916C330.149 19.8916 328.632 21.5352 328.632 23.6066C328.632 25.8515 330.182 27.3216 332.442 27.3216C333.533 27.3216 334.576 26.9109 335.177 26.1359L334.576 25.219ZM335.826 21.3138H338.434V27.1635H339.699V21.3138H342.307V20.0492H335.826V21.3138ZM344.947 27.1635L349.058 21.8674V27.1635H350.323V20.0492H349.058L344.947 25.3453V20.0492H343.683V27.1635H344.947ZM204.008 43.0094H210.758V41.8238H205.652C206.537 41.0493 210.3 37.7137 210.3 34.6148C210.3 33.2394 209.336 31.8167 207.265 31.8167C205.715 31.8167 204.371 32.7653 204.103 34.4094L205.177 34.8518C205.399 33.6666 206.268 33.0814 207.154 33.0814C208.355 33.0814 208.956 33.8876 208.956 34.8679C208.956 37.2236 205.81 40.2114 204.008 41.9823V43.0094ZM212.497 37.4763C212.497 40.8118 213.619 43.1362 216.117 43.1362C218.615 43.1362 219.674 40.8118 219.674 37.4763C219.674 34.1563 218.584 31.8167 216.086 31.8167C213.588 31.8167 212.497 34.1563 212.497 37.4763ZM213.841 37.4763C213.841 34.6465 214.473 33.0023 216.086 33.0023C217.698 33.0023 218.33 34.6148 218.33 37.4763C218.33 40.3377 217.73 41.9501 216.117 41.9501C214.552 41.9501 213.841 40.3221 213.841 37.4763ZM221.256 43.0094H228.006V41.8238H222.9C223.785 41.0493 227.548 37.7137 227.548 34.6148C227.548 33.2394 226.583 31.8167 224.513 31.8167C222.963 31.8167 221.619 32.7653 221.351 34.4094L222.426 34.8518C222.647 33.6666 223.516 33.0814 224.401 33.0814C225.603 33.0814 226.204 33.8876 226.204 34.8679C226.204 37.2236 223.058 40.2114 221.256 41.9823V43.0094ZM230.441 37.5079C230.804 37.366 231.516 37.2236 232.18 37.2236C233.824 37.2236 234.867 38.2351 234.867 39.5632C234.867 40.9229 233.903 41.9028 232.638 41.9028C231.737 41.9028 230.693 41.4287 230.156 40.5591L229.429 41.4916C230.093 42.6456 231.421 43.1675 232.607 43.1675C234.566 43.1675 236.211 41.8082 236.211 39.5154C236.211 37.4133 234.725 36.0853 232.717 36.0853C232.401 36.0853 232.069 36.1326 231.832 36.1955L232.243 33.2077H236.132V31.9431H231.136L230.441 37.5079Z" fill="black"/>
<path d="M53.7734 17.563H55.876V3.63687L62.0843 12.1704H62.406L68.5405 3.56259V17.563H70.6431V0.247896H68.6395L62.406 9.12793L55.9008 0.247896H53.7734V17.563ZM89.442 17.563H91.5446V0.247896H89.442V17.563ZM80.0918 8.53445C82.8869 8.53445 84.4211 9.74616 84.4211 11.9477C84.4211 14.3967 82.8625 15.6332 80.0176 15.6332C79.2266 15.6332 78.6075 15.5841 77.9402 15.5589V8.68293C78.8059 8.58394 79.5236 8.53445 80.0918 8.53445ZM77.9402 0.247896H75.8376V17.563C76.8518 17.563 78.2862 17.6129 79.7706 17.6129C84.0747 17.6129 86.647 15.5346 86.647 11.8987C86.647 8.63302 84.5939 6.55561 80.2403 6.55561C79.672 6.55561 78.8801 6.60466 77.9402 6.6789V0.247896ZM104.408 17.563V10.934C105.273 11.0082 106.313 11.0325 107.005 11.0325C111.234 11.0325 113.238 8.4103 113.238 5.57836C113.238 2.87015 111.779 0.198418 106.832 0.198418C105.743 0.198418 103.27 0.247896 102.305 0.247896V17.563H104.408ZM107.029 2.1768C109.775 2.1768 111.012 3.49227 111.012 5.5536C111.012 7.73866 109.479 9.05369 106.931 9.05369C106.065 9.05369 105.249 9.00422 104.408 8.92998V2.22674C105.224 2.20199 106.337 2.1768 107.029 2.1768ZM125.185 17.563H127.288V0.247896C126.274 0.247896 124.394 0.173659 123.231 0.173659C118.556 0.173659 116.479 2.79589 116.479 5.91219C116.479 8.38596 118.111 10.0431 119.892 10.7608L115.093 17.563H117.468L121.945 11.1311H125.185V17.563ZM121.698 9.15269C120.189 8.90566 118.705 7.61927 118.705 5.78848C118.705 3.7354 120.139 2.1525 122.836 2.1525C123.578 2.1525 124.617 2.20199 125.185 2.22674V9.15269H121.698ZM130.257 20.7787H132.235V17.563H145.692V20.7787H147.671V15.5841H145.321V0.247896H135.13L134.956 3.7111C134.586 10.9583 132.829 14.6937 132.112 15.5841H130.257V20.7787ZM136.935 5.31829L137.158 2.22674H143.218V15.5841H134.437C135.08 14.7922 136.515 11.2796 136.935 5.31829ZM149.426 8.90564C149.426 14.174 153.236 17.81 158.258 17.81C163.279 17.81 167.088 14.0503 167.088 8.90564C167.088 3.63684 163.279 0 158.258 0C153.112 0 149.426 3.88387 149.426 8.90564ZM151.653 8.90564C151.653 4.87329 154.498 1.97927 158.258 1.97927C161.968 1.97927 164.862 4.87329 164.862 8.90564C164.862 12.8138 162.216 15.8316 158.258 15.8316C154.548 15.8316 151.653 12.8381 151.653 8.90564ZM170.923 17.563H173.026V3.63687L179.234 12.1704H179.555L185.69 3.56259V17.563H187.793V0.247896H185.789L179.555 9.12793L173.05 0.247896H170.923V17.563Z" fill="black"/>
<path d="M3.70934 45.9998H0V39.3231H1.85468C2.34918 38.6636 2.85191 37.4519 3.3629 35.6875C3.89082 33.8906 4.22034 31.7225 4.35232 29.1836L4.50079 25.7217H15.8021V39.3231H18.1517V45.9998H14.4419V43.0324H3.70934V45.9998ZM8.33387 29.431L8.06166 32.3489C7.94618 33.7339 7.68265 35.1518 7.27021 36.6027C6.87471 38.0041 6.52045 38.9106 6.207 39.3231H11.8452V29.431H8.33387Z" fill="black"/>
<path d="M19.1875 34.3769C19.1875 31.8215 20.0367 29.6946 21.7351 27.9967C23.4495 26.2823 25.6671 25.4248 28.3871 25.4248C31.0909 25.4248 33.2921 26.241 34.99 27.8729C36.7214 29.5053 37.5866 31.673 37.5866 34.3769C37.5866 36.9818 36.7131 39.1252 34.9652 40.8066C33.2343 42.4885 31.0414 43.3294 28.3871 43.3294C25.6997 43.3294 23.4908 42.5132 21.7598 40.8808C20.0449 39.2489 19.1875 37.0808 19.1875 34.3769ZM23.3918 34.3769C23.3918 35.8443 23.878 37.089 24.8509 38.1114C25.8069 39.1169 26.9856 39.6197 28.3871 39.6197C29.97 39.6197 31.1982 39.1334 32.0721 38.1605C32.9456 37.155 33.3828 35.8938 33.3828 34.3769C33.3828 32.8109 32.9044 31.5497 31.9484 30.5933C30.9755 29.6208 29.7885 29.1341 28.3871 29.1341C26.9366 29.1341 25.7409 29.6208 24.8014 30.5933C23.8615 31.5662 23.3918 32.8274 23.3918 34.3769Z" fill="black"/>
<path d="M40.8047 43.0324V25.7217H51.2407V29.431H44.7611V32.1761C45.2395 32.0771 45.899 32.0277 46.7395 32.0277C48.4214 32.0277 49.7733 32.5139 50.7953 33.4868C51.8342 34.4593 52.3534 35.7535 52.3534 37.3694C52.3534 39.1993 51.7639 40.6211 50.5852 41.6353C49.4064 42.649 47.7536 43.1561 45.6268 43.1561C44.7533 43.1561 43.7886 43.1314 42.7336 43.0819C42.4367 43.0819 42.1358 43.0776 41.831 43.0693C41.5258 43.0611 41.2949 43.0528 41.1386 43.0445C40.9818 43.0363 40.8702 43.0324 40.8047 43.0324ZM46.4182 35.737C45.9072 35.737 45.355 35.7865 44.7611 35.8855V39.3231C45.5525 39.4055 46.0474 39.4468 46.245 39.4468C47.6794 39.4468 48.3966 38.8529 48.3966 37.6659C48.3966 37.0889 48.2316 36.6231 47.9021 36.2689C47.5722 35.9142 47.0777 35.737 46.4182 35.737Z" fill="black"/>
<path d="M60.0189 37.1473V43.0331H56.0625V25.7223C56.8205 25.7223 57.6532 25.7141 58.5602 25.6976C59.4832 25.6811 60.4148 25.6729 61.3543 25.6729C63.7947 25.6729 65.5751 26.2168 66.6961 27.3048C67.801 28.3602 68.3532 29.7282 68.3532 31.4101C68.3532 33.0255 67.768 34.4022 66.5971 35.5401C65.4266 36.6611 63.8771 37.2216 61.9482 37.2216C61.0908 37.2216 60.4478 37.1968 60.0189 37.1473ZM61.7503 29.3822C61.7338 29.3822 61.6595 29.3861 61.5276 29.3943C61.3956 29.4026 61.1898 29.4109 60.9093 29.4191C60.6293 29.4274 60.3323 29.4317 60.0189 29.4317V33.3885C60.7114 33.471 61.3135 33.5122 61.8245 33.5122C62.5005 33.5122 63.0566 33.3346 63.4938 32.9804C63.9306 32.6257 64.1489 32.0943 64.1489 31.3854C64.1489 30.0499 63.3492 29.3822 61.7503 29.3822Z" fill="black"/>
<path d="M70.3281 34.3769C70.3281 31.8215 71.1773 29.6946 72.8757 27.9967C74.5901 26.2823 76.8078 25.4248 79.5277 25.4248C82.2316 25.4248 84.4327 26.241 86.1306 27.8729C87.862 29.5053 88.7272 31.673 88.7272 34.3769C88.7272 36.9818 87.8537 39.1252 86.1059 40.8066C84.3749 42.4885 82.1821 43.3294 79.5277 43.3294C76.8403 43.3294 74.6314 42.5132 72.9004 40.8808C71.1856 39.2489 70.3281 37.0808 70.3281 34.3769ZM74.5324 34.3769C74.5324 35.8443 75.0187 37.089 75.9916 38.1114C76.9476 39.1169 78.1263 39.6197 79.5277 39.6197C81.1106 39.6197 82.3388 39.1334 83.2127 38.1605C84.0862 37.155 84.5234 35.8938 84.5234 34.3769C84.5234 32.8109 84.045 31.5497 83.089 30.5933C82.1161 29.6208 80.9291 29.1341 79.5277 29.1341C78.0772 29.1341 76.8816 29.6208 75.9421 30.5933C75.0022 31.5662 74.5324 32.8274 74.5324 34.3769Z" fill="black"/>
<path d="M102.455 43.0324H91.9453V25.7217H102.208V29.431H95.9017V32.4727H101.466V36.1824H95.9017V39.3231H102.455V43.0324Z" fill="black"/>
<path d="M124.311 45.9998H120.602V39.3231H122.456C122.951 38.6636 123.453 37.4519 123.964 35.6875C124.492 33.8906 124.822 31.7225 124.954 29.1836L125.102 25.7217H136.404V39.3231H138.753V45.9998H135.043V43.0324H124.311V45.9998ZM128.935 29.431L128.663 32.3489C128.548 33.7339 128.284 35.1518 127.872 36.6027C127.476 38.0041 127.122 38.9106 126.809 39.3231H132.447V29.431H128.935Z" fill="black"/>
<path d="M151.986 43.0324H141.477V25.7217H151.739V29.431H145.433V32.4727H150.997V36.1824H145.433V39.3231H151.986V43.0324Z" fill="black"/>
<path d="M169.368 43.0324H165.411V29.431H161.602L161.232 32.6954C160.886 35.6958 160.395 37.9915 159.76 39.5827C159.126 41.1734 158.359 42.2079 157.46 42.6864C156.562 43.1644 155.395 43.2799 153.961 43.0324L154.035 39.0756C154.398 39.1416 154.699 39.1373 154.938 39.0635C155.177 38.9892 155.437 38.7873 155.717 38.4573C155.997 38.1113 156.253 37.5917 156.483 36.8992C156.995 35.4157 157.382 32.8439 157.646 29.1836L157.893 25.7217H169.368V43.0324Z" fill="black"/>
<path d="M172.578 34.3769C172.578 31.8215 173.427 29.6946 175.126 27.9967C176.84 26.2823 179.058 25.4248 181.778 25.4248C184.482 25.4248 186.683 26.241 188.381 27.8729C190.112 29.5053 190.977 31.673 190.977 34.3769C190.977 36.9818 190.104 39.1252 188.356 40.8066C186.625 42.4885 184.432 43.3294 181.778 43.3294C179.09 43.3294 176.881 42.5132 175.15 40.8808C173.436 39.2489 172.578 37.0808 172.578 34.3769ZM176.782 34.3769C176.782 35.8443 177.269 37.089 178.242 38.1114C179.198 39.1169 180.376 39.6197 181.778 39.6197C183.361 39.6197 184.589 39.1334 185.463 38.1605C186.336 37.155 186.773 35.8938 186.773 34.3769C186.773 32.8109 186.295 31.5497 185.339 30.5933C184.366 29.6208 183.179 29.1341 181.778 29.1341C180.327 29.1341 179.132 29.6208 178.192 30.5933C177.252 31.5662 176.782 32.8274 176.782 34.3769Z" fill="black"/>
</svg>
