<svg width="215" height="194" viewBox="0 0 215 194" fill="none" xmlns="http://www.w3.org/2000/svg">
<mask id="mask0_14781_39" style="mask-type:alpha" maskUnits="userSpaceOnUse" x="-14" y="-42" width="229" height="253">
<path d="M-13.5611 -41.71H214.997V210.49H-13.5611V-41.71Z" fill="#5DC5C6"/>
</mask>
<g mask="url(#mask0_14781_39)">
<path d="M32.2791 22.6333L34.818 31.4885L43.6572 34.4088L35.9463 39.6843V48.9161L28.6117 43.2639L19.7724 46.0902L22.8756 37.3291L17.5156 29.7928L26.731 30.0754L32.2791 22.6333Z" fill="#E41D38"/>
<path d="M33.8777 78.5907C31.9968 79.6266 30.0221 80.9455 28.0474 82.3588L27.7653 82.0762C29.834 80.6629 31.8087 79.344 33.6894 78.3077L33.8777 78.5907Z" fill="#242423"/>
<path d="M6.98072 102.895L6.69861 102.801C9.89578 97.7139 17.3245 90.1776 24.7532 84.3369L24.9413 84.6195C17.5126 90.3661 10.0839 97.9024 6.98072 102.895Z" fill="#242423"/>
<path d="M188.469 60.0323C193.171 64.3656 197.027 69.9237 199.942 76.3296L199.566 76.5181C196.744 70.1122 192.889 64.6482 188.281 60.409L188.469 60.0323Z" fill="#242423"/>
<path d="M202.104 81.9818C202.386 82.5469 202.574 83.2065 202.762 83.7717C206.242 95.1705 205.113 110.337 199.659 124.374C194.017 139.069 184.707 149.997 174.269 154.33L174.176 153.954C184.519 149.62 193.641 138.787 199.283 124.28C204.737 110.243 205.865 95.2646 202.386 83.9602C202.198 83.3006 202.01 82.7354 201.822 82.0762L202.104 81.9818Z" fill="#242423"/>
<path fill-rule="evenodd" clip-rule="evenodd" d="M29.7383 149.715C2.4683 127.765 8.01634 97.9024 35.1922 85.3732C73.7467 67.5686 74.687 37.2351 114.464 32.0537C180.194 23.3869 231.819 124.091 147.94 156.591C105.907 172.794 53.435 168.744 29.7383 149.715Z" fill="#00ADB2"/>
<path fill-rule="evenodd" clip-rule="evenodd" d="M283.161 28.4739C290.496 47.7857 297.737 67.0974 304.977 86.4095C274.886 108.453 228.809 124.562 186.87 125.787C177.654 126.069 168.439 125.787 159.412 125.033C156.967 116.932 154.992 110.149 152.453 101.953C217.995 105.062 251.472 88.7646 283.161 28.4739Z" fill="#FEFEFE"/>
<path fill-rule="evenodd" clip-rule="evenodd" d="M289.652 45.7131C280.061 61.1626 268.212 74.634 254.295 85.1847C223.358 108.359 191.01 111.845 154.43 108.359L157.063 117.026C199.285 119.287 234.83 113.352 270.845 86.5977C279.779 80.0036 288.053 72.6555 296.799 64.7426L304.98 86.4095L289.652 45.7131Z" fill="#19578F"/>
<path fill-rule="evenodd" clip-rule="evenodd" d="M296.796 64.7426C288.051 72.6556 279.776 80.0036 270.843 86.5977C234.827 113.352 199.282 119.287 157.061 117.026L159.412 125.033C168.439 125.787 177.655 126.069 186.87 125.787C228.809 124.562 274.886 108.453 304.977 86.4095L296.796 64.7426Z" fill="#E41D38"/>
<path d="M64.2521 199.078C64.2521 199.078 59.4562 161.302 49.1123 148.113C47.3258 145.852 45.6329 143.591 44.0346 141.236C43.9404 141.048 43.7525 140.859 43.6582 140.577C43.4703 140.388 43.3764 140.2 43.2821 140.011C43.0943 139.729 43 139.541 42.8121 139.352C42.7178 139.164 42.53 138.881 42.436 138.693C42.2478 138.504 42.1539 138.222 42.0596 138.033C38.2045 131.816 35.4772 125.316 34.819 118.345C34.7251 118.156 34.7251 117.874 34.7251 117.685C34.7251 117.403 34.6311 117.12 34.6311 116.932C34.6311 116.649 34.6311 116.46 34.6311 116.178C34.6311 115.895 34.6311 115.707 34.6311 115.424C34.5369 115.236 34.5369 114.953 34.5369 114.671C34.5369 114.482 34.5369 114.2 34.5369 114.011C34.6311 113.729 34.6311 113.446 34.6311 113.257C34.6311 112.975 34.6311 112.692 34.6311 112.504C34.819 109.678 35.2894 106.852 36.1355 103.931C37.5462 99.4095 38.5805 96.1124 39.5209 93.7573C39.6149 93.4747 39.8031 93.1921 39.897 92.9095C39.897 92.8154 39.991 92.6269 39.991 92.5328C40.0849 92.4384 40.0849 92.2502 40.1792 92.1558C40.1792 92.0617 40.2731 91.8732 40.2731 91.7791C40.367 91.5906 40.4613 91.308 40.5553 91.1195C40.8374 90.6487 41.0253 90.1776 41.2135 89.7065C42.6239 86.6921 43.1882 86.0325 43.3764 83.7718C43.3764 83.1122 43.4703 82.3588 43.6582 81.4166C43.6582 81.134 43.7525 80.7573 43.8464 80.3803C43.8464 80.2862 43.8464 80.1918 43.9404 80.0977C43.9404 80.0036 43.9404 79.9092 43.9404 79.8151C44.0346 79.721 44.0346 79.6266 44.0346 79.4384C44.0346 79.344 44.1286 79.2499 44.1286 79.1559C44.2225 78.9674 44.2225 78.7789 44.3165 78.5903C44.3165 78.4963 44.4107 78.4022 44.4107 78.3078C44.4107 78.2137 44.5047 78.1196 44.5047 78.0252C44.6929 77.3659 44.9747 76.8007 45.2568 76.2355C45.3511 75.8585 45.6329 75.4818 45.8211 75.1048C46.1033 74.634 46.3854 74.1629 46.6676 73.7859C47.0437 73.3152 47.4198 72.9382 47.7958 72.5615C47.8898 72.4674 47.984 72.4674 48.078 72.373C48.078 72.2789 48.1719 72.1845 48.2662 72.1845C48.4541 71.9963 48.6423 71.9019 48.8302 71.8078C48.9244 71.7137 49.0184 71.6193 49.1123 71.6193C49.2063 71.5252 49.3005 71.5252 49.3945 71.4311C49.4884 71.3367 49.5827 71.3367 49.6766 71.2426C51.087 70.583 52.8738 70.2063 55.1307 70.583C59.6441 71.3367 61.2427 74.257 61.807 76.2355C62.0891 77.2718 62.0891 78.0252 62.0891 78.0252L84.5634 48.7279C84.5634 48.7279 95.3773 36.858 103.276 47.3146C103.276 47.3146 103.558 47.3146 103.934 47.409H104.029C104.687 47.5031 105.533 47.6916 106.097 48.0683C106.097 48.0683 103.37 40.2495 109.765 37.0465C109.859 36.9524 109.953 36.9524 110.047 36.9524V36.858C110.141 36.858 110.235 36.858 110.329 36.7639C110.423 36.7639 110.517 36.6699 110.611 36.6699C110.705 36.6699 110.799 36.5754 110.893 36.5754H110.987C110.987 36.5754 111.081 36.4814 111.175 36.4814H111.269C111.269 36.4814 111.363 36.4814 111.457 36.3869H111.551C111.551 36.3869 111.645 36.3869 111.739 36.3869H111.834C111.834 36.3869 111.927 36.3869 112.021 36.2928C112.116 36.2928 112.21 36.2928 112.304 36.2928C112.398 36.2928 112.492 36.2928 112.586 36.2928C112.68 36.2928 112.68 36.2928 112.774 36.2928H112.868C112.962 36.2928 112.962 36.2928 113.056 36.2928C113.056 36.2928 113.056 36.2928 113.15 36.2928H113.244C113.338 36.2928 113.432 36.2928 113.432 36.3869C113.526 36.3869 113.526 36.3869 113.62 36.3869H113.714H113.808C113.902 36.3869 113.902 36.3869 113.902 36.3869C113.996 36.4814 113.996 36.4814 113.996 36.4814C114.09 36.4814 114.09 36.4814 114.184 36.4814C114.184 36.4814 114.184 36.4814 114.278 36.4814L114.373 36.5754H114.466C114.56 36.5754 114.654 36.6699 114.749 36.6699C114.749 36.6699 114.749 36.6699 114.843 36.6699C114.843 36.6699 114.843 36.6699 114.937 36.7639C114.937 36.7639 114.937 36.7639 115.031 36.7639C115.031 36.7639 115.125 36.7639 115.125 36.858H115.219H115.313C115.407 36.9524 115.407 36.9524 115.407 36.9524C115.407 36.9524 115.501 36.9524 115.501 37.0465C115.595 37.0465 115.595 37.0465 115.595 37.0465C115.689 37.0465 115.783 37.1406 115.877 37.235C115.971 37.235 115.971 37.235 116.065 37.235C116.065 37.3291 116.065 37.3291 116.065 37.3291C116.159 37.3291 116.159 37.3291 116.253 37.4232C116.347 37.4232 116.347 37.5176 116.441 37.5176C116.535 37.6117 116.535 37.6117 116.629 37.6117C116.723 37.8002 116.911 37.8943 117.006 37.9884H117.099C117.099 38.0828 117.193 38.0828 117.193 38.0828L117.287 38.1769C117.287 38.1769 117.287 38.1769 117.382 38.2713C117.569 38.4595 117.758 38.648 117.946 38.7421C117.946 38.8365 118.04 38.8365 118.04 38.9306H118.134C118.134 38.9306 118.134 39.0247 118.228 39.0247C119.638 40.5321 120.391 42.1335 120.391 42.1335C120.391 42.1335 120.485 41.7569 120.767 41.1913V41.0973V41.0032C120.861 40.9088 120.861 40.9088 120.861 40.8147C120.861 40.8147 120.955 40.8147 120.955 40.7206C121.613 39.5899 123.024 37.9884 126.033 37.5176C127.913 37.235 129.606 37.7058 131.111 38.5539C133.837 40.2495 136.094 43.5465 137.693 47.8801C138.069 48.9161 138.633 50.5176 139.292 52.496C139.292 52.6842 139.386 52.8727 139.48 53.0612C139.574 53.3438 139.574 53.5323 139.668 53.7205C139.762 53.909 139.762 54.1916 139.856 54.3801C139.95 54.5686 140.044 54.7568 140.044 55.0394C140.138 55.2279 140.232 55.5105 140.326 55.699C140.326 55.8872 140.42 56.1701 140.514 56.3583C140.608 56.6409 140.608 56.8294 140.702 57.112C144.181 68.3222 148.883 84.3369 148.883 84.3369C148.883 84.3369 152.644 68.2282 159.979 65.7789C165.057 63.9889 168.442 65.873 170.135 68.3222C170.229 68.4163 170.229 68.5108 170.323 68.5108C170.323 68.6048 170.323 68.6048 170.417 68.6989C170.417 68.7933 170.417 68.7933 170.511 68.8874C171.075 69.8296 171.358 70.8659 171.358 71.7137C171.452 72.4674 171.263 73.5033 170.981 74.634C170.981 74.7281 170.981 74.8222 170.887 74.8222C170.887 74.9166 170.887 75.0107 170.887 75.1048C170.793 75.1992 170.793 75.2933 170.793 75.3874C169.759 79.4384 167.596 85.0906 167.502 89.1414C167.502 90.0832 167.502 91.4021 167.502 92.8154C167.502 93.098 167.502 93.3806 167.408 93.6632C167.408 93.9458 167.408 94.3224 167.408 94.605C167.314 95.5472 167.314 96.4891 167.126 97.5254C166.374 105.062 163.647 115.895 154.337 127.483C154.337 127.483 152.456 130.685 150.2 135.961C147.096 142.932 143.429 153.765 142.771 165.635L142.583 197.382C142.583 197.382 142.583 199.737 139.386 199.643C136.094 199.548 67.355 199.643 67.355 199.643C67.355 199.643 64.7221 200.302 64.2521 199.078Z" fill="#FEFEFE"/>
<path d="M75.6264 131.627C75.3442 125.221 68.7619 118.344 64.0603 113.257C58.8883 107.794 57.7597 101.671 60.1108 93.0036C61.7095 87.2573 61.9913 81.3225 61.9913 77.1774C62.0856 77.6485 62.0856 78.0252 62.0856 78.0252L62.4616 77.46C62.4616 81.6051 62.1795 87.4458 60.5809 93.098C58.2301 101.671 59.3583 107.605 64.4364 112.881C69.2322 118.062 75.8146 125.033 76.0967 131.627H75.6264Z" fill="#1D1D1E"/>
<path d="M107.131 89.6125C106.567 88.4821 92.8377 60.3149 95.0946 52.5901C95.7528 50.3294 96.9754 48.7279 98.6679 47.7857C100.079 47.0321 101.583 46.8439 102.899 46.8439C103.088 47.0321 103.182 47.1265 103.276 47.3146C103.276 47.3146 103.84 47.3146 104.592 47.5031C103.182 47.3146 100.925 47.2206 98.9501 48.2568C97.3515 49.1046 96.2232 50.612 95.5649 52.7787C94.7185 55.7931 96.5053 63.1412 100.737 73.8804C104.028 82.0762 107.601 89.3299 107.601 89.424L107.131 89.6125ZM105.815 47.2206C105.909 47.2206 105.909 47.3146 106.003 47.3146H106.097V47.4091C106.191 47.7857 116.441 78.4022 119.356 82.6414L118.98 82.924C116.065 78.8733 106.943 51.3657 105.721 47.8802C105.815 47.9742 106.003 48.0683 106.097 48.0683C106.097 48.0683 105.909 47.7857 105.815 47.2206Z" fill="#1D1D1E"/>
<path d="M98.384 115.142C97.8197 101.953 95.1868 95.1706 93.4942 90.6488C93.306 90.3662 93.2121 89.9892 93.0239 89.6125C92.6478 88.5762 92.1778 87.4458 91.6135 86.1269C89.5448 81.3225 86.6297 74.8222 86.0654 67.0975C85.7833 64.1775 86.4415 61.8223 88.0402 60.0323C90.767 56.9235 95.0929 56.7353 95.2807 56.7353V57.3005C95.2807 57.3005 90.9552 57.4887 88.4162 60.3149C86.9116 62.0105 86.2533 64.2715 86.5355 67.0975C87.0998 74.6341 90.0149 81.134 92.0835 85.9384C92.6478 87.2573 93.1182 88.3877 93.4942 89.424C93.6821 89.8006 93.7764 90.1777 93.9643 90.5543C95.6568 94.9821 98.2898 101.765 98.8541 115.142H98.384Z" fill="#1D1D1E"/>
<path d="M130.638 77.1773C126.595 70.8659 121.423 48.9161 119.636 40.8146C120.106 41.4742 120.388 41.945 120.388 42.0394C121.141 45.2424 122.175 49.6698 123.397 54.3801C126.407 65.9671 129.04 73.7862 131.108 76.8948L130.638 77.1773Z" fill="#1D1D1E"/>
<path d="M134.494 114.859C134.306 109.113 137.503 101.388 142.017 96.5835C145.778 92.5328 147.659 87.5399 148.693 83.6777C148.787 84.1484 148.881 84.3369 148.881 84.3369C148.881 84.3369 149.069 83.3948 149.539 81.8877C148.787 86.0325 146.906 92.0617 142.393 96.8661C137.973 101.671 134.776 109.207 134.964 114.859H134.494Z" fill="#1D1D1E"/>
<path d="M74.0285 88.7647L73.5581 88.3877L86.7231 71.6193L87.0992 71.9963L74.0285 88.7647Z" fill="#1D1D1E"/>
<path d="M85.408 93.8517L84.9376 93.5691L90.8621 84.2429L91.3321 84.5254L85.408 93.8517Z" fill="#1D1D1E"/>
<path d="M-10.9785 194.461H0.0235348C0.0235348 194.461 13.6585 170.063 42.7152 163.845C42.7152 163.845 52.9652 161.867 65.0956 161.019C77.3199 160.077 106.659 158.57 114.37 157.533C122.081 156.497 139.571 153.859 152.642 149.055C165.618 144.251 170.509 140.294 170.509 140.294L172.859 134.736C172.859 134.736 162.515 142.084 134.963 146.888C107.411 151.693 98.4777 151.599 98.4777 151.599C98.4777 151.599 57.7607 152.541 47.699 154.707C35.0986 157.439 2.3744 161.396 -10.9785 194.461Z" fill="#FEFEFE"/>
<path d="M0.0251465 194.461H16.7633C16.7633 194.461 21.9352 183.816 38.8613 177.41C55.7876 171.005 77.1336 170.439 77.1336 170.439C77.1336 170.439 115.218 166.671 123.775 164.316C132.426 161.867 145.121 160.171 159.226 153.012C159.226 153.012 165.338 150.091 167.125 148.584L170.51 140.294C170.51 140.294 158.474 149.338 131.956 153.765C105.626 158.099 87.6654 158.758 87.6654 158.758C87.6654 158.758 50.5217 159.983 34.5358 165.541C23.5338 169.403 11.1212 175.338 0.0251465 194.461Z" fill="#19578F"/>
<path d="M15.8208 194.461H26.9169C26.9169 194.461 33.6875 186.831 43.8432 182.78C56.0675 177.787 81.739 175.244 81.739 175.244C81.739 175.244 118.131 171.664 134.775 167.425C149.82 163.468 157.061 160.171 164.019 156.026L167.122 148.584C167.122 148.584 147.563 159.323 123.679 163.751C99.7939 168.084 69.9847 170.439 69.9847 170.439C69.9847 170.439 48.733 172.041 38.1069 177.034C28.9856 181.273 23.6257 184.005 15.8208 194.461Z" fill="#E41D38"/>
<path d="M62.6511 153.577L62.5569 153.2C70.6439 152.541 78.0727 152.164 84.8433 151.881C104.214 151.128 126.312 149.715 142.863 144.533L142.957 144.91C126.406 149.997 104.308 151.504 84.8433 152.164C78.0727 152.446 70.6439 152.918 62.6511 153.577Z" fill="#1D1D1E"/>
<path d="M172.859 134.736C172.859 134.736 174.646 130.78 172.201 127.294C168.44 122.207 159.506 120.04 159.506 120.04L154.334 127.483C154.334 127.483 162.233 129.649 168.816 136.997C168.816 136.997 171.543 135.678 172.859 134.736Z" fill="#D8D8D8"/>
<path d="M150.198 135.961C150.198 135.961 152.643 129.837 154.336 127.483C154.336 127.483 163.175 130.403 168.817 136.997C168.817 136.997 162.141 140.011 160.26 140.482C160.26 140.482 155.558 137.657 150.198 135.961Z" fill="#19578F"/>
<path d="M150.196 135.961C150.196 135.961 147.281 142.932 146.904 144.439C146.904 144.439 155.368 142.272 160.258 140.483C160.258 140.483 153.111 136.338 150.196 135.961Z" fill="#E41D38"/>
<path d="M147.659 80.7573L143.992 68.5107L144.274 68.4163L147.941 80.6629L147.659 80.7573Z" fill="#1D1D1E"/>
<path d="M124.902 116.084C125.561 114.294 125.937 112.41 125.937 110.432C125.937 102.142 119.166 95.3588 110.797 95.3588C106.848 95.3588 103.181 96.9602 100.547 99.5039C97.8204 96.9602 94.1532 95.4532 90.2038 95.4532C81.8346 95.4532 75.064 102.236 75.1579 110.526C75.1579 112.504 75.5344 114.388 76.1926 116.178C76.1926 116.178 76.1926 116.178 76.2865 116.272C76.5687 117.026 76.9448 117.874 77.4148 118.533C80.0481 123.149 87.0065 133.229 100.642 138.975C100.642 138.975 115.499 132.098 123.304 119.098C123.868 118.156 124.432 117.12 124.902 116.084Z" fill="#E41D38"/>
<path d="M100.737 117.308C100.549 117.308 100.361 117.308 100.079 117.308C95.0012 117.026 91.71 113.258 91.6161 113.069L92.2743 112.504C92.2743 112.504 95.4716 116.084 100.173 116.366C103.37 116.555 106.473 115.236 109.577 112.41L110.235 113.069C107.132 115.895 103.935 117.308 100.737 117.308Z" fill="#2F2C2D"/>
<path d="M85.7837 107.323C85.7837 107.794 85.3133 108.171 84.8433 108.171C84.3729 108.171 83.9968 107.794 83.9968 107.323C83.9968 106.758 84.3729 106.381 84.8433 106.381C85.3133 106.381 85.7837 106.758 85.7837 107.323Z" fill="#2F2C2D"/>
<path d="M115.592 107.229C115.592 107.699 115.216 108.076 114.745 108.076C114.181 108.076 113.805 107.699 113.805 107.229C113.805 106.758 114.181 106.286 114.745 106.286C115.216 106.286 115.592 106.758 115.592 107.229Z" fill="#2F2C2D"/>
<path d="M158.848 166.86C158.848 166.86 163.832 168.084 166.935 172.418C166.935 172.418 167.5 172.983 168.346 172.606C169.192 172.229 170.321 171.853 171.449 172.794C171.449 172.794 170.979 172.889 170.603 173.454C170.321 174.113 169.38 175.338 167.876 175.809C167.876 175.809 168.534 182.309 161.858 186.171C161.858 186.171 159.506 187.49 162.139 177.41C162.139 177.41 158.284 180.519 157.344 182.215C156.403 184.005 156.873 181.273 157.156 180.237C157.532 179.2 156.874 178.353 156.497 177.505C156.027 176.751 157.344 176.751 157.814 176.657C158.19 176.563 162.234 175.809 162.234 175.809L158.19 167.236C158.19 167.236 157.438 166.389 158.848 166.86Z" fill="#00ADB2"/>
</g>
</svg>
