<svg width="410" height="444" viewBox="0 0 410 444" fill="none" xmlns="http://www.w3.org/2000/svg">
<path opacity="0.5" d="M340.025 76.412C289.093 60.167 292.797 17.633 235.522 33.1186C233.207 33.7447 230.929 34.709 228.638 35.4216C200.976 44.0284 174.046 2.0006 129.334 2C102.421 1.99964 111.687 34.6554 68.3726 47.5035C25.0581 60.3515 2.07126 81.7646 2.07126 135.298C2.07126 187.558 36.7169 179.108 21.4488 239.936C20.6905 242.957 19.5553 245.898 18.1788 248.692C5.50724 274.413 -16.609 322.303 31.9548 362.816C64.5822 390.034 101.527 407.249 101.527 427.056C101.527 473.482 216.664 394.932 259.227 416.349C360.294 467.206 426.055 351.039 403.596 302.323C377.513 245.749 380.267 208.104 393.101 177.59C405.935 147.076 405.482 97.2896 340.025 76.412Z" stroke="#00B6B5" stroke-width="3.67"/>
</svg>
