<svg width="380" height="411" viewBox="0 0 380 411" fill="none" xmlns="http://www.w3.org/2000/svg">
<path d="M316.06 69.5004C268.503 54.3486 271.892 14.7104 218.569 29.0052C216.254 29.6258 213.984 30.5943 211.688 31.2838C185.902 39.029 160.746 0.000557023 119.06 0C93.8953 -0.00033625 102.56 30.5 62.0597 42.5C21.5597 54.5 0.0666339 74.4997 0.0666339 124.5C0.0666339 173.226 32.3483 165.446 18.2592 221.935C17.5048 224.959 16.365 227.897 14.9873 230.693C3.11768 254.784 -17.2212 299.31 28.0084 337C58.5156 362.422 93.0597 378.5 93.0597 397C93.0597 440.361 200.715 366.996 240.512 387C335.012 434.5 396.5 326 375.5 280.5C351.112 227.66 353.687 192.5 365.687 164C377.687 135.5 377.263 89 316.06 69.5004Z" fill="#5DC5C6"/>
<g opacity="0.5">
<path fill-rule="evenodd" clip-rule="evenodd" d="M207.557 101.472C210.509 100.278 213.891 100.278 216.844 101.472L229.606 83.3276C230.642 81.8557 232.341 81.001 234.133 81.001C235.23 81.001 236.297 81.3244 237.206 81.9408C238.44 82.7784 239.264 84.0328 239.537 85.4998C239.81 86.9567 239.483 88.4386 238.634 89.6418L224.613 110.303C224.784 112.469 224.666 114.944 224.64 117.109C224.587 121.553 224.556 125.991 224.599 130.435L228.334 166.642C228.504 168.282 228.02 169.885 226.977 171.162C225.94 172.432 224.468 173.223 222.839 173.396C222.625 173.431 222.41 173.433 222.194 173.433C219.042 173.433 216.378 171.034 216.054 167.896L212.505 133.595H211.879L208.332 167.896C207.983 171.269 204.937 173.743 201.564 173.398C198.194 173.053 195.704 170.015 196.051 166.642L199.786 130.435C199.83 125.989 199.881 121.542 199.985 117.097C200.037 114.865 200.065 112.536 200.252 110.307L190.391 96.2392L193.028 92.3529L204.336 108.468C204.683 108.98 204.8 109.636 204.649 110.235C204.579 110.7 204.57 111.264 204.549 111.732C204.505 112.727 204.475 113.723 204.448 114.718C204.372 117.498 204.323 120.279 204.279 123.06C204.239 125.567 204.206 128.074 204.179 130.58C204.178 130.665 204.175 130.743 204.157 130.823L200.41 167.092C200.308 168.072 201.042 168.957 202.017 169.064C202.077 169.071 202.137 169.074 202.197 169.074C202.62 169.074 203.004 168.929 203.332 168.665C203.703 168.366 203.941 167.937 203.991 167.462L207.743 131.201C207.858 130.089 208.795 129.238 209.913 129.238H214.487C215.613 129.238 216.555 130.081 216.657 131.201L220.41 167.462C220.512 168.446 221.404 169.165 222.387 169.064C223.369 168.963 224.095 168.075 223.993 167.092L220.242 130.783C220.239 130.764 220.239 130.748 220.24 130.753C220.233 130.692 220.222 130.642 220.222 130.579C220.2 128.073 220.169 125.567 220.129 123.061C220.086 120.317 220.036 117.571 219.959 114.828C219.921 113.435 219.94 111.682 219.761 110.304C219.751 110.268 219.744 110.231 219.742 110.195C219.603 109.595 219.731 108.967 220.086 108.462L235.049 87.1356C235.229 86.879 235.295 86.5888 235.24 86.2797C235.187 85.9831 235.014 85.7255 234.765 85.5566C234.255 85.2096 233.555 85.3538 233.2 85.8415L219.357 105.528C218.695 106.469 217.406 106.727 216.411 106.139C213.869 104.572 210.547 104.57 208.006 106.139C207.019 106.749 205.728 106.475 205.061 105.528L197.65 95.0036L194.384 90.3541L194.868 89.6418C195.716 88.4386 196.043 86.9567 195.771 85.4998C195.671 84.9635 195.497 84.4555 195.257 83.9858L207.557 101.472ZM203.572 89.6421C203.572 87.2598 204.539 85.101 206.101 83.5393C207.662 81.9776 209.821 81.0107 212.203 81.0107C214.586 81.0107 216.744 81.9773 218.307 83.5393C219.868 85.101 220.835 87.2598 220.835 89.6421C220.835 92.0191 219.867 94.1789 218.303 95.7432C216.741 97.3046 214.585 98.2739 212.203 98.2739C209.821 98.2739 207.662 97.307 206.101 95.7453C204.539 94.183 203.572 92.025 203.572 89.6421ZM207.962 89.6421C207.962 90.8144 208.436 91.8752 209.203 92.6422L209.226 92.6669C209.991 93.4186 211.043 93.8837 212.203 93.8837C213.376 93.8837 214.437 93.4092 215.204 92.6422C215.971 91.8752 216.445 90.8144 216.445 89.6421C216.445 88.4695 215.97 87.4079 215.204 86.6412C214.437 85.875 213.376 85.4006 212.203 85.4006C211.031 85.4006 209.969 85.8753 209.203 86.6412C208.437 87.4079 207.962 88.4695 207.962 89.6421Z" fill="white"/>
<path fill-rule="evenodd" clip-rule="evenodd" d="M163.785 101.472C166.737 100.278 170.119 100.278 173.072 101.472L185.834 83.3275C186.87 81.8556 188.569 81.0009 190.361 81.0009C191.458 81.0009 192.525 81.3243 193.434 81.9407C194.668 82.7783 195.492 84.0327 195.766 85.4997C196.038 86.9566 195.711 88.4385 194.862 89.6417L180.841 110.303C181.012 112.469 180.894 114.944 180.868 117.109C180.815 121.553 180.784 125.991 180.827 130.435L184.562 166.641C184.732 168.282 184.248 169.885 183.205 171.162C182.168 172.432 180.696 173.223 179.067 173.396C178.853 173.431 178.639 173.433 178.422 173.433C175.27 173.433 172.606 171.034 172.282 167.896L168.734 133.594H168.108L164.56 167.896C164.211 171.269 161.165 173.743 157.792 173.398C154.422 173.053 151.932 170.014 152.28 166.641L156.014 130.435C156.058 125.989 156.11 121.541 156.214 117.097C156.266 114.865 156.294 112.536 156.48 110.307L141.999 89.6482C141.149 88.4356 140.825 86.9584 141.091 85.5017C141.357 84.0404 142.194 82.7745 143.422 81.941C144.331 81.3238 145.398 81 146.496 81C148.289 81 149.987 81.8565 151.022 83.3275L163.785 101.472ZM159.8 89.642C159.8 87.2597 160.767 85.1009 162.329 83.5392C163.891 81.9775 166.049 81.0106 168.432 81.0106C170.814 81.0106 172.973 81.9772 174.535 83.5392C176.097 85.1009 177.063 87.2597 177.063 89.642C177.063 92.019 176.095 94.1788 174.531 95.7431C172.969 97.3045 170.813 98.2738 168.432 98.2738C166.049 98.2738 163.891 97.3069 162.329 95.7452C160.767 94.1829 159.8 92.0249 159.8 89.642ZM164.19 89.642C164.19 90.8143 164.665 91.8751 165.432 92.6421L165.455 92.6668C166.22 93.4185 167.271 93.8836 168.432 93.8836C169.604 93.8836 170.665 93.4091 171.432 92.6421C172.199 91.8751 172.673 90.8143 172.673 89.642C172.673 88.4694 172.199 87.4078 171.433 86.6411C170.665 85.8749 169.604 85.4005 168.432 85.4005C167.259 85.4005 166.197 85.8752 165.431 86.6411C164.665 87.4078 164.19 88.4694 164.19 89.642ZM175.97 110.195C175.832 109.595 175.959 108.967 176.314 108.462L191.277 87.1355C191.457 86.8789 191.523 86.5887 191.468 86.2796C191.416 85.983 191.242 85.7254 190.993 85.5565C190.483 85.2095 189.783 85.3537 189.429 85.8414L175.585 105.528C174.923 106.469 173.634 106.727 172.639 106.139C170.097 104.571 166.775 104.57 164.234 106.139C163.247 106.749 161.956 106.475 161.29 105.528L153.878 95.0035L147.443 85.8414C147.088 85.3357 146.389 85.2098 145.879 85.5565C145.631 85.7248 145.456 85.9818 145.404 86.2785C145.35 86.5878 145.415 86.8783 145.595 87.1355L160.564 108.468C160.911 108.98 161.028 109.636 160.877 110.235C160.807 110.7 160.798 111.264 160.777 111.732C160.733 112.727 160.704 113.723 160.676 114.718C160.6 117.498 160.551 120.279 160.507 123.06C160.467 125.567 160.434 128.073 160.407 130.58C160.407 130.665 160.403 130.743 160.385 130.823L156.638 167.092C156.537 168.072 157.27 168.957 158.245 169.064C158.305 169.071 158.365 169.073 158.425 169.073C158.848 169.073 159.232 168.929 159.56 168.665C159.932 168.366 160.17 167.937 160.219 167.462L163.972 131.2C164.087 130.088 165.023 129.238 166.141 129.238H170.715C171.841 129.238 172.783 130.081 172.885 131.2L176.638 167.462C176.74 168.446 177.632 169.164 178.615 169.063C179.597 168.963 180.323 168.075 180.221 167.092L176.47 130.783C176.468 130.764 176.467 130.748 176.468 130.753C176.461 130.692 176.451 130.642 176.45 130.579C176.429 128.073 176.397 125.567 176.357 123.061C176.314 120.317 176.264 117.571 176.188 114.828C176.149 113.435 176.169 111.682 175.989 110.303C175.979 110.268 175.973 110.231 175.97 110.195Z" fill="white"/>
</g>
</svg>
