<svg width="380" height="411" viewBox="0 0 380 411" fill="none" xmlns="http://www.w3.org/2000/svg">
<path d="M316.068 69.5004C268.511 54.3486 271.899 14.7104 218.577 29.0052C216.262 29.6258 213.992 30.5943 211.696 31.2838C185.91 39.029 160.754 0.000557023 119.068 0C93.9031 -0.00033625 102.568 30.5 62.0675 42.5C21.5675 54.5 0.0744464 74.4997 0.0744464 124.5C0.0744464 173.226 32.3561 165.446 18.267 221.935C17.5126 224.959 16.3728 227.897 14.9951 230.693C3.1255 254.784 -17.2134 299.31 28.0162 337C58.5234 362.422 93.0675 378.5 93.0675 397C93.0675 440.361 200.723 366.996 240.52 387C335.02 434.5 396.508 326 375.508 280.5C351.12 227.66 353.695 192.5 365.695 164C377.695 135.5 377.271 89 316.068 69.5004Z" fill="#E40032"/>
<path opacity="0.5" fill-rule="evenodd" clip-rule="evenodd" d="M173.418 151.563L173.426 151.56L173.472 151.544C173.784 151.442 174.182 151.318 174.623 151.184C175.122 151.032 175.476 150.925 175.791 150.832C178.138 150.131 180.565 149.407 181.757 148.414C182.017 148.198 182.13 147.939 182.166 147.697C182.206 147.421 182.159 147.15 182.106 146.961C182.028 146.685 181.909 146.457 181.785 146.286C181.684 146.148 181.73 146.091 181.697 146.086L181.684 146.084C181.57 146.074 181.341 146.099 181.063 146.139C180.709 146.191 180.314 146.267 179.943 146.338L179.938 146.339C178.938 146.531 177.806 146.748 176.598 146.774H176.595C176.056 146.784 175.601 146.759 175.192 146.719C174.776 146.677 174.423 146.621 174.077 146.565L174.064 146.563L174.039 146.558C173.231 146.428 172.453 146.306 170.835 146.423C169.33 146.532 167.624 146.954 166.039 147.564C164.457 148.174 163.009 148.963 162.018 149.806C160.502 151.097 158.014 152.311 154.674 152.949C151.987 153.462 148.728 153.609 144.958 153.13C144.346 153.052 143.823 152.733 143.473 152.282C143.125 151.832 142.948 151.246 143.026 150.636C143.103 150.025 143.422 149.502 143.873 149.154C144.325 148.803 144.909 148.625 145.516 148.701C145.538 148.704 145.559 148.707 145.58 148.712C148.693 149.103 151.363 149.001 153.54 148.622C156.209 148.158 158.097 147.287 159.125 146.411L159.173 146.373C160.525 145.234 162.38 144.205 164.374 143.429C166.388 142.647 168.559 142.112 170.516 141.97C172.659 141.815 173.789 141.998 174.783 142.158L174.792 142.16L174.799 142.159L174.831 142.166L174.842 142.167C175.399 142.258 175.855 142.332 176.497 142.314L176.513 142.314C177.324 142.295 178.225 142.123 179.095 141.955L179.111 141.951L179.119 141.949L179.154 141.944C180.344 141.716 181.375 141.522 182.36 141.671L182.388 141.676C183.307 141.821 184.173 142.313 184.88 143.044C185.563 143.751 186.105 144.692 186.404 145.761C186.727 146.916 186.722 148.062 186.417 149.105C186.11 150.159 185.498 151.103 184.61 151.843C182.708 153.427 179.84 154.282 177.067 155.109L177.062 155.11L175.942 155.445C175.643 155.536 175.31 155.64 174.917 155.768L174.915 155.769L174.91 155.77L174.856 155.789L174.851 155.79C174.546 155.89 174.247 156.038 174.002 156.187C173.784 156.32 173.641 156.413 173.615 156.438C173.444 156.825 173.404 157.069 173.416 157.225C173.422 157.295 173.443 157.326 173.453 157.341L173.455 157.345C173.595 157.552 173.929 157.734 174.331 157.877C174.913 158.083 175.58 158.178 176.075 158.164C176.823 158.142 177.998 157.892 179.328 157.524C180.935 157.079 182.734 156.469 184.29 155.87L195.282 151.65C196.042 151.355 196.868 151.169 197.719 151.093C198.564 151.018 199.424 151.053 200.255 151.201L200.366 151.221L200.417 151.231C201.438 151.435 202.355 151.896 203.089 152.546C203.838 153.21 204.395 154.07 204.677 155.05C204.941 155.968 204.942 156.906 204.703 157.786C204.468 158.647 204 159.447 203.32 160.116C202.53 160.993 200.271 162.388 196.699 164.22C193.169 166.03 188.353 168.283 182.407 170.897C180.653 171.668 178.971 172.209 177.33 172.556C175.682 172.905 174.081 173.06 172.495 173.06C170.362 173.06 168.246 172.781 166.065 172.319C163.918 171.866 161.703 171.231 159.34 170.514C158.509 170.262 155.25 169.521 151.816 168.925C149.608 168.541 147.347 168.222 145.657 168.139C145.043 168.108 144.497 167.831 144.113 167.407C143.729 166.984 143.507 166.416 143.537 165.803C143.567 165.189 143.846 164.646 144.268 164.263C144.692 163.879 145.263 163.655 145.87 163.682L145.873 163.682C147.776 163.775 150.221 164.117 152.578 164.527C156.208 165.157 159.685 165.957 160.636 166.246C164.466 167.409 167.765 168.313 170.962 168.538L170.972 168.539C174.113 168.759 177.18 168.318 180.61 166.81C186.522 164.21 190.649 162.263 193.523 160.823C198.508 158.325 199.744 157.364 199.985 157.152C200.009 157.124 200.035 157.094 200.065 157.062C200.108 157.016 200.151 156.974 200.191 156.938L200.196 156.933C200.307 156.826 200.367 156.723 200.393 156.632C200.431 156.501 200.409 156.368 200.384 156.281C200.338 156.12 200.243 155.978 200.112 155.867C199.967 155.745 199.775 155.656 199.55 155.611C199.074 155.527 198.598 155.505 198.144 155.541C197.691 155.577 197.262 155.67 196.879 155.817L196.82 155.837L185.888 160.035C185.346 160.243 183.686 160.867 181.821 161.441C179.911 162.029 177.749 162.577 176.206 162.624H176.199C175.232 162.649 173.746 162.487 172.381 161.908C171.361 161.475 170.4 160.808 169.738 159.814C169.341 159.218 168.978 158.382 168.952 157.303C168.933 156.508 169.097 155.59 169.568 154.552C169.898 153.826 170.457 153.246 171.056 152.795C172.022 152.067 173.113 151.666 173.418 151.563ZM195.476 99.1892C201.169 99.1892 206.323 101.497 210.055 105.228C213.786 108.959 216.094 114.114 216.094 119.807C216.094 125.499 213.786 130.654 210.055 134.385C206.324 138.116 201.169 140.424 195.476 140.424C189.783 140.424 184.628 138.116 180.897 134.385C177.167 130.655 174.858 125.499 174.858 119.807C174.858 114.114 177.167 108.959 180.897 105.228C184.629 101.497 189.783 99.1892 195.476 99.1892ZM168.256 139.645C167.476 140.594 166.074 140.73 165.125 139.951C164.176 139.171 164.04 137.768 164.82 136.82L167.901 133.085C167.679 132.616 167.465 132.135 167.262 131.643C167.059 131.155 166.87 130.665 166.696 130.176L155.318 129.07C154.143 128.959 153.268 127.953 153.303 126.789L153.304 120.025L153.303 113.194C153.303 112.037 154.188 111.086 155.318 110.981L166.696 109.874C166.87 109.385 167.059 108.895 167.262 108.406C167.466 107.914 167.679 107.433 167.902 106.963L160.634 98.1302C159.9 97.2378 159.978 95.9439 160.779 95.1445L160.774 95.1393L165.604 90.3093L170.434 85.4792C171.297 84.6156 172.693 84.6076 173.566 85.4559L182.258 92.6077C182.728 92.3846 183.209 92.171 183.701 91.967C184.19 91.7645 184.68 91.5755 185.169 91.401L186.274 80.0232C186.383 78.8706 187.354 78.0065 188.489 78.0077V78H195.319H202.15C203.373 78 204.366 78.9831 204.382 80.2019L205.47 91.401C205.959 91.5755 206.449 91.7645 206.938 91.967C207.43 92.171 207.911 92.3846 208.381 92.6077L217.214 85.3393C218.107 84.6056 219.4 84.683 220.2 85.4844L220.205 85.4792L225.035 90.3093L229.865 95.1393C230.729 96.0028 230.737 97.3985 229.888 98.2718L222.737 106.963C222.96 107.433 223.173 107.914 223.377 108.406C223.58 108.895 223.769 109.385 223.943 109.874L235.321 110.979C236.496 111.09 237.371 112.097 237.336 113.261L237.335 120.025L237.336 126.856C237.336 128.013 236.451 128.964 235.321 129.069L223.943 130.176C223.769 130.665 223.58 131.155 223.377 131.643C223.173 132.136 222.96 132.617 222.737 133.087L230.005 141.92C230.739 142.812 230.661 144.106 229.86 144.905L229.865 144.911L225.035 149.74L220.205 154.571C219.342 155.434 217.946 155.442 217.073 154.594L208.381 147.442C207.911 147.665 207.43 147.879 206.938 148.083C205.97 148.484 204.999 148.831 204.034 149.12C202.854 149.471 201.612 148.8 201.26 147.62C200.909 146.44 201.58 145.198 202.76 144.847C203.632 144.586 204.462 144.292 205.246 143.967C206.038 143.639 206.829 143.261 207.615 142.837L207.616 142.84C208.387 142.426 209.365 142.491 210.083 143.081L218.476 149.987L221.879 146.584L225.282 143.181L218.459 134.89C217.83 134.211 217.669 133.181 218.132 132.32C218.556 131.535 218.933 130.744 219.261 129.952C219.586 129.167 219.881 128.337 220.142 127.466L220.146 127.467C220.397 126.624 221.139 125.975 222.069 125.888L232.888 124.837L232.888 120.025L232.888 115.213L222.213 114.176C221.277 114.149 220.423 113.53 220.142 112.584C219.881 111.713 219.586 110.883 219.261 110.098C218.933 109.306 218.556 108.515 218.132 107.73L218.135 107.728C217.72 106.957 217.785 105.98 218.376 105.262L225.282 96.8687L221.879 93.4657L218.476 90.0624L210.184 96.8852C209.505 97.5145 208.476 97.6755 207.615 97.2128C206.829 96.7884 206.038 96.411 205.246 96.0829C204.462 95.7579 203.632 95.4633 202.76 95.2028L202.762 95.1987C201.918 94.9471 201.27 94.2053 201.182 93.2756L200.132 82.4649H195.319H190.507L189.471 93.1317C189.444 94.067 188.825 94.9211 187.879 95.2028C187.007 95.4633 186.177 95.7579 185.393 96.0829C184.601 96.411 183.81 96.7884 183.024 97.2128L183.023 97.2098C182.252 97.624 181.274 97.5589 180.556 96.9688L172.163 90.0624L168.76 93.4657L165.357 96.8687L172.18 105.16C172.809 105.839 172.97 106.869 172.507 107.73C172.083 108.515 171.706 109.306 171.377 110.098C171.053 110.883 170.758 111.713 170.497 112.584L170.493 112.583C170.242 113.426 169.5 114.074 168.57 114.162L157.751 115.213L157.751 120.025L157.751 124.837L168.426 125.873C169.362 125.901 170.216 126.52 170.497 127.466C170.758 128.337 171.053 129.167 171.377 129.952C171.706 130.744 172.083 131.535 172.507 132.32L172.504 132.322C172.919 133.093 172.853 134.07 172.263 134.788L168.256 139.645ZM206.898 108.385C203.976 105.462 199.937 103.654 195.476 103.654C191.015 103.654 186.976 105.462 184.054 108.385C181.131 111.307 179.323 115.346 179.323 119.807C179.323 124.268 181.131 128.306 184.054 131.229C186.976 134.151 191.015 135.959 195.476 135.959C199.937 135.959 203.976 134.151 206.898 131.229C209.821 128.307 211.629 124.268 211.629 119.807C211.629 115.346 209.821 111.307 206.898 108.385Z" fill="white"/>
</svg>
