<svg width="179" height="62" viewBox="0 0 179 62" fill="none" xmlns="http://www.w3.org/2000/svg">
<path d="M63.9699 54.0914V54.4992C63.9699 55.3146 63.834 56.1301 63.6981 56.6737C63.4263 57.3532 63.1545 57.8969 62.7468 58.3046C62.339 58.8482 61.9313 59.12 61.3877 59.3919C60.7081 59.6637 60.1645 59.7996 59.485 59.7996C58.8054 59.7996 58.2618 59.6637 57.7182 59.3919C57.0386 59.12 56.6309 58.8482 56.2232 58.3046C55.8154 57.8969 55.5436 57.3532 55.2718 56.6737C55 56.1301 55 55.3146 55 54.4992V54.0914C55 53.276 55 52.4605 55.2718 51.9169C55.5436 51.2374 55.8154 50.6937 56.2232 50.1501C56.6309 49.7424 57.0386 49.4706 57.5823 49.1987C58.1259 48.9269 58.8054 48.791 59.485 48.791C60.1645 48.791 60.7081 48.9269 61.2518 49.1987C61.7954 49.4706 62.339 49.7424 62.7468 50.1501C63.1545 50.6937 63.4263 51.2374 63.6981 51.9169C63.834 52.4605 63.9699 53.276 63.9699 54.0914ZM61.7954 54.4992V53.9555C61.7954 53.4119 61.7954 53.0042 61.6595 52.4605C61.5236 52.0528 61.3877 51.781 61.2518 51.5092C60.98 51.1015 60.7081 50.9655 60.4363 50.8296C60.1645 50.6937 59.8927 50.5578 59.485 50.5578C59.0772 50.5578 58.8054 50.6937 58.5336 50.8296C58.2618 50.9655 57.99 51.1015 57.7182 51.5092C57.5823 51.781 57.4463 52.0528 57.3104 52.4605C57.1745 53.0042 57.1745 53.4119 57.1745 53.9555V54.4992C57.1745 55.0428 57.1745 55.5864 57.3104 55.9941C57.4463 56.4019 57.5823 56.8096 57.7182 57.0814C57.99 57.3532 58.2618 57.625 58.5336 57.761C58.8054 57.8969 59.0772 58.0328 59.485 58.0328C59.8927 58.0328 60.1645 57.8969 60.4363 57.761C60.7081 57.625 60.98 57.3532 61.2518 57.0814C61.3877 56.8096 61.5236 56.4019 61.6595 55.9941C61.7954 55.5864 61.7954 55.0428 61.7954 54.4992ZM72.5322 48.9269V50.6937H67.7754V59.6637H65.6008V48.9269H72.5322ZM66.9599 52.8683H69.5422C70.3576 52.8683 71.0372 53.0042 71.7167 53.276C72.2603 53.5478 72.6681 53.9555 73.0758 54.3633C73.3476 54.9069 73.4835 55.4505 73.4835 56.1301C73.4835 56.6737 73.4835 57.0814 73.2117 57.625C73.0758 58.0328 72.804 58.3046 72.3962 58.7123C72.1244 58.9841 71.7167 59.12 71.1731 59.3919C70.6294 59.5278 70.0858 59.6637 69.5422 59.6637H65.6008V48.9269H67.7754V57.8969H69.5422C69.9499 57.8969 70.2217 57.761 70.4935 57.625C70.7653 57.4891 71.0372 57.3532 71.1731 57.0814C71.309 56.8096 71.309 56.5378 71.309 56.1301C71.309 55.8582 71.309 55.5864 71.1731 55.3146C71.0372 55.0428 70.7653 54.9069 70.4935 54.771C70.2217 54.6351 69.9499 54.4992 69.5422 54.4992H66.9599V52.8683ZM82.0457 48.9269V50.6937H76.7453V48.9269H82.0457ZM83.6766 48.9269V59.6637H81.3662V48.9269H83.6766ZM76.4735 48.9269H78.648L78.3762 54.3633C78.3762 55.0428 78.2403 55.8582 78.2403 56.4019C78.1044 56.9455 77.9685 57.4891 77.6967 57.8969C77.5608 58.3046 77.2889 58.5764 77.0171 58.8482C76.7453 59.12 76.4735 59.2559 76.0658 59.3919C75.7939 59.5278 75.3862 59.6637 74.8426 59.6637H74.299V57.8969H74.5708C74.8426 57.8969 74.9785 57.761 75.2503 57.625C75.3862 57.625 75.5221 57.3532 75.658 57.2173C75.7939 56.9455 75.9299 56.8096 76.0658 56.4019C76.0658 56.1301 76.2017 55.7223 76.2017 55.3146C76.2017 54.771 76.3376 54.2273 76.3376 53.6837L76.4735 48.9269ZM89.9284 50.8296L87.0743 59.6637H84.7639L88.7052 48.9269H90.2002L89.9284 50.8296ZM92.3747 59.6637L89.5207 50.8296L89.2489 48.9269H90.7438L94.6852 59.6637H92.3747ZM92.2388 55.5864V57.3532H86.6666V55.5864H92.2388ZM101.752 56.1301H103.927C103.927 56.8096 103.655 57.3532 103.383 58.0328C102.976 58.5764 102.568 58.9841 101.888 59.2559C101.209 59.5278 100.529 59.7996 99.7138 59.7996C99.0342 59.7996 98.3547 59.6637 97.8111 59.3919C97.2674 59.12 96.8597 58.8482 96.452 58.3046C96.0443 57.8969 95.7724 57.3532 95.5006 56.8096C95.3647 56.1301 95.2288 55.4505 95.2288 54.6351V53.9555C95.2288 53.1401 95.3647 52.4605 95.5006 51.781C95.7724 51.1015 96.0443 50.6937 96.452 50.1501C96.8597 49.7424 97.2674 49.4706 97.8111 49.1987C98.3547 48.9269 99.0342 48.791 99.7138 48.791C100.529 48.791 101.345 48.9269 101.888 49.3346C102.568 49.6065 102.976 50.0142 103.383 50.5578C103.655 51.2374 103.927 51.781 103.927 52.5964H101.752C101.752 52.0528 101.616 51.781 101.481 51.5092C101.345 51.1015 101.073 50.9655 100.801 50.8296C100.529 50.5578 100.122 50.5578 99.7138 50.5578C99.3061 50.5578 99.0342 50.5578 98.7624 50.6937C98.4906 50.8296 98.2188 51.1015 98.0829 51.3733C97.8111 51.6451 97.6752 52.0528 97.5393 52.4605C97.5393 52.8683 97.5393 53.276 97.5393 53.9555V54.6351C97.5393 55.1787 97.5393 55.7223 97.5393 56.1301C97.6752 56.5378 97.8111 56.8096 97.947 57.2173C98.2188 57.4891 98.3547 57.625 98.6265 57.761C98.8983 57.8969 99.3061 58.0328 99.7138 58.0328C100.122 58.0328 100.529 57.8969 100.801 57.761C101.073 57.625 101.345 57.4891 101.481 57.0814C101.616 56.8096 101.752 56.5378 101.752 56.1301ZM109.907 48.9269V59.6637H107.732V48.9269H109.907ZM113.169 48.9269V50.6937H104.471V48.9269H113.169ZM116.566 56.1301L120.78 48.9269H122.954V59.6637H120.78V52.4605L116.566 59.6637H114.392V48.9269H116.566V56.1301Z" fill="white"/>
<path d="M63.8231 19.5706V30.1715H61.6486V21.2015H57.2995V30.1715H55.125V19.5706H63.8231ZM69.8031 26.3661H67.0849V24.5992H69.8031C70.2108 24.5992 70.6185 24.5992 70.8903 24.4633C71.1622 24.3274 71.2981 24.0556 71.434 23.9197C71.5699 23.6479 71.5699 23.3761 71.5699 22.9683C71.5699 22.6965 71.5699 22.4247 71.434 22.1529C71.2981 21.8811 71.1622 21.6093 70.8903 21.4734C70.6185 21.3375 70.2108 21.2015 69.8031 21.2015H67.9004V30.1715H65.7258V19.5706H69.8031C70.6185 19.5706 71.434 19.7066 71.9776 19.9784C72.5212 20.2502 73.0649 20.6579 73.3367 21.2015C73.6085 21.7452 73.8803 22.2888 73.8803 22.9683C73.8803 23.6479 73.6085 24.3274 73.3367 24.7352C73.0649 25.2788 72.5212 25.6865 71.9776 25.9583C71.434 26.2301 70.6185 26.3661 69.8031 26.3661ZM78.5012 21.3375L75.5112 30.1715H73.2008L77.1421 19.5706H78.6371L78.5012 21.3375ZM80.8116 30.1715L77.9576 21.3375L77.6858 19.5706H79.1807L83.258 30.1715H80.8116ZM80.6757 26.2301V27.861H75.1035V26.2301H80.6757ZM88.2866 25.5506H85.5684V23.9197H87.8789C88.2866 23.9197 88.6943 23.9197 88.8302 23.7838C89.102 23.7838 89.3739 23.512 89.5098 23.3761C89.6457 23.1043 89.6457 22.9683 89.6457 22.5606C89.6457 22.2888 89.6457 22.017 89.5098 21.8811C89.3739 21.6093 89.102 21.4734 88.8302 21.3375C88.6943 21.3375 88.2866 21.2015 87.8789 21.2015H86.3839V30.1715H84.2093V19.5706H87.8789C88.5584 19.5706 89.102 19.5706 89.5098 19.7066C90.0534 19.8425 90.4611 19.9784 90.8688 20.2502C91.1407 20.522 91.4125 20.7938 91.5484 21.0656C91.8202 21.4734 91.8202 21.8811 91.8202 22.4247C91.8202 22.8324 91.8202 23.2402 91.5484 23.6479C91.4125 24.0556 91.0048 24.3274 90.597 24.5992C90.1893 24.7352 89.6457 24.8711 88.9661 24.8711L88.2866 25.5506ZM88.2866 30.1715H85.0248L85.8402 28.4047H88.2866C88.6943 28.4047 88.9661 28.4047 89.2379 28.2688C89.3739 28.1329 89.6457 27.997 89.7816 27.7251C89.9175 27.5892 89.9175 27.3174 89.9175 27.0456C89.9175 26.6379 89.9175 26.3661 89.7816 26.2301C89.6457 25.9583 89.5098 25.8224 89.2379 25.6865C88.9661 25.5506 88.6943 25.5506 88.2866 25.5506H86.248V23.9197H88.8302L89.3739 24.5992C90.0534 24.5992 90.597 24.7352 91.0048 24.8711C91.4125 25.1429 91.6843 25.4147 91.8202 25.8224C91.9561 26.2301 92.092 26.6379 92.092 27.0456C92.092 27.7251 91.9561 28.2688 91.6843 28.8124C91.4125 29.2201 90.8688 29.6278 90.3252 29.7638C89.7816 30.0356 89.102 30.1715 88.2866 30.1715ZM95.8974 26.6379L100.111 19.5706H102.285V30.1715H100.111V22.9683L95.8974 30.1715H93.7229V19.5706H95.8974V26.6379ZM108.809 19.5706V30.1715H106.634V19.5706H108.809ZM112.071 19.5706V21.2015H103.372V19.5706H112.071ZM120.361 28.4047V30.1715H114.789V28.4047H120.361ZM115.468 19.5706V30.1715H113.294V19.5706H115.468ZM119.681 23.7838V25.5506H114.789V23.7838H119.681ZM120.361 19.5706V21.2015H114.789V19.5706H120.361ZM128.787 19.5706V21.2015H123.487V19.5706H128.787ZM130.282 19.5706V30.1715H128.108V19.5706H130.282ZM123.215 19.5706H125.39L125.118 24.8711C125.118 25.6865 124.982 26.3661 124.846 26.9097C124.846 27.5892 124.71 27.997 124.438 28.4047C124.302 28.8124 124.03 29.2201 123.759 29.4919C123.487 29.6278 123.215 29.8997 122.807 30.0356C122.4 30.0356 121.992 30.1715 121.584 30.1715H121.04V28.4047H121.312C121.584 28.4047 121.72 28.2688 121.992 28.2688C122.128 28.1329 122.264 27.997 122.4 27.7251C122.535 27.5892 122.671 27.3174 122.671 27.0456C122.807 26.6379 122.943 26.2301 122.943 25.8224C122.943 25.4147 123.079 24.8711 123.079 24.1915L123.215 19.5706ZM133.68 23.3761H136.126C136.942 23.3761 137.757 23.512 138.301 23.7838C138.98 24.0556 139.388 24.4633 139.66 25.007C140.068 25.4147 140.204 26.0942 140.204 26.7738C140.204 27.1815 140.068 27.7251 139.932 28.1329C139.796 28.5406 139.524 28.9483 139.116 29.2201C138.709 29.4919 138.301 29.7638 137.893 29.8997C137.349 30.0356 136.806 30.1715 136.126 30.1715H132.185V19.5706H134.495V28.4047H136.126C136.534 28.4047 136.942 28.4047 137.214 28.2688C137.485 27.997 137.621 27.861 137.757 27.5892C137.893 27.3174 138.029 27.0456 138.029 26.7738C138.029 26.3661 137.893 26.0942 137.757 25.9583C137.621 25.6865 137.485 25.4147 137.214 25.2788C136.942 25.1429 136.534 25.1429 136.126 25.1429H133.68V23.3761ZM147.814 26.6379H149.989C149.853 27.3174 149.717 27.997 149.309 28.5406C149.038 29.0842 148.494 29.4919 147.95 29.8997C147.271 30.1715 146.591 30.3074 145.64 30.3074C144.96 30.3074 144.417 30.1715 143.873 29.8997C143.329 29.7638 142.786 29.356 142.514 28.9483C142.106 28.5406 141.834 27.997 141.563 27.3174C141.427 26.6379 141.291 25.9583 141.291 25.1429V24.4633C141.291 23.6479 141.427 22.9683 141.563 22.4247C141.834 21.7452 142.106 21.2015 142.514 20.7938C142.922 20.2502 143.329 19.9784 143.873 19.7066C144.417 19.4347 144.96 19.2988 145.64 19.2988C146.591 19.2988 147.271 19.5706 147.95 19.8425C148.494 20.1143 149.038 20.6579 149.309 21.2015C149.717 21.7452 149.853 22.4247 149.989 23.1043H147.814C147.814 22.6965 147.678 22.2888 147.543 22.017C147.407 21.7452 147.135 21.4734 146.863 21.3375C146.591 21.2015 146.183 21.0656 145.64 21.0656C145.368 21.0656 144.96 21.2015 144.688 21.3375C144.417 21.4734 144.281 21.6093 144.009 21.8811C143.873 22.1529 143.737 22.5606 143.601 22.9683C143.601 23.3761 143.465 23.9197 143.465 24.4633V25.1429C143.465 25.8224 143.601 26.2301 143.601 26.6379C143.737 27.0456 143.873 27.4533 144.009 27.7251C144.145 27.997 144.417 28.2688 144.688 28.4047C144.96 28.5406 145.232 28.5406 145.64 28.5406C146.183 28.5406 146.455 28.5406 146.863 28.4047C147.135 28.2688 147.271 27.997 147.543 27.7251C147.678 27.4533 147.678 27.0456 147.814 26.6379ZM155.969 19.5706V30.1715H153.794V19.5706H155.969ZM159.231 19.5706V21.2015H150.533V19.5706H159.231ZM164.667 25.5506H161.949L161.813 23.9197H164.123C164.531 23.9197 164.939 23.9197 165.211 23.7838C165.482 23.7838 165.618 23.512 165.754 23.3761C165.89 23.1043 165.89 22.9683 165.89 22.5606C165.89 22.2888 165.89 22.017 165.754 21.8811C165.618 21.6093 165.482 21.4734 165.211 21.3375C164.939 21.3375 164.531 21.2015 164.123 21.2015H162.628V30.1715H160.454V19.5706H164.123C164.803 19.5706 165.347 19.5706 165.89 19.7066C166.298 19.8425 166.706 19.9784 167.113 20.2502C167.385 20.522 167.657 20.7938 167.793 21.0656C168.065 21.4734 168.065 21.8811 168.065 22.4247C168.065 22.8324 168.065 23.2402 167.793 23.6479C167.657 24.0556 167.385 24.3274 166.842 24.5992C166.434 24.7352 165.89 24.8711 165.211 24.8711L164.667 25.5506ZM164.531 30.1715H161.269L162.085 28.4047H164.531C164.939 28.4047 165.211 28.4047 165.482 28.2688C165.754 28.1329 165.89 27.997 166.026 27.7251C166.162 27.5892 166.162 27.3174 166.162 27.0456C166.162 26.6379 166.162 26.3661 166.026 26.2301C165.89 25.9583 165.754 25.8224 165.482 25.6865C165.347 25.5506 164.939 25.5506 164.667 25.5506H162.492V23.9197H165.211L165.618 24.5992C166.298 24.5992 166.842 24.7352 167.249 24.8711C167.657 25.1429 167.929 25.4147 168.065 25.8224C168.336 26.2301 168.337 26.6379 168.337 27.0456C168.337 27.7251 168.201 28.2688 167.929 28.8124C167.657 29.2201 167.249 29.6278 166.57 29.7638C166.026 30.0356 165.347 30.1715 164.531 30.1715ZM178.801 24.5992V25.1429C178.801 25.9583 178.666 26.6379 178.394 27.3174C178.258 27.861 177.85 28.4047 177.442 28.9483C177.035 29.356 176.627 29.7638 176.083 29.8997C175.54 30.1715 174.86 30.3074 174.181 30.3074C173.501 30.3074 172.957 30.1715 172.414 29.8997C171.87 29.7638 171.326 29.356 170.919 28.9483C170.511 28.4047 170.239 27.861 169.967 27.3174C169.831 26.6379 169.696 25.9583 169.696 25.1429V24.5992C169.696 23.7838 169.831 23.1043 169.967 22.4247C170.239 21.7452 170.511 21.2015 170.919 20.7938C171.326 20.2502 171.87 19.9784 172.414 19.7066C172.957 19.4347 173.501 19.4347 174.181 19.4347C174.86 19.4347 175.54 19.4347 176.083 19.7066C176.627 19.9784 177.035 20.2502 177.442 20.7938C177.85 21.2015 178.258 21.7452 178.394 22.4247C178.666 23.1043 178.801 23.7838 178.801 24.5992ZM176.491 25.1429V24.5992C176.491 24.0556 176.491 23.512 176.355 23.1043C176.219 22.6965 176.083 22.2888 175.947 22.017C175.676 21.7452 175.54 21.4734 175.132 21.3375C174.86 21.2015 174.588 21.0656 174.181 21.0656C173.773 21.0656 173.501 21.2015 173.229 21.3375C172.957 21.4734 172.686 21.7452 172.55 22.017C172.278 22.2888 172.142 22.6965 172.006 23.1043C172.006 23.512 171.87 24.0556 171.87 24.5992V25.1429C171.87 25.6865 172.006 26.0942 172.006 26.6379C172.142 27.0456 172.278 27.3174 172.55 27.7251C172.686 27.997 172.957 28.1329 173.229 28.2688C173.501 28.5406 173.909 28.5406 174.181 28.5406C174.588 28.5406 174.86 28.5406 175.268 28.2688C175.54 28.1329 175.676 27.997 175.947 27.7251C176.083 27.3174 176.219 27.0456 176.355 26.6379C176.491 26.0942 176.491 25.6865 176.491 25.1429ZM56.0764 34.2487H57.9791L60.6972 41.9955L63.4154 34.2487H65.3181L61.5127 44.8496H60.0177L56.0764 34.2487ZM55.125 34.2487H57.0277L57.2995 41.8596V44.8496H55.125V34.2487ZM64.5027 34.2487H66.2695V44.8496H64.0949V41.8596L64.5027 34.2487ZM77.0062 39.2773V39.821C77.0062 40.6364 76.8703 41.316 76.5985 41.9955C76.4626 42.675 76.0549 43.2187 75.6471 43.6264C75.3753 44.0341 74.8317 44.4418 74.288 44.7137C73.7444 44.8496 73.0649 44.9855 72.3853 44.9855C71.8417 44.9855 71.1622 44.8496 70.6185 44.7137C70.0749 44.4418 69.5313 44.0341 69.1235 43.6264C68.7158 43.2187 68.444 42.675 68.1722 41.9955C68.0363 41.316 67.9004 40.6364 67.9004 39.821V39.2773C67.9004 38.4619 68.0363 37.7823 68.1722 37.1028C68.444 36.4233 68.7158 35.8796 69.1235 35.4719C69.5313 35.0642 70.0749 34.6565 70.6185 34.3846C71.1622 34.2487 71.7058 34.1128 72.3853 34.1128C73.0649 34.1128 73.7444 34.2487 74.288 34.3846C74.8317 34.6565 75.2394 35.0642 75.6471 35.4719C76.0549 35.8796 76.4626 36.4233 76.5985 37.1028C76.8703 37.7823 77.0062 38.4619 77.0062 39.2773ZM74.6958 39.821V39.2773C74.6958 38.7337 74.6958 38.1901 74.5599 37.7823C74.5599 37.3746 74.288 36.9669 74.1521 36.6951C73.8803 36.4233 73.7444 36.1514 73.4726 36.0155C73.0649 35.8796 72.7931 35.8796 72.3853 35.8796C72.1135 35.8796 71.7058 35.8796 71.434 36.0155C71.1622 36.1514 70.8903 36.4233 70.7544 36.6951C70.4826 36.9669 70.3467 37.3746 70.2108 37.7823C70.2108 38.1901 70.0749 38.7337 70.0749 39.2773V39.821C70.0749 40.3646 70.2108 40.9082 70.2108 41.316C70.3467 41.7237 70.4826 42.1314 70.7544 42.4032C70.8903 42.675 71.1622 42.9468 71.434 43.0828C71.7058 43.2187 72.1135 43.2187 72.3853 43.2187C72.7931 43.2187 73.2008 43.2187 73.4726 43.0828C73.7444 42.9468 74.0162 42.675 74.1521 42.4032C74.288 42.1314 74.5599 41.7237 74.5599 41.316C74.6958 40.9082 74.6958 40.3646 74.6958 39.821ZM84.753 41.316H86.9275C86.7916 41.9955 86.6557 42.675 86.248 43.2187C85.9762 43.7623 85.4325 44.3059 84.8889 44.5777C84.2093 44.8496 83.5298 44.9855 82.5784 44.9855C81.8989 44.9855 81.3553 44.8496 80.8116 44.7137C80.268 44.4418 79.7244 44.0341 79.4526 43.6264C79.0448 43.2187 78.773 42.675 78.5012 41.9955C78.3653 41.4519 78.2294 40.7723 78.2294 39.9569V39.1414C78.2294 38.4619 78.3653 37.6464 78.5012 37.1028C78.773 36.4233 79.0448 35.8796 79.4526 35.4719C79.8603 35.0642 80.268 34.6565 80.8116 34.3846C81.3553 34.2487 81.8989 34.1128 82.5784 34.1128C83.5298 34.1128 84.2093 34.2487 84.8889 34.5205C85.4325 34.9283 85.9762 35.336 86.248 35.8796C86.6557 36.4233 86.7916 37.1028 86.9275 37.7823H84.753C84.753 37.3746 84.6171 36.9669 84.4812 36.6951C84.3453 36.4233 84.0734 36.1514 83.8016 36.0155C83.5298 35.8796 83.1221 35.8796 82.5784 35.8796C82.3066 35.8796 81.8989 35.8796 81.6271 36.0155C81.3553 36.1514 81.2194 36.4233 80.9475 36.6951C80.8116 36.9669 80.6757 37.2387 80.5398 37.6464C80.5398 38.0542 80.4039 38.5978 80.4039 39.1414V39.9569C80.4039 40.5005 80.5398 40.9082 80.5398 41.316C80.6757 41.8596 80.8116 42.1314 80.9475 42.4032C81.0835 42.675 81.3553 42.9468 81.6271 43.0828C81.8989 43.2187 82.1707 43.3546 82.5784 43.3546C83.1221 43.3546 83.3939 43.2187 83.8016 43.0828C84.0734 42.9468 84.2093 42.675 84.4812 42.4032C84.6171 42.1314 84.6171 41.7237 84.753 41.316ZM90.597 34.2487V44.8496H88.2866V34.2487H90.597ZM96.8488 34.2487L92.7716 40.5005H90.0534L89.7816 38.5978H91.5484L94.1306 34.2487H96.8488ZM94.5384 44.8496L91.5484 40.0928L93.0434 38.5978L97.1206 44.8496H94.5384ZM108.809 39.2773V39.821C108.809 40.6364 108.673 41.316 108.537 41.9955C108.265 42.675 107.993 43.2187 107.586 43.6264C107.178 44.0341 106.634 44.4418 106.091 44.7137C105.547 44.8496 105.003 44.9855 104.324 44.9855C103.644 44.9855 102.965 44.8496 102.421 44.7137C101.877 44.4418 101.47 44.0341 101.062 43.6264C100.654 43.2187 100.382 42.675 100.111 41.9955C99.8388 41.316 99.7029 40.6364 99.7029 39.821V39.2773C99.7029 38.4619 99.8388 37.7823 100.111 37.1028C100.247 36.4233 100.654 35.8796 101.062 35.4719C101.47 35.0642 101.877 34.6565 102.421 34.3846C102.965 34.2487 103.644 34.1128 104.324 34.1128C105.003 34.1128 105.547 34.2487 106.091 34.3846C106.634 34.6565 107.178 35.0642 107.586 35.4719C107.993 35.8796 108.265 36.4233 108.537 37.1028C108.673 37.7823 108.809 38.4619 108.809 39.2773ZM106.634 39.821V39.2773C106.634 38.7337 106.498 38.1901 106.498 37.7823C106.362 37.3746 106.226 36.9669 105.955 36.6951C105.819 36.4233 105.547 36.1514 105.275 36.0155C105.003 35.8796 104.596 35.8796 104.324 35.8796C103.916 35.8796 103.644 35.8796 103.236 36.0155C102.965 36.1514 102.829 36.4233 102.557 36.6951C102.421 36.9669 102.285 37.3746 102.149 37.7823C102.013 38.1901 102.013 38.7337 102.013 39.2773V39.821C102.013 40.3646 102.013 40.9082 102.149 41.316C102.285 41.7237 102.421 42.1314 102.557 42.4032C102.829 42.675 102.965 42.9468 103.372 43.0828C103.644 43.2187 103.916 43.2187 104.324 43.2187C104.731 43.2187 105.003 43.2187 105.275 43.0828C105.547 42.9468 105.819 42.675 105.955 42.4032C106.226 42.1314 106.362 41.7237 106.498 41.316C106.498 40.9082 106.634 40.3646 106.634 39.821ZM114.517 40.2287H111.799V38.7337H114.109C114.517 38.7337 114.789 38.5978 115.061 38.5978C115.332 38.4619 115.604 38.326 115.74 38.0542C115.876 37.9182 115.876 37.6464 115.876 37.3746C115.876 36.9669 115.876 36.6951 115.74 36.5592C115.604 36.2873 115.332 36.1514 115.061 36.1514C114.789 36.0155 114.517 36.0155 114.109 36.0155H112.614V44.8496H110.44V34.2487H114.109C114.789 34.2487 115.332 34.2487 115.74 34.3846C116.284 34.5205 116.691 34.6565 116.963 34.9283C117.371 35.2001 117.643 35.4719 117.779 35.8796C117.915 36.1514 118.05 36.6951 118.05 37.1028C118.05 37.5105 117.915 37.9182 117.779 38.326C117.643 38.7337 117.235 39.0055 116.827 39.2773C116.42 39.5491 115.876 39.6851 115.196 39.6851L114.517 40.2287ZM114.517 44.8496H111.255L112.071 43.2187H114.517C114.789 43.2187 115.196 43.0828 115.468 42.9468C115.604 42.8109 115.876 42.675 116.012 42.5391C116.012 42.2673 116.148 41.9955 116.148 41.7237C116.148 41.4519 116.012 41.18 116.012 40.9082C115.876 40.6364 115.74 40.5005 115.468 40.3646C115.196 40.2287 114.925 40.2287 114.517 40.2287H112.478V38.7337H115.061L115.604 39.2773C116.284 39.2773 116.827 39.4132 117.099 39.6851C117.507 39.821 117.915 40.2287 118.05 40.5005C118.186 40.9082 118.322 41.316 118.322 41.7237C118.322 42.4032 118.186 42.9468 117.915 43.4905C117.507 43.8982 117.099 44.3059 116.555 44.5777C116.012 44.7137 115.332 44.8496 114.517 44.8496ZM126.069 41.316H128.244C128.244 41.9955 128.108 42.675 127.7 43.2187C127.428 43.7623 126.885 44.3059 126.205 44.5777C125.661 44.8496 124.846 44.9855 124.03 44.9855C123.351 44.9855 122.671 44.8496 122.128 44.7137C121.584 44.4418 121.176 44.0341 120.769 43.6264C120.361 43.2187 120.089 42.675 119.953 41.9955C119.681 41.4519 119.681 40.7723 119.681 39.9569V39.1414C119.681 38.4619 119.681 37.6464 119.953 37.1028C120.089 36.4233 120.497 35.8796 120.769 35.4719C121.176 35.0642 121.72 34.6565 122.264 34.3846C122.807 34.2487 123.351 34.1128 124.03 34.1128C124.982 34.1128 125.661 34.2487 126.341 34.5205C126.885 34.9283 127.428 35.336 127.7 35.8796C128.108 36.4233 128.244 37.1028 128.379 37.7823H126.069C126.069 37.3746 126.069 36.9669 125.933 36.6951C125.661 36.4233 125.525 36.1514 125.254 36.0155C124.982 35.8796 124.574 35.8796 124.03 35.8796C123.623 35.8796 123.351 35.8796 123.079 36.0155C122.807 36.1514 122.535 36.4233 122.4 36.6951C122.264 36.9669 122.128 37.2387 121.992 37.6464C121.856 38.0542 121.856 38.5978 121.856 39.1414V39.9569C121.856 40.5005 121.856 40.9082 121.992 41.316C121.992 41.8596 122.128 42.1314 122.4 42.4032C122.535 42.675 122.807 42.9468 123.079 43.0828C123.351 43.2187 123.623 43.3546 124.03 43.3546C124.438 43.3546 124.846 43.2187 125.118 43.0828C125.39 42.9468 125.661 42.675 125.797 42.4032C125.933 42.1314 126.069 41.7237 126.069 41.316ZM131.913 34.2487V44.8496H129.739V34.2487H131.913ZM138.165 34.2487L134.088 40.5005H131.505L131.234 38.5978H133L135.583 34.2487H138.165ZM135.99 44.8496L133 40.0928L134.495 38.5978L138.573 44.8496H135.99ZM150.261 39.2773V39.821C150.261 40.6364 150.125 41.316 149.853 41.9955C149.717 42.675 149.309 43.2187 149.038 43.6264C148.63 44.0341 148.086 44.4418 147.543 44.7137C146.999 44.8496 146.319 44.9855 145.776 44.9855C145.096 44.9855 144.417 44.8496 143.873 44.7137C143.329 44.4418 142.786 44.0341 142.378 43.6264C142.106 43.2187 141.698 42.675 141.563 41.9955C141.291 41.316 141.155 40.6364 141.155 39.821V39.2773C141.155 38.4619 141.291 37.7823 141.563 37.1028C141.698 36.4233 141.97 35.8796 142.378 35.4719C142.786 35.0642 143.329 34.6565 143.873 34.3846C144.417 34.2487 144.96 34.1128 145.64 34.1128C146.319 34.1128 146.999 34.2487 147.543 34.3846C148.086 34.6565 148.494 35.0642 148.902 35.4719C149.309 35.8796 149.717 36.4233 149.853 37.1028C150.125 37.7823 150.261 38.4619 150.261 39.2773ZM147.95 39.821V39.2773C147.95 38.7337 147.95 38.1901 147.814 37.7823C147.814 37.3746 147.543 36.9669 147.407 36.6951C147.271 36.4233 146.999 36.1514 146.727 36.0155C146.455 35.8796 146.048 35.8796 145.64 35.8796C145.368 35.8796 144.96 35.8796 144.688 36.0155C144.417 36.1514 144.145 36.4233 144.009 36.6951C143.737 36.9669 143.601 37.3746 143.601 37.7823C143.465 38.1901 143.329 38.7337 143.329 39.2773V39.821C143.329 40.3646 143.465 40.9082 143.601 41.316C143.601 41.7237 143.737 42.1314 144.009 42.4032C144.145 42.675 144.417 42.9468 144.688 43.0828C144.96 43.2187 145.368 43.2187 145.776 43.2187C146.048 43.2187 146.455 43.2187 146.727 43.0828C146.999 42.9468 147.271 42.675 147.407 42.4032C147.678 42.1314 147.814 41.7237 147.814 41.316C147.95 40.9082 147.95 40.3646 147.95 39.821ZM153.93 41.4519L158.143 34.2487H160.318V44.8496H158.143V37.6464L153.93 44.8496H151.756V34.2487H153.93V41.4519ZM157.056 31.3947H158.551C158.551 31.8024 158.551 32.2101 158.279 32.6178C158.143 32.8896 157.872 33.1615 157.464 33.2974C157.056 33.5692 156.648 33.5692 156.105 33.5692C155.289 33.5692 154.61 33.4333 154.202 33.0256C153.794 32.6178 153.523 32.0742 153.523 31.3947H155.018C155.018 31.6665 155.153 31.9383 155.289 32.0742C155.425 32.346 155.697 32.4819 156.105 32.4819C156.512 32.4819 156.784 32.346 156.92 32.0742C157.056 31.9383 157.056 31.6665 157.056 31.3947Z" fill="white"/>
<path fill-rule="evenodd" clip-rule="evenodd" d="M21.9682 3.80543H23.1914L22.9196 2.31044L24.4145 2.44635V1.22317L22.9196 1.49499L23.1914 0H21.9682L22.24 1.49499L20.745 1.22317V2.44635L22.24 2.31044L21.9682 3.80543ZM22.1041 1.90271C22.1041 1.76681 22.1041 1.6309 22.24 1.49499C22.24 1.49499 22.3759 1.35908 22.5118 1.35908C22.6477 1.35908 22.7836 1.35908 22.7836 1.49499C22.9196 1.6309 22.9196 1.6309 22.9196 1.76681C22.9196 1.90271 22.9196 2.03862 22.7836 2.17453C22.6477 2.31044 22.6477 2.31044 22.5118 2.31044C22.3759 2.44635 22.24 2.31044 22.24 2.17453C22.1041 2.17453 22.1041 2.03862 22.1041 1.90271ZM22.3759 16.7167L20.4732 17.804L22.3759 18.7553L24.2786 17.804L22.3759 16.8526V16.7167ZM13.2701 29.3562C13.2701 29.3562 13.8137 29.2203 14.2214 29.7639H13.8137C13.5419 29.628 13.1342 29.4921 12.9983 29.3562C13.1342 29.3562 13.1342 29.3562 13.2701 29.3562ZM13.8137 28.9484C13.9496 29.0843 14.2214 29.2203 14.4932 29.4921V29.3562C14.3573 29.2203 14.0855 28.9484 13.9496 28.8125C13.9496 28.8125 13.8137 28.6766 13.5419 28.5407C13.5419 28.4048 13.5419 28.4048 13.5419 28.4048C13.6778 28.4048 13.9496 28.4048 14.2214 28.5407H14.0855C14.0855 28.5407 14.3573 28.6766 14.6292 29.3562L14.4932 29.4921C14.4932 29.628 14.3573 29.628 14.3573 29.628V29.7639C14.0855 29.2203 13.6778 29.2203 13.5419 29.2203C13.5419 29.0843 13.6778 28.9484 13.8137 28.9484ZM14.3573 27.9971C14.4932 28.4048 14.901 28.9484 15.0369 29.0843C14.901 29.0843 14.7651 29.2203 14.7651 29.2203C14.6292 28.8125 14.4932 28.5407 14.3573 28.4048L14.0855 27.9971H14.3573ZM14.7651 27.7253C14.7651 27.9971 15.0369 28.5407 15.1728 28.8125V28.9484C15.1728 28.9484 15.1728 28.9484 15.0369 28.9484C14.901 28.8125 14.7651 28.2689 14.6292 27.8612L14.7651 27.7253ZM15.3087 27.9971C15.3087 28.133 15.3087 28.133 15.3087 28.133C15.3087 28.4048 15.3087 28.6766 15.1728 28.8125C15.1728 28.5407 15.0369 28.133 15.0369 27.8612V27.7253L15.3087 27.9971ZM14.901 30.9871V31.123H14.7651V31.2589H14.6292H14.4932V31.123V30.9871V30.8512V30.7152V30.5793H14.6292H14.7651H14.901H15.0369V30.7152V30.8512H14.901L15.0369 30.9871H14.901ZM16.2601 27.8612C16.2601 27.8612 16.396 27.8612 16.5319 27.8612C16.2601 28.133 16.1241 28.4048 15.9882 28.6766C15.8523 28.6766 15.8523 28.6766 15.8523 28.6766C15.8523 28.6766 16.1241 28.2689 16.2601 27.8612ZM16.9396 27.8612C17.0755 27.8612 17.0755 27.8612 17.0755 27.8612C17.2114 27.8612 17.2114 27.7253 17.3473 27.7253C17.3473 27.7253 17.3473 27.7253 17.4832 27.5894C17.4832 27.7253 17.3473 27.8612 17.2114 27.9971C16.9396 28.133 16.396 28.4048 16.2601 28.6766C16.1241 28.6766 16.1241 28.6766 15.9882 28.6766C16.1241 28.4048 16.5319 27.9971 17.0755 27.9971L16.9396 27.8612ZM17.891 28.5407C17.891 28.6766 18.0269 28.6766 18.0269 28.6766C17.4832 28.6766 17.2114 28.9484 17.2114 28.9484C17.0755 28.9484 16.9396 28.8125 16.8037 28.8125C17.6191 28.4048 17.755 28.5407 17.891 28.5407ZM18.2987 28.8125C18.4346 28.8125 18.4346 28.8125 18.4346 28.8125C18.2987 28.8125 18.2987 28.9484 18.1628 28.9484H18.0269C17.755 29.0843 17.6191 29.0843 17.755 29.2203C17.6191 29.0843 17.4832 29.0843 17.3473 28.9484C17.3473 28.9484 17.755 28.8125 18.2987 28.8125ZM18.9782 29.628V29.7639C18.8423 29.628 18.5705 29.628 18.4346 29.628C18.2987 29.628 18.2987 29.4921 18.1628 29.3562C18.4346 29.3562 18.7064 29.4921 18.9782 29.628ZM18.9782 30.1716C18.8423 30.0357 18.7064 29.8998 18.7064 29.8998C18.7064 29.8998 18.8423 29.8998 18.9782 29.8998V30.1716ZM19.25 31.9384C19.3859 31.8025 19.5218 31.6666 19.5218 31.6666C19.5218 31.6666 19.5218 31.6666 19.6578 31.6666C19.6578 31.8025 19.6578 31.8025 19.6578 31.8025C19.6578 31.9384 19.6578 31.9384 19.6578 31.9384V32.0743L20.2014 31.9384C20.745 31.6666 20.8809 31.5307 21.1527 31.3948C21.4246 31.2589 21.5605 31.2589 21.6964 31.123H22.1041L22.5118 30.0357H22.6477C22.7836 30.0357 23.0555 30.1716 23.1914 30.3075C23.1914 30.7152 23.0555 30.9871 22.9196 31.123C22.9196 31.2589 22.7836 31.2589 22.6477 31.3948C22.6477 31.5307 22.5118 31.6666 22.3759 31.8025C22.24 31.8025 21.9682 31.9384 21.8323 32.0743C21.6964 32.0743 21.6964 32.2102 21.5605 32.2102C21.1527 32.3461 20.6091 32.3461 20.2014 32.3461C20.0655 32.3461 19.9296 32.3461 19.9296 32.4821C19.9296 32.4821 19.9296 32.4821 19.7937 32.4821C19.7937 32.4821 19.7937 32.618 19.5218 32.618C19.5218 32.7539 19.5218 32.7539 19.5218 32.7539C19.25 32.7539 18.9782 32.7539 18.7064 32.7539V32.618V32.4821C18.7064 32.4821 18.7064 32.4821 18.7064 32.3461C18.7064 32.3461 18.7064 32.3461 18.8423 32.3461C18.8423 32.2102 18.8423 32.2102 18.8423 32.2102H18.7064V32.0743H18.8423C18.8423 32.0743 18.7064 32.0743 18.7064 31.9384C18.7064 31.9384 18.7064 31.9384 18.8423 31.9384H19.25ZM19.1141 30.4434H19.25V31.2589V31.6666H19.1141L18.9782 30.3075L19.1141 30.4434ZM19.6578 30.4434C19.9296 30.5793 20.3373 30.7152 20.6091 30.7152C20.4732 30.8512 20.3373 30.8512 20.0655 30.8512C19.9296 30.8512 19.6578 30.8512 19.5218 30.9871L19.25 30.4434C19.3859 30.4434 19.5218 30.4434 19.6578 30.4434ZM19.25 30.3075H19.1141V29.8998C19.25 30.0357 19.5218 30.1716 19.6578 30.1716C19.5218 30.1716 19.5218 30.1716 19.5218 30.1716V30.3075C19.3859 30.3075 19.25 30.3075 19.25 30.3075ZM20.3373 31.6666C20.2014 31.8025 20.2014 31.8025 20.0655 31.9384C20.0655 31.8025 19.9296 31.6666 19.7937 31.5307C19.9296 31.5307 20.2014 31.5307 20.3373 31.6666ZM19.7937 31.3948C19.6578 31.2589 19.6578 31.123 19.6578 31.123V30.9871C19.6578 30.9871 19.7937 30.9871 19.9296 30.9871C19.9296 31.123 19.9296 31.123 19.9296 31.123C20.0655 31.123 20.0655 31.123 20.2014 31.123C20.4732 31.123 20.745 31.2589 21.0168 31.3948C20.8809 31.3948 20.745 31.5307 20.6091 31.5307C20.3373 31.3948 19.9296 31.3948 19.7937 31.3948ZM20.2014 30.0357C20.2014 30.0357 20.2014 30.0357 20.3373 30.0357H20.745C20.745 30.0357 20.8809 30.0357 21.0168 30.0357C21.1527 30.0357 21.4246 30.0357 21.5605 30.0357C21.5605 30.3075 21.5605 30.7152 21.6964 30.9871C21.5605 31.123 21.2887 31.2589 21.1527 31.2589C21.0168 31.2589 20.745 31.123 20.4732 31.123C20.745 30.9871 20.8809 30.9871 20.8809 30.8512C21.0168 30.7152 21.0168 30.7152 21.0168 30.7152H20.8809C20.4732 30.7152 20.0655 30.4434 19.7937 30.4434V30.3075C19.9296 30.3075 20.0655 30.1716 20.0655 30.1716C20.0655 30.1716 19.9296 30.0357 19.7937 30.0357C19.5218 30.0357 19.3859 29.8998 19.1141 29.628V28.4048C19.3859 29.4921 19.7937 30.0357 20.2014 30.0357ZM21.1527 28.8125C21.2887 28.6766 21.4246 28.4048 21.5605 28.4048C21.8323 28.2689 22.1041 28.2689 22.24 28.133L22.1041 28.4048C21.9682 28.5407 21.6964 28.9484 21.6964 29.3562C21.6964 29.3562 21.5605 29.4921 21.5605 29.628C21.4246 29.628 21.0168 29.4921 21.1527 28.8125ZM21.9682 27.5894V27.4535C21.9682 27.3175 21.9682 27.1816 21.8323 27.0457C21.6964 27.0457 21.6964 26.9098 21.6964 26.9098H21.8323C21.8323 26.9098 21.8323 26.9098 21.8323 27.0457C21.8323 27.0457 21.8323 27.0457 21.9682 27.0457C22.1041 27.3175 22.1041 27.3175 22.1041 27.0457C22.1041 26.9098 22.1041 26.9098 22.1041 26.9098C21.9682 26.9098 21.9682 26.9098 21.9682 26.9098C22.1041 26.7739 22.1041 26.7739 21.9682 26.7739C21.8323 26.7739 21.8323 26.7739 21.6964 26.7739C21.6964 26.638 21.6964 26.638 21.6964 26.5021C21.6964 26.638 21.8323 26.638 21.8323 26.638C22.24 26.638 22.5118 26.5021 22.9196 26.3662C22.9196 26.638 23.0555 27.0457 23.1914 27.1816C22.6477 27.9971 22.3759 27.9971 22.24 27.8612C22.1041 27.7253 22.1041 27.5894 21.9682 27.5894ZM22.9196 28.2689C22.6477 28.4048 22.5118 28.4048 22.3759 28.133V28.2689L22.5118 27.9971C22.6477 27.9971 22.7836 27.9971 22.9196 27.8612C23.0555 27.9971 23.1914 27.9971 23.3273 28.133C23.1914 28.133 23.0555 28.2689 22.9196 28.2689ZM22.3759 29.8998L21.9682 30.9871C21.8323 30.4434 21.6964 29.8998 21.8323 29.3562C21.8323 29.2203 21.9682 28.9484 21.9682 28.8125C22.1041 28.6766 22.1041 28.5407 22.1041 28.4048L22.24 28.2689C22.3759 28.4048 22.5118 28.5407 22.7836 28.5407H22.6477C22.6477 28.5407 22.24 29.0843 22.24 29.3562C22.1041 29.628 22.24 29.8998 22.3759 29.8998ZM23.5991 28.4048C23.735 28.4048 23.735 28.4048 23.8709 28.4048C24.1427 28.6766 24.2786 29.3562 24.4145 29.628C24.4145 30.0357 24.2786 30.1716 24.0068 30.1716C23.8709 30.3075 23.8709 30.3075 23.735 30.3075C23.5991 30.3075 23.5991 30.3075 23.5991 30.3075H23.4632C23.3273 30.1716 22.9196 29.7639 22.6477 29.8998C22.5118 29.8998 22.5118 29.7639 22.5118 29.7639C22.5118 29.7639 22.5118 29.628 22.5118 29.4921C22.5118 29.0843 22.7836 28.6766 22.9196 28.5407L23.0555 28.4048H23.1914C23.3273 28.4048 23.4632 28.4048 23.5991 28.4048ZM22.7836 32.4821L22.3759 32.0743C22.3759 32.0743 22.3759 32.0743 22.5118 32.0743V31.9384C22.5118 31.8025 22.6477 31.6666 22.7836 31.5307L22.9196 31.3948C22.9196 31.3948 23.0555 31.3948 23.0555 31.2589L23.1914 32.2102L22.7836 32.4821ZM21.0168 33.4334L20.745 33.1616L21.8323 32.4821H21.9682L21.0168 33.4334ZM20.4732 32.7539C20.745 32.7539 21.0168 32.7539 21.2887 32.618L20.745 33.0257L20.4732 32.7539ZM16.6678 28.8125C16.5319 28.8125 16.396 28.8125 16.2601 28.6766C16.396 28.5407 16.8037 28.4048 17.0755 28.2689C16.9396 28.4048 16.8037 28.6766 16.6678 28.8125ZM28.4918 28.5407L30.1227 28.9484C29.5791 29.0843 28.7636 29.3562 28.4918 28.9484C28.4918 28.8125 28.4918 28.6766 28.4918 28.5407ZM22.5118 38.8697C22.5118 39.0056 22.5118 39.1416 22.5118 39.1416C22.6477 39.2775 22.6477 39.2775 22.6477 39.4134C22.5118 39.5493 22.3759 39.6852 22.24 39.6852C22.1041 39.6852 22.1041 39.6852 21.9682 39.6852C21.8323 39.4134 21.5605 39.2775 21.4246 39.2775V39.1416C21.4246 39.0056 21.2887 38.7338 21.1527 38.462C21.0168 38.1902 20.745 37.5107 20.6091 36.967C20.745 36.8311 20.8809 36.967 21.0168 36.967H21.1527C21.4246 36.967 21.8323 36.967 22.1041 37.2388C22.1041 37.9184 22.1041 38.1902 22.24 38.462V38.5979C22.24 38.5979 22.3759 38.7338 22.5118 38.8697ZM22.24 37.7825C22.24 37.7825 23.4632 37.9184 24.5505 37.3747C25.3659 36.967 26.3173 35.7438 26.3173 34.2489H26.4532C26.4532 34.2489 26.5891 34.2489 26.725 34.113C26.725 34.113 26.8609 34.113 26.9968 34.113H27.1327V34.2489C26.9968 34.3848 26.725 34.5207 26.4532 34.5207C26.4532 34.6566 26.4532 34.6566 26.4532 34.7925V34.9284C26.5891 34.9284 26.9968 34.7925 26.9968 34.7925V35.0643L26.3173 35.2002C26.3173 35.2002 26.3173 35.3361 26.1814 35.3361C26.1814 35.472 26.1814 35.472 26.1814 35.472C26.4532 35.472 26.9968 35.472 26.9968 35.472V35.6079L26.8609 35.7438C26.5891 35.8798 26.4532 35.7438 26.3173 35.6079H26.1814C26.1814 35.7438 26.1814 35.7438 26.0454 35.8798C26.0454 36.0157 26.0454 36.0157 26.0454 36.1516H26.5891V36.4234L26.3173 36.5593L25.7736 36.2875C25.7736 36.5593 25.6377 36.5593 25.5018 36.6952C25.9095 36.8311 26.1814 36.967 26.1814 36.967L25.9095 37.1029L25.7736 37.2388L25.3659 36.8311C25.3659 36.967 25.23 36.967 25.23 37.1029L25.0941 37.2388L25.6377 37.5107L25.3659 37.6466L25.23 37.7825C24.9582 37.5107 24.9582 37.3747 24.9582 37.3747C24.8223 37.3747 24.6864 37.5107 24.5505 37.5107C24.5505 37.6466 24.5505 37.6466 24.4145 37.6466L24.5505 37.7825L24.6864 37.9184L24.4145 38.0543L24.2786 37.9184L24.1427 37.6466L24.0068 37.7825C23.8709 37.7825 23.8709 37.7825 23.735 37.7825C23.8709 37.9184 24.0068 38.0543 24.0068 38.0543V38.1902H23.8709C23.735 38.0543 23.735 38.0543 23.735 38.0543C23.5991 37.9184 23.5991 37.9184 23.5991 37.7825C23.4632 37.9184 23.4632 37.9184 23.4632 37.9184C23.3273 37.9184 23.3273 37.9184 23.1914 37.9184L23.4632 38.1902L23.3273 38.3261H23.1914L23.0555 38.1902C23.0555 38.1902 23.0555 38.0543 23.0555 37.9184C22.9196 37.9184 22.9196 38.0543 22.7836 38.0543H22.6477C22.6477 38.1902 22.7836 38.3261 22.7836 38.3261H22.6477L22.5118 38.1902C22.5118 38.0543 22.5118 38.0543 22.5118 38.0543C22.5118 38.0543 22.5118 38.0543 22.5118 37.9184C22.3759 37.9184 22.3759 37.9184 22.3759 37.9184H22.24V37.7825ZM21.6964 39.957C21.5605 39.957 21.5605 39.957 21.5605 40.0929C21.4246 40.0929 21.4246 40.2288 21.2887 40.2288C21.1527 40.2288 21.0168 40.3647 20.745 40.3647C20.745 40.3647 20.745 40.3647 20.745 40.2288C20.6091 40.2288 20.6091 40.2288 20.745 40.0929C20.745 40.0929 20.8809 39.957 21.0168 39.8211C21.0168 39.8211 21.1527 39.5493 21.2887 39.4134C21.4246 39.4134 21.6964 39.5493 21.8323 39.8211C21.6964 39.8211 21.6964 39.957 21.6964 39.957ZM13.8137 29.8998C14.0855 29.8998 14.2214 29.7639 14.3573 29.7639C14.2214 30.0357 13.9496 30.4434 13.9496 30.8512C13.9496 30.8512 13.9496 30.8512 13.9496 30.9871C13.9496 30.9871 14.0855 31.123 14.0855 31.2589C13.9496 31.6666 13.9496 32.0743 13.8137 32.4821C13.8137 32.8898 13.6778 33.1616 13.6778 33.4334L14.0855 33.7052C14.0855 33.7052 14.0855 33.977 14.0855 34.113C14.2214 34.2489 14.3573 34.2489 14.4932 34.2489C14.6292 34.2489 14.7651 34.2489 14.901 34.113C15.0369 34.113 15.1728 34.113 15.3087 34.113V33.977C15.4446 33.977 15.4446 33.8411 15.5805 33.8411V33.7052C15.5805 33.7052 15.5805 33.7052 15.7164 33.7052C15.5805 33.4334 15.5805 33.1616 15.5805 33.0257C15.8523 33.2975 16.2601 33.7052 16.9396 33.8411C16.8037 33.977 16.8037 34.3848 16.5319 34.7925C16.2601 35.0643 16.2601 35.2002 16.1241 35.472C16.1241 35.472 15.9882 35.472 15.9882 35.6079C16.2601 35.8798 17.755 36.5593 19.3859 36.2875L19.25 33.977C18.9782 34.113 18.7064 34.113 18.4346 34.113C17.755 34.113 17.2114 33.977 17.0755 33.8411C16.9396 33.8411 16.9396 33.8411 16.9396 33.8411V33.5693C16.2601 33.4334 15.8523 33.0257 15.7164 32.7539C15.8523 32.618 16.2601 32.3461 16.396 32.2102C17.0755 31.6666 16.9396 31.5307 16.9396 31.5307C16.9396 31.5307 16.9396 31.3948 17.0755 31.3948C17.2114 31.123 17.2114 33.2975 17.0755 33.7052C17.0755 33.7052 17.891 33.977 19.25 33.8411V33.0257H19.3859C19.3859 33.1616 19.3859 33.4334 19.5218 33.8411C19.9296 33.7052 20.3373 33.5693 20.8809 33.4334V33.5693C20.3373 33.8411 19.9296 33.8411 19.5218 33.977C19.5218 34.6566 19.6578 35.7438 19.6578 36.1516C19.7937 36.1516 19.7937 36.1516 19.9296 36.1516C20.0655 36.0157 20.0655 36.0157 20.2014 36.0157V35.8798C20.2014 35.7438 20.0655 35.6079 20.2014 35.472C20.2014 35.2002 20.4732 34.7925 20.745 34.3848C20.8809 34.5207 20.8809 34.5207 21.0168 34.5207C21.2887 34.7925 21.8323 35.0643 22.24 35.3361C22.1041 35.3361 22.1041 35.3361 22.1041 35.3361C21.8323 35.472 21.8323 35.472 21.6964 35.6079C21.6964 35.6079 22.1041 35.8798 22.1041 36.8311C21.8323 36.6952 21.4246 36.6952 21.0168 36.8311C21.0168 36.8311 20.745 36.6952 20.6091 36.8311C20.4732 36.6952 20.4732 36.5593 20.3373 36.4234C20.3373 36.4234 20.3373 36.1516 20.2014 36.0157C20.2014 36.1516 20.2014 36.1516 20.0655 36.1516C19.9296 36.1516 19.7937 36.2875 19.6578 36.2875C19.6578 36.4234 19.6578 36.5593 19.6578 36.5593C19.7937 37.2388 19.9296 39.2775 19.9296 39.6852H19.6578L19.9296 42.947L19.6578 43.2188L20.0655 44.1702L20.3373 43.2188L20.0655 42.947L19.9296 39.6852L20.8809 39.8211C20.745 39.8211 20.745 39.957 20.6091 39.957C20.6091 40.0929 20.6091 40.0929 20.6091 40.0929C20.4732 40.2288 20.4732 40.3647 20.6091 40.3647C20.6091 40.5006 20.745 40.5006 20.8809 40.5006C21.0168 40.5006 21.2887 40.5006 21.4246 40.3647C21.4246 40.3647 21.5605 40.2288 21.6964 40.2288C21.6964 40.0929 21.6964 40.0929 21.8323 40.0929C21.9682 39.957 22.1041 39.8211 22.24 39.8211C22.3759 39.8211 22.7836 39.6852 22.9196 39.5493C24.4145 39.5493 25.9095 38.7338 25.9095 38.7338C26.5891 40.2288 27.6763 40.9084 27.6763 40.9084C29.3072 41.7238 29.1713 42.5393 29.1713 43.4906C29.0354 43.4906 29.0354 43.6265 29.0354 43.6265C29.0354 44.442 28.0841 45.2574 28.0841 45.2574L28.8995 45.6651L29.0354 45.3933L29.4431 45.2574C29.5791 43.3547 30.1227 42.6752 30.3945 42.4033C30.6663 42.1315 30.3945 41.9956 30.3945 41.9956C30.3945 41.9956 29.1713 40.7725 29.9868 39.1416C30.9381 36.6952 30.8022 34.9284 29.4431 34.113C28.22 33.2975 26.5891 33.8411 26.1814 33.977C26.0454 33.977 26.0454 33.977 26.0454 33.977L25.7736 34.113L24.2786 35.3361L24.1427 34.9284L22.7836 35.6079V35.2002L22.6477 35.0643C22.1041 34.9284 21.2887 34.5207 20.8809 34.2489C21.0168 34.113 21.1527 33.977 21.1527 33.8411L21.4246 34.2489L22.24 33.1616H22.3759L21.6964 34.3848L22.5118 34.7925L23.0555 33.2975V33.1616V34.7925L23.8709 34.5207L23.735 32.8898L24.5505 34.6566L25.3659 34.113L25.7736 33.8411C25.5018 33.7052 25.23 33.4334 25.23 33.2975C25.23 33.2975 24.9582 33.0257 24.6864 32.3461L24.0068 32.618H24.1427C24.2786 32.8898 24.5505 33.1616 24.6864 33.4334C24.6864 33.4334 24.8223 33.7052 25.23 33.977L24.5505 34.5207L23.8709 32.7539L23.4632 32.8898L23.5991 34.5207L23.1914 34.6566V33.0257L22.7836 33.1616L22.3759 34.5207L21.8323 34.2489L22.5118 33.1616L22.24 32.8898L21.4246 33.8411L21.1527 33.5693L21.9682 32.618L22.7836 33.1616L24.0068 32.618L23.8709 32.4821L22.7836 32.8898L21.9682 32.3461C21.9682 32.3461 21.9682 32.3461 22.1041 32.2102L22.7836 32.618L23.735 32.2102V32.0743L23.3273 32.2102L23.1914 31.123C23.3273 30.9871 23.4632 30.7152 23.5991 30.4434L23.735 32.0743L24.5505 31.5307C24.5505 31.2589 24.6864 31.123 24.6864 30.8512C24.6864 30.7152 24.6864 30.7152 24.6864 30.5793C25.6377 31.123 28.22 32.3461 28.22 32.0743V31.9384C28.22 31.6666 28.22 31.5307 28.4918 31.3948C28.4918 31.3948 28.6277 31.3948 28.7636 31.3948C28.8995 31.5307 28.8995 31.5307 29.0354 31.5307C29.3072 31.3948 29.5791 30.9871 29.4431 30.9871C29.3072 30.9871 29.3072 30.8512 29.3072 30.8512C27.6763 30.8512 25.5018 29.8998 24.5505 29.2203C25.5018 29.7639 27.5404 30.7152 29.0354 30.7152C29.0354 30.5793 29.1713 30.5793 29.3072 30.4434C29.4431 30.1716 29.715 30.1716 29.9868 30.0357H30.1227H30.2586C30.5304 29.8998 30.6663 29.8998 30.9381 29.628C31.21 29.3562 31.074 28.9484 30.9381 28.8125L28.6277 28.2689V28.4048C28.7636 28.133 28.8995 27.9971 28.8995 27.8612C29.3072 27.5894 29.1713 27.3175 29.1713 27.3175H29.0354C28.4918 27.3175 27.2686 28.2689 26.725 29.2203C26.725 29.2203 26.0454 28.6766 24.1427 28.2689C24.0068 28.2689 24.0068 28.2689 24.0068 28.2689C24.0068 28.2689 24.0068 28.2689 23.5991 28.133C23.735 28.133 23.8709 28.133 23.8709 28.133C25.6377 28.4048 26.5891 28.6766 26.725 28.8125C27.1327 28.133 27.8122 27.5894 28.4918 27.3175C28.22 27.3175 27.6763 27.4535 27.2686 27.4535C26.8609 27.4535 26.4532 27.5894 26.0454 27.5894L23.8709 27.8612C23.735 27.8612 23.5991 27.5894 23.4632 27.4535C23.5991 27.4535 23.5991 27.4535 23.5991 27.4535H23.735V27.3175C23.5991 27.1816 23.735 26.9098 23.735 26.7739C23.735 26.638 23.735 26.5021 23.8709 26.2303C23.8709 26.2303 23.735 26.0944 23.735 25.9585H23.8709C23.8709 26.0944 23.8709 26.0944 23.8709 26.2303C23.8709 26.3662 23.8709 26.5021 23.8709 26.638C24.1427 27.1816 24.6864 27.1816 25.0941 26.7739C25.0941 26.638 25.23 26.638 25.23 26.638C25.3659 26.3662 25.6377 26.0944 25.7736 26.3662C25.7736 26.5021 25.9095 26.5021 26.0454 26.638C26.1814 26.638 26.3173 26.5021 26.4532 26.3662C26.1814 26.638 26.0454 26.5021 26.0454 26.2303C26.0454 26.2303 25.9095 26.2303 25.9095 26.0944C25.7736 25.9585 25.6377 25.8226 25.3659 26.0944C25.23 26.0944 25.0941 26.2303 25.0941 26.3662C24.9582 26.3662 24.9582 26.5021 24.9582 26.5021C24.6864 26.7739 24.2786 26.638 24.2786 25.9585C24.4145 25.2789 24.4145 25.143 24.1427 24.7353C23.735 24.1917 23.1914 24.0557 22.3759 24.3276L22.5118 24.4635C22.6477 24.4635 22.6477 24.5994 22.6477 24.7353C22.5118 24.7353 22.5118 24.8712 22.5118 24.8712C21.8323 25.0071 21.4246 25.5507 21.4246 26.5021C21.4246 26.638 21.4246 26.7739 21.5605 26.9098C21.5605 27.0457 21.5605 27.0457 21.5605 27.0457V27.1816C21.8323 27.3175 21.8323 27.4535 21.8323 27.5894C21.8323 27.5894 21.8323 27.7253 21.9682 27.7253C21.9682 27.8612 21.9682 27.8612 22.1041 27.9971C21.9682 27.9971 21.6964 28.133 21.5605 28.2689C21.4246 28.4048 21.1527 28.5407 21.1527 28.6766H21.0168C20.8809 28.6766 20.8809 28.6766 20.8809 28.6766C20.6091 28.8125 20.4732 28.8125 20.3373 28.6766C20.3373 28.5407 20.2014 28.2689 20.0655 28.133C20.0655 27.9971 19.9296 27.9971 19.9296 27.8612C19.7937 27.5894 19.5218 27.3175 19.5218 27.1816C19.5218 27.0457 19.5218 26.9098 19.5218 26.5021C19.5218 26.5021 19.25 26.2303 19.1141 26.2303H18.9782V24.5994L19.25 25.0071L19.3859 24.8712L18.8423 24.3276V23.5121H19.5218V23.3762H18.8423V23.1044H19.25L19.1141 22.9685H18.8423V22.4248H18.7064V22.9685H18.2987V23.1044H18.7064V23.3762H18.1628H18.0269V23.5121H18.7064V24.0557L18.4346 23.648L18.2987 23.9198L18.7064 24.3276L18.8423 26.3662H18.9782H19.1141C19.1141 26.3662 19.25 26.5021 19.25 26.638C19.3859 26.7739 19.3859 27.0457 19.3859 27.0457C19.3859 27.1816 19.3859 27.1816 19.3859 27.1816C19.3859 27.3175 19.5218 27.5894 19.6578 27.9971C19.9296 28.133 20.0655 28.5407 20.2014 28.8125C20.3373 28.9484 20.3373 28.9484 20.4732 28.9484C20.6091 28.9484 20.745 28.9484 21.0168 28.9484V28.8125C21.0168 29.3562 21.1527 29.628 21.2887 29.7639C21.0168 29.7639 20.8809 29.7639 20.745 29.7639C20.4732 29.7639 20.3373 29.7639 20.2014 29.8998C19.7937 29.8998 19.3859 28.9484 18.9782 27.8612V27.4535H18.8423C18.8423 27.4535 18.8423 27.3175 18.7064 27.3175C18.8423 27.3175 18.9782 27.1816 18.9782 27.1816C18.9782 27.0457 18.8423 27.0457 18.7064 27.0457C18.8423 27.0457 18.9782 27.0457 18.9782 26.9098H18.5705L18.7064 26.7739H18.9782C18.9782 26.7739 18.9782 26.7739 18.9782 26.638H18.7064C18.7064 26.638 18.8423 26.638 18.9782 26.638C19.1141 26.638 19.1141 26.638 19.1141 26.638C19.1141 26.5021 18.9782 26.5021 18.8423 26.5021H18.7064V26.3662C18.7064 26.3662 18.7064 26.5021 18.5705 26.3662C18.5705 26.5021 18.5705 26.5021 18.5705 26.638C18.4346 26.638 18.4346 26.7739 18.4346 26.7739C18.2987 27.3175 18.5705 27.4535 18.8423 27.5894V27.4535L18.9782 29.3562C18.7064 29.2203 18.5705 29.0843 18.2987 29.0843C18.7064 28.9484 18.7064 28.9484 18.7064 28.8125V28.6766C18.2987 28.6766 18.1628 28.5407 18.0269 28.4048C17.755 28.2689 17.6191 28.2689 17.2114 28.4048C17.755 27.8612 17.4832 27.4535 17.4832 27.4535L17.3473 27.3175V27.4535C17.3473 27.4535 17.2114 27.5894 17.0755 27.5894C17.0755 27.7253 17.0755 27.7253 16.9396 27.7253H16.2601C16.2601 27.5894 16.2601 27.5894 16.1241 27.4535V27.3175H15.9882C15.8523 27.1816 15.4446 27.5894 15.3087 27.7253V27.8612L14.7651 27.3175L14.3573 27.8612H13.6778L14.0855 28.2689C13.8137 28.2689 13.5419 28.2689 13.406 28.4048C13.2701 28.4048 13.2701 28.4048 13.2701 28.5407V28.6766C13.406 28.6766 13.406 28.6766 13.406 28.6766C13.5419 28.8125 13.6778 28.8125 13.6778 28.9484C13.5419 28.9484 13.406 28.9484 13.2701 29.0843C13.1342 29.2203 12.9983 29.2203 12.8623 29.2203V29.3562C12.8623 29.3562 12.8623 29.3562 12.8623 29.4921C12.9983 29.628 13.406 29.8998 13.8137 29.8998ZM11.0955 40.6365C11.0955 40.7725 11.2315 40.7725 11.2315 40.7725C11.5033 40.6365 11.6392 40.3647 11.7751 40.0929C11.911 40.0929 12.0469 39.957 12.0469 39.8211C12.1828 39.6852 12.1828 39.6852 12.0469 39.6852C12.1828 39.4134 12.0469 39.2775 11.911 39.1416V39.0056C11.7751 39.0056 11.7751 38.8697 12.0469 38.462C12.0469 38.462 12.0469 38.462 12.0469 38.3261C12.0469 37.7825 12.3187 37.3747 12.5905 36.8311V36.6952V36.5593H12.7264C12.7264 36.4234 12.7264 36.2875 12.9983 36.2875C13.5419 37.1029 13.9496 37.6466 14.7651 38.1902C14.7651 38.1902 14.901 38.3261 15.0369 38.3261C15.1728 38.3261 15.5805 38.3261 15.7164 38.1902C15.8523 38.3261 15.8523 38.462 15.9882 38.462C16.1241 38.7338 15.7164 38.7338 15.3087 38.8697C15.1728 38.8697 15.0369 38.8697 15.0369 38.8697C14.6292 39.0056 14.2214 39.0056 13.8137 39.0056C13.2701 39.0056 13.2701 39.1416 13.2701 39.4134C12.8623 40.2288 12.5905 40.9084 12.1828 41.452C11.911 41.7238 11.7751 41.8597 11.6392 42.1315C11.5033 42.1315 11.5033 42.2674 11.5033 42.2674C11.5033 42.2674 11.5033 42.4033 11.6392 42.4033C11.6392 42.5393 11.6392 42.5393 11.5033 42.6752C11.5033 42.6752 11.5033 42.6752 11.5033 42.8111C11.3674 43.2188 11.2315 43.4906 11.2315 43.8983C11.2315 44.0342 11.2315 44.0342 11.2315 44.1702C11.0955 44.442 11.0955 44.7138 11.0955 44.7138C11.2315 44.7138 12.1828 44.5779 12.1828 44.442C12.1828 44.3061 12.1828 44.0342 12.1828 44.0342V43.3547V43.2188C12.1828 43.0829 12.1828 43.0829 12.1828 43.0829C12.5905 42.947 12.7264 42.6752 12.5905 42.2674C12.5905 41.9956 12.7264 41.7238 12.9983 41.452C13.2701 41.0443 13.406 40.7725 13.5419 40.5006C13.6778 40.5006 13.6778 40.3647 13.8137 40.3647C13.9496 40.2288 13.9496 40.2288 14.0855 40.0929C14.2214 40.0929 14.4932 40.0929 14.6292 40.0929C15.7164 40.3647 17.0755 40.5006 18.2987 40.3647C18.4346 40.5006 18.4346 40.3647 18.4346 40.2288C18.4346 40.0929 18.4346 39.8211 18.5705 39.8211C18.7064 39.6852 19.3859 39.6852 19.5218 39.6852L19.25 36.4234C18.9782 36.4234 18.5705 36.4234 18.2987 36.4234C17.0755 36.4234 16.2601 36.1516 15.8523 35.8798C15.7164 36.2875 15.5805 36.5593 15.5805 36.6952V36.8311C15.1728 36.5593 14.3573 36.0157 13.8137 35.8798C13.5419 35.6079 13.2701 35.3361 12.9983 35.0643C12.9983 35.0643 12.9983 35.0643 12.8623 35.0643C12.7264 35.0643 12.4546 35.2002 12.3187 35.2002L12.1828 35.3361C12.0469 35.8798 11.911 36.2875 11.7751 36.6952C11.6392 37.1029 11.5033 37.3747 11.3674 37.6466C11.0955 37.9184 10.8237 38.3261 11.0955 38.5979C11.0955 38.7338 11.0955 38.7338 11.0955 38.8697C11.0955 39.0056 11.0955 39.0056 11.0955 39.0056C11.0955 39.1416 11.0955 39.1416 11.0955 39.2775C11.0955 39.4134 10.9596 39.5493 10.9596 39.6852V39.957C10.9596 40.2288 10.9596 40.3647 11.0955 40.5006C11.0955 40.6365 11.0955 40.6365 11.0955 40.6365ZM30.2586 33.977C29.9868 34.2489 29.8509 34.2489 29.8509 34.2489L30.1227 34.5207C30.9381 33.977 32.569 33.8411 32.2972 35.3361C31.8895 36.967 31.4818 38.8697 32.9768 39.0056C32.7049 38.5979 32.7049 38.1902 32.8409 37.7825C32.9768 37.3747 33.2486 36.8311 33.3845 36.5593C33.5204 36.4234 33.6563 36.2875 33.6563 36.1516C34.1999 34.7925 34.1999 33.1616 32.569 32.7539C31.4818 32.618 30.8022 33.4334 30.3945 33.8411C30.3945 33.977 30.2586 33.977 30.2586 33.977ZM27.4045 41.1802C27.4045 41.8597 27.5404 42.4033 27.8122 42.947C27.4045 43.2188 27.2686 43.6265 26.9968 44.5779C27.1327 44.8497 26.9968 44.9856 26.725 44.9856C26.5891 44.9856 25.9095 44.8497 25.9095 44.8497C26.0454 44.442 26.1814 44.3061 26.3173 44.1702L26.4532 44.0342C26.725 43.3547 26.8609 42.8111 26.4532 42.2674C26.4532 42.2674 26.4532 42.1315 26.3173 42.1315C26.3173 41.9956 26.3173 41.9956 26.3173 41.9956C26.0454 41.5879 25.7736 41.452 25.5018 41.3161C25.3659 41.1802 25.3659 41.1802 25.23 41.0443C24.9582 40.7725 24.6864 40.5006 24.6864 40.0929L24.5505 39.6852C24.5505 39.6852 24.8223 39.6852 25.0941 39.5493C25.5018 39.2775 25.7736 39.1416 25.7736 39.1416C26.1814 40.0929 26.8609 40.6365 27.1327 40.9084C27.2686 41.0443 27.4045 41.1802 27.4045 41.1802ZM25.3659 17.9399C25.3659 17.6681 25.6377 17.3962 25.9095 17.3962C26.1814 17.3962 26.4532 17.6681 26.4532 17.9399C26.5891 18.2117 26.3173 18.4835 25.9095 18.4835C25.6377 18.4835 25.3659 18.2117 25.3659 17.9399ZM27.5404 17.9399C27.5404 18.0758 27.6763 18.0758 27.6763 18.2117C27.8122 18.3476 27.9482 18.4835 28.0841 18.4835C28.3559 18.4835 28.6277 18.2117 28.6277 17.9399C28.6277 17.6681 28.3559 17.3962 28.0841 17.3962C27.8122 17.3962 27.5404 17.6681 27.5404 17.9399ZM17.0755 18.4835C16.8037 18.4835 16.5319 18.2117 16.5319 17.9399C16.5319 17.6681 16.8037 17.3962 17.0755 17.3962C17.3473 17.3962 17.6191 17.6681 17.6191 17.9399C17.6191 18.2117 17.3473 18.4835 17.0755 18.4835ZM18.5705 17.9399C18.5705 18.0758 18.7064 18.2117 18.7064 18.2117C18.8423 18.3476 18.9782 18.4835 19.1141 18.4835C19.3859 18.4835 19.6578 18.2117 19.6578 17.9399C19.6578 17.6681 19.3859 17.3962 19.1141 17.3962C18.8423 17.3962 18.5705 17.6681 18.5705 17.9399ZM20.0655 45.5292H19.9296C19.7937 45.6651 19.3859 45.937 19.3859 45.937C19.7937 46.0729 19.9296 45.937 20.2014 45.937C20.4732 45.8011 20.745 45.2574 20.745 45.2574C20.6091 45.2574 20.4732 45.3933 20.3373 45.5292C20.2014 45.5292 20.2014 45.5292 20.0655 45.5292ZM11.911 50.0142C11.5033 50.0142 11.3674 50.4219 11.3674 50.4219C11.2315 50.0142 11.7751 49.7424 11.7751 49.7424C11.5033 49.7424 10.9596 50.0142 10.9596 50.0142C11.0955 49.6065 11.7751 49.4706 11.7751 49.4706L11.2315 49.3347C11.2315 49.3347 11.7751 48.9269 12.4546 48.9269C13.1342 48.9269 13.5419 49.0628 13.6778 49.1988C13.8137 49.1988 13.8137 49.3347 13.9496 49.3347C13.9496 49.3347 14.0855 49.3347 14.0855 49.1988C14.3573 49.1988 14.7651 49.1988 15.0369 49.1988C15.5805 49.1988 16.1241 49.3347 16.1241 49.3347C16.2601 49.0628 16.2601 48.791 16.2601 48.791C16.1241 48.791 15.8523 48.9269 15.5805 48.9269C15.3087 48.791 14.3573 47.9756 14.0855 47.7038C13.9496 47.5679 13.8137 47.432 13.6778 47.432C13.6778 47.432 13.6778 47.432 13.6778 47.5679C13.5419 47.5679 13.5419 47.5679 13.406 47.7038C13.2701 47.7038 13.2701 47.5679 13.1342 47.5679C12.9983 47.432 12.8623 47.432 12.7264 47.432C12.4546 47.296 12.1828 47.432 12.1828 47.432L12.3187 47.1601C12.0469 47.1601 11.6392 47.432 11.6392 47.432C11.7751 47.1601 12.0469 47.0242 12.0469 47.0242H11.7751C11.911 46.7524 12.1828 46.6165 12.8623 46.4806C13.5419 46.4806 13.9496 46.6165 14.2214 46.7524C14.3573 46.7524 14.7651 47.0242 15.1728 47.296C15.0369 46.8883 15.0369 46.4806 15.1728 46.0729C15.3087 45.1215 16.2601 44.3061 17.2114 44.442C17.6191 44.5779 18.1628 44.8497 18.4346 44.9856C19.6578 44.5779 19.1141 43.7624 19.1141 43.7624C19.6578 44.0342 19.6578 44.3061 19.6578 44.5779H19.7937C20.0655 44.442 20.4732 44.1702 20.745 43.6265L20.4732 43.4906L21.0168 43.0829V43.7624L20.8809 43.6265C20.8809 43.6265 20.745 43.8983 20.4732 44.3061C20.6091 44.1702 20.8809 44.1702 21.1527 44.0342C21.4246 43.8983 21.8323 43.7624 21.8323 43.6265C21.9682 43.6265 22.1041 43.8983 22.24 43.8983V44.0342C22.24 44.0342 22.5118 43.8983 22.6477 44.0342C22.7836 44.0342 22.9196 44.3061 22.9196 44.3061C22.24 44.7138 21.6964 45.2574 21.5605 45.3933C21.4246 45.5292 21.1527 45.8011 21.1527 45.937C21.1527 46.0729 21.1527 46.2088 21.1527 46.2088C21.0168 46.7524 20.4732 46.6165 20.4732 46.6165L20.745 46.7524C20.3373 47.0242 19.7937 47.0242 19.7937 47.0242C19.5218 47.1601 19.25 47.1601 18.8423 47.0242C18.8423 47.0242 18.8423 47.0242 18.7064 47.0242C19.25 47.296 20.0655 47.296 20.6091 47.296C21.5605 47.1601 21.9682 46.7524 22.5118 46.3447C23.0555 45.937 23.5991 45.5292 24.8223 45.2574C26.1814 44.9856 27.2686 45.3933 28.6277 46.2088C29.9868 47.1601 31.4818 47.5679 31.8895 46.7524C32.2972 46.2088 32.1613 45.6651 31.8895 44.7138C31.7536 44.5779 31.7536 44.442 31.6177 44.3061C31.4818 43.7624 31.3459 43.2188 31.3459 42.6752C31.4818 41.9956 31.8895 41.3161 32.7049 41.1802C33.1127 41.0443 33.5204 41.1802 33.7922 41.3161C34.1999 41.452 34.4717 41.9956 34.4717 42.1315C34.4717 42.2674 34.4717 42.2674 34.4717 42.2674C34.6077 42.2674 34.6077 42.8111 34.4717 43.0829C34.3358 43.3547 33.9281 43.8983 33.9281 43.8983C33.7922 43.4906 33.6563 43.3547 33.5204 43.2188C33.3845 42.947 33.2486 42.947 33.2486 42.6752C33.3845 42.2674 33.9281 42.2674 33.9281 42.2674C33.7922 42.1315 33.6563 41.8597 33.2486 41.7238C32.7049 41.7238 32.1613 41.9956 32.1613 42.8111C32.1613 43.3547 32.569 44.1702 32.8409 44.7138C32.9768 44.8497 32.9768 44.9856 33.1127 45.1215C34.1999 47.296 32.569 48.791 30.6663 48.6551C29.9868 48.6551 29.3072 48.5192 28.6277 48.1115C28.3559 48.1115 28.4918 48.6551 28.4918 48.6551C28.4918 48.9269 29.0354 49.3347 29.0354 49.3347C28.6277 50.286 27.9482 50.5578 27.5404 50.5578C27.4045 50.5578 27.2686 50.4219 27.1327 50.4219C26.9968 50.4219 26.8609 50.286 26.725 50.286C26.5891 50.286 26.3173 50.4219 26.3173 50.4219C26.3173 50.286 26.5891 50.1501 26.5891 50.1501C26.4532 50.1501 25.9095 50.286 25.9095 50.286C26.1814 50.0142 26.5891 49.8783 26.5891 49.8783H26.1814C26.4532 49.6065 26.8609 49.7424 27.1327 49.7424C27.2686 49.8783 27.2686 49.8783 27.4045 49.8783C27.6763 49.8783 27.9482 49.7424 27.9482 49.4706C27.9482 49.0628 27.6763 49.0628 27.1327 49.0628C26.8609 49.0628 26.3173 49.0628 25.7736 48.791C25.0941 48.6551 24.8223 48.3833 24.6864 48.2474C24.5505 48.3833 24.1427 49.0628 22.24 49.7424C20.745 50.286 18.1628 49.8783 18.1628 49.8783V49.6065C18.0269 50.0142 17.891 50.286 17.891 50.4219C17.891 50.4219 17.755 50.4219 17.6191 50.286C17.4832 50.286 17.2114 50.286 17.0755 50.286C16.9396 50.286 16.8037 50.286 16.6678 50.286C16.396 50.4219 16.1241 50.4219 15.4446 50.4219C14.4932 50.4219 14.0855 50.1501 13.8137 50.1501L13.6778 50.0142C13.6778 50.0142 13.6778 50.0142 13.6778 50.1501C13.5419 50.1501 13.406 50.286 12.9983 50.286C12.8623 50.286 12.7264 50.286 12.5905 50.1501C12.3187 50.1501 12.0469 50.0142 11.911 50.0142ZM23.8709 50.4219C23.735 50.1501 23.735 49.6065 23.735 49.3347C23.735 49.3347 23.735 49.4706 23.1914 49.7424C22.7836 49.8783 22.5118 50.0142 22.5118 50.0142C22.7836 50.286 22.9196 50.8297 22.9196 50.8297C22.7836 50.6937 22.5118 50.6937 22.24 50.6937C21.8323 50.6937 21.2887 50.8297 21.2887 50.9656H21.5605H21.4246C21.2887 51.2374 21.0168 51.5092 21.0168 51.5092C21.4246 51.2374 21.8323 51.1015 21.8323 51.1015C21.5605 51.3733 21.4246 51.781 21.4246 51.781C21.9682 51.3733 22.3759 51.2374 22.7836 51.3733C23.1914 51.3733 23.5991 51.3733 24.0068 51.2374C24.2786 51.1015 24.2786 50.9656 24.2786 50.8297L24.1427 50.6937C24.0068 50.6937 23.8709 50.5578 23.8709 50.4219ZM22.24 27.5894C22.3759 27.5894 22.3759 27.5894 22.3759 27.7253H22.24C22.24 27.7253 22.24 27.7253 22.24 27.5894ZM22.24 26.9098H22.3759C22.3759 26.9098 22.5118 26.9098 22.6477 26.9098C22.6477 26.9098 22.6477 26.9098 22.6477 26.7739C22.5118 26.7739 22.5118 26.7739 22.3759 26.7739C22.3759 26.7739 22.5118 26.638 22.6477 26.638V26.5021C22.5118 26.638 22.3759 26.638 22.24 26.7739V26.9098ZM22.24 27.4535H22.3759C22.5118 27.4535 22.5118 27.5894 22.5118 27.5894C22.3759 27.5894 22.3759 27.5894 22.24 27.5894H22.1041L22.24 27.4535ZM22.6477 15.0858C22.6477 15.2217 22.5118 15.2217 22.5118 15.2217C22.5118 15.2217 22.5118 15.2217 22.5118 15.0858C20.4732 12.3676 18.4346 9.10585 20.3373 5.97996C20.3373 5.84405 20.3373 5.84405 20.3373 5.84405C21.0168 6.25178 21.2887 7.33904 21.5605 8.2904C21.6964 8.83403 21.8323 9.24176 21.9682 9.51357C21.9682 9.51357 21.8323 9.37766 21.8323 9.24176C21.8323 8.56221 21.8323 6.52359 22.5118 5.84405H22.6477C23.1914 6.25178 23.3273 8.96994 23.3273 9.37766C23.4632 9.24176 23.4632 8.96994 23.5991 8.69812C23.735 7.74677 24.0068 6.52359 24.6864 5.84405H24.8223C26.725 9.10585 24.6864 12.2317 22.6477 15.0858ZM16.396 16.0372H21.8323V15.9013C21.8323 15.9013 19.1141 12.9113 18.5705 10.329C17.891 7.47495 18.8423 6.25178 18.8423 6.25178V6.11587H18.7064C17.3473 6.11587 14.0855 7.47495 14.0855 11.0086C14.0855 14.1344 16.396 16.0372 16.396 16.0372ZM23.1914 15.9013C23.1914 15.9013 25.9095 12.9113 26.5891 10.329C27.2686 7.47495 26.1814 6.25178 26.1814 6.25178C26.1814 6.25178 26.1814 6.25178 26.1814 6.11587C26.1814 6.11587 26.1814 6.11587 26.3173 6.11587C27.6763 6.11587 30.9381 7.47495 30.9381 11.0086C30.9381 14.1344 28.7636 16.0372 28.6277 16.0372H23.3273C23.1914 16.0372 23.1914 16.0372 23.1914 15.9013ZM21.9682 4.89269C21.9682 5.16451 22.24 5.43633 22.5118 5.43633C22.9196 5.43633 23.0555 5.16451 23.0555 4.89269C23.0555 4.62088 22.9196 4.34906 22.5118 4.34906C22.24 4.34906 21.9682 4.62088 21.9682 4.89269ZM24.6864 32.0743V31.9384L24.5505 31.8025V31.6666L23.735 32.2102C23.735 32.2102 23.8709 32.3461 23.8709 32.4821L24.6864 32.0743ZM4.57195 36.4234C3.62059 35.2002 2.80514 35.6079 2.80514 35.6079C2.80514 35.6079 1.9897 34.6566 1.17425 33.2975C-0.456651 30.7152 0.0869812 29.3562 0.0869812 29.3562L1.9897 24.8712C1.85379 26.2303 2.80514 27.4535 4.02832 29.0843C4.70786 30.0357 5.52331 31.123 6.33876 32.4821C7.69784 34.6566 8.10556 35.8798 7.69784 38.0543C7.42602 39.4134 6.61057 39.2775 6.33876 39.2775C5.93103 39.0056 5.3874 38.0543 4.97968 37.2388C4.84377 36.967 4.70786 36.6952 4.57195 36.4234ZM1.17425 22.4248C2.1256 23.2403 2.53333 23.648 2.53333 23.648C2.53333 23.648 3.48469 22.4248 4.30013 24.0557C4.57195 24.3276 4.57195 24.5994 4.70786 25.0071C4.97968 25.9585 5.25149 26.9098 6.20285 27.1816C6.88239 27.4535 7.29011 26.9098 7.29011 26.638C7.42602 25.9585 7.56193 24.4635 6.61057 22.9685C6.20285 22.2889 5.65922 21.8812 5.3874 21.6094C5.25149 21.4735 5.25149 21.4735 5.11558 21.4735C5.11558 21.4735 3.21287 19.9785 2.53333 19.7067C1.85379 19.4349 0.630614 19.299 0.358798 19.9785C0.0869812 20.3862 0.0869813 21.3376 1.17425 22.4248ZM4.30013 15.7653H4.43604C4.30013 15.7653 4.30013 15.7653 4.30013 15.7653ZM6.74648 27.7253C6.61057 27.8612 6.33876 27.7253 5.93103 27.5894C5.11558 27.3175 4.70786 26.3662 4.30013 25.2789C4.16423 24.8712 4.02832 24.4635 3.89241 24.0557C3.62059 23.3762 3.07696 23.648 2.94105 24.3276C2.39742 25.9585 5.65922 29.4921 5.65922 29.4921L6.88239 27.8612C6.74648 27.7253 6.74648 27.7253 6.74648 27.7253ZM4.70786 38.0543C5.3874 39.4134 6.20285 40.0929 6.74648 39.8211C6.88239 39.8211 6.88239 39.957 6.88239 39.957C6.61057 40.3647 6.06694 40.9084 6.06694 40.9084L5.93103 40.7725C5.52331 40.5006 4.84377 40.0929 4.16423 39.2775C3.21287 37.9184 2.80514 36.5593 2.94105 36.4234C3.34878 35.8798 3.89241 36.1516 4.70786 38.0543ZM1.31015 42.8111C2.80514 44.0342 2.80514 44.9856 2.53333 45.8011C2.26151 46.7524 1.58197 47.296 1.31015 47.7038C1.03834 47.8397 0.90243 47.9756 1.03834 47.9756C1.17425 48.3833 1.9897 48.9269 2.80514 47.9756C3.07696 47.7038 3.34878 47.432 3.48469 47.1601C3.89241 46.7524 4.16423 46.3447 4.57195 46.0729C5.3874 45.3933 6.20285 45.5292 6.47467 46.0729C6.47467 46.0729 6.61057 44.9856 6.33876 44.0342C6.20285 42.6752 5.65922 42.1315 4.84377 41.3161C4.70786 41.1802 4.43604 40.9084 4.30013 40.7725C1.9897 38.3261 2.1256 37.2388 2.26151 36.6952V36.5593L0.358798 39.957C0.358798 39.957 -0.184835 41.7238 1.31015 42.8111ZM4.02832 47.432C4.30013 47.1601 4.43604 46.8883 4.70786 46.6165C5.25149 46.0729 6.06694 46.0729 6.20285 46.8883C6.20285 46.8883 6.33876 47.296 5.52331 48.6551C4.57195 50.0142 2.39742 51.2374 2.39742 51.2374L1.17425 48.6551C1.17425 48.6551 1.58197 49.1988 2.39742 48.791C3.07696 48.5192 3.62059 47.9756 4.02832 47.432ZM5.11558 55.3146C6.74648 53.9555 7.69784 52.1887 7.69784 52.1887L6.61057 47.296C6.61057 47.296 6.47467 47.9756 6.20285 48.5192C5.65922 49.8783 4.02832 51.1015 2.26151 52.1887C0.494706 53.276 0.358798 54.9069 0.358798 54.9069L0.494706 60.4791C1.03834 58.7123 3.48469 56.6737 5.11558 55.3146ZM6.74648 20.3862C6.74648 20.3862 6.88239 19.5708 5.79512 19.0271C5.65922 18.8912 5.65922 18.8912 5.52331 18.8912C4.57195 18.2117 3.34878 17.5322 3.48469 16.7167C3.48469 16.1731 3.62059 16.1731 3.89241 16.309C3.89241 16.309 3.89241 16.309 4.02832 16.309C4.43604 16.309 5.93103 16.9885 8.10556 19.4349L6.74648 20.3862ZM6.20285 20.5221C6.61057 20.5221 6.20285 19.8426 5.3874 19.299C4.97968 19.0271 3.62059 18.2117 3.62059 18.2117C3.62059 18.2117 2.26151 18.8912 2.39742 18.8912C3.21287 18.7553 4.02832 19.299 4.70786 19.8426C5.25149 20.2503 5.65922 20.5221 6.20285 20.5221ZM4.16423 58.7123C4.16423 58.7123 4.43604 58.9841 4.84377 59.1201V59.256C5.52331 59.5278 6.47467 59.9355 6.33876 60.4791C6.33876 60.751 5.93103 61.1587 5.25149 61.1587C4.84377 61.0228 4.57195 60.8869 4.30013 60.615C4.16423 60.4791 3.89241 60.3432 3.62059 60.2073C3.21287 59.9355 2.39742 59.7996 1.71788 59.9355L4.16423 58.7123ZM4.84377 56.8096C4.84377 56.8096 4.16423 57.4892 4.84377 58.0328C5.25149 58.3046 5.65922 58.5764 5.93103 58.7123C6.47467 58.9841 6.88239 59.256 7.0183 59.3919C7.42602 60.0714 7.15421 60.615 6.61057 61.1587L8.92101 59.5278C8.92101 59.5278 7.69784 56.8096 4.84377 56.8096ZM10.2801 57.2173C10.416 57.761 10.5519 58.1687 11.911 58.9841C13.5419 59.7996 13.406 60.3432 13.406 60.615H13.2701C13.2701 61.0228 12.7264 61.5664 12.7264 61.5664C12.7264 61.5664 10.2801 61.0228 9.60055 59.256C8.92101 57.4892 7.29011 56.5378 6.20285 56.266C6.06694 56.266 5.93103 56.266 5.79512 56.266C5.52331 56.1301 5.3874 56.1301 5.3874 56.1301L8.51329 54.771C8.51329 54.771 8.92101 54.2274 11.3674 55.8583C11.3674 55.8583 10.0083 56.266 10.2801 57.2173ZM11.6392 56.5378C11.5033 56.5378 11.2315 56.6737 11.2315 57.0814C11.3674 57.761 12.1828 58.1687 12.9983 58.5764C13.1342 58.5764 13.2701 58.7123 13.406 58.8482C14.2214 59.256 14.3573 59.7996 14.2214 60.3432C14.0855 60.615 13.9496 60.751 13.9496 60.751L15.5805 59.3919C15.5805 59.3919 15.5805 59.3919 15.4446 59.256C14.901 58.7123 12.9983 56.6737 11.6392 56.5378ZM37.4617 38.0543C37.054 36.0157 37.4617 34.6566 38.6849 32.4821C39.6363 31.123 40.4517 30.0357 41.1313 29.0843C42.3544 27.4535 43.3058 26.2303 43.1699 24.8712L45.0726 29.3562C45.0726 29.3562 45.6162 30.7152 43.9853 33.2975C43.034 34.6566 42.3544 35.7438 42.3544 35.7438C42.3544 35.7438 41.4031 35.2002 40.5876 36.5593C40.4517 36.6952 40.3158 36.967 40.1799 37.3747C39.7722 38.1902 39.2285 39.1416 38.6849 39.2775C38.549 39.4134 37.7335 39.4134 37.4617 38.0543ZM39.9081 21.3376C39.9081 21.4735 39.7722 21.4735 39.7722 21.6094C39.5004 21.7453 38.9567 22.2889 38.549 22.9685C37.5976 24.3276 37.5976 25.9585 37.7335 26.5021C37.8695 26.7739 38.2772 27.4535 38.9567 27.1816C39.9081 26.7739 40.1799 25.8226 40.4517 24.8712C40.4517 24.5994 40.5876 24.1917 40.7235 23.9198C41.6749 22.4248 42.6262 23.648 42.6262 23.648C42.6262 23.648 42.8981 23.2403 43.8494 22.4248C44.9367 21.3376 44.9367 20.3862 44.6649 19.8426C44.393 19.1631 43.1699 19.299 42.6262 19.5708C41.9467 19.8426 39.9081 21.3376 39.9081 21.3376ZM41.2672 24.0557C41.6749 23.3762 42.0826 23.648 42.2185 24.1917C42.7621 25.8226 39.7722 29.0843 39.6363 29.3562L38.4131 27.7253C38.4131 27.5894 38.2772 27.7253 38.4131 27.7253C38.549 27.7253 38.8208 27.7253 39.2285 27.5894C40.044 27.3175 40.4517 26.3662 40.7235 25.2789C40.8594 24.8712 41.1313 24.4635 41.2672 24.0557ZM40.4517 38.0543C39.7722 39.4134 38.9567 40.0929 38.2772 39.957C38.549 40.3647 39.0926 41.0443 39.0926 40.9084C39.0926 40.9084 39.2285 40.7725 39.3644 40.6365C39.6363 40.5006 40.3158 39.957 40.9953 39.2775C41.9467 38.0543 42.2185 36.5593 42.2185 36.4234C41.8108 35.8798 41.2672 36.1516 40.4517 38.0543ZM42.8981 36.6952L44.6649 40.0929C44.6649 40.0929 45.2085 41.7238 43.7135 42.947C42.3544 44.1702 42.3544 44.9856 42.6262 45.8011C42.8981 46.7524 43.4417 47.296 43.8494 47.7038C43.9853 47.8397 44.1212 47.9756 44.1212 48.1115C43.9853 48.3833 43.1699 48.9269 42.2185 47.9756C41.9467 47.7038 41.8108 47.432 41.539 47.1601C41.1313 46.7524 40.8594 46.4806 40.5876 46.2088C39.7722 45.3933 38.8208 45.5292 38.6849 46.2088C38.6849 46.2088 38.549 44.9856 38.6849 44.0342C38.9567 42.6752 39.5004 42.1315 40.3158 41.3161C40.4517 41.1802 40.5876 41.0443 40.8594 40.7725C43.1699 38.462 42.8981 37.2388 42.8981 36.6952ZM42.6262 51.2374L43.9853 48.6551C43.9853 48.6551 43.5776 49.1988 42.6262 48.791C42.0826 48.5192 41.539 47.9756 41.1313 47.432C40.8594 47.1601 40.7235 46.8883 40.4517 46.6165C39.9081 46.0729 39.0926 46.0729 38.9567 46.8883C38.9567 46.8883 38.8208 47.432 39.6363 48.6551C40.5876 50.0142 42.6262 51.2374 42.6262 51.2374ZM38.9567 48.6551C39.5004 49.8783 40.9953 51.1015 42.7621 52.1887C44.529 53.276 44.6649 54.9069 44.6649 54.9069L44.529 60.4791C44.1212 58.7123 41.6749 56.6737 40.044 55.3146C38.2772 53.9555 37.4617 52.1887 37.4617 52.1887L38.4131 47.296C38.4131 47.296 38.6849 47.9756 38.9567 48.6551ZM37.054 19.4349L38.4131 20.3862C38.4131 20.3862 38.2772 19.5708 39.3644 19.0271L39.5004 18.8912H39.6363C40.5876 18.2117 41.8108 17.5322 41.8108 16.7167C41.8108 16.0372 41.539 16.1731 41.2672 16.1731C41.2672 16.1731 41.2672 16.309 41.1313 16.309C40.7235 16.309 39.0926 16.9885 37.054 19.4349ZM38.9567 20.5221C38.549 20.5221 38.9567 19.8426 39.7722 19.299C40.1799 19.0271 41.4031 18.2117 41.4031 18.2117C41.4031 18.2117 42.8981 18.8912 42.7621 18.8912C41.9467 18.7553 41.1313 19.299 40.4517 19.8426C39.9081 20.2503 39.5004 20.5221 38.9567 20.5221ZM40.3158 59.256H40.1799C39.5004 59.5278 38.6849 59.9355 38.8208 60.4791C38.8208 60.751 39.0926 61.1587 39.9081 61.0228C40.3158 61.0228 40.4517 60.8869 40.7235 60.615C40.9953 60.4791 41.1313 60.3432 41.539 60.2073C41.9467 59.7996 42.7621 59.7996 43.4417 59.9355L40.9953 58.5764C40.9953 58.5764 40.8594 58.5764 40.8594 58.7123C40.8594 58.7123 40.5876 58.9841 40.3158 59.1201V59.256ZM39.2285 58.7123C38.8208 58.9841 38.2772 59.1201 38.1413 59.3919C37.5976 60.0714 37.8695 60.615 38.549 61.1587L36.2386 59.5278C36.2386 59.5278 37.4617 56.8096 40.3158 56.8096C40.3158 56.8096 40.9953 57.4892 40.1799 58.0328C39.9081 58.3046 39.6363 58.4405 39.2285 58.7123ZM38.8208 56.4019L39.2285 56.266C39.6363 56.266 39.7722 56.1301 39.7722 56.1301L36.6463 54.771C36.6463 54.771 36.2386 54.2274 33.6563 55.8583C33.6563 55.8583 35.1513 56.266 34.8795 57.3532C34.7436 57.761 34.6077 58.1687 33.1127 58.9841C31.6177 59.7996 31.7536 60.3432 31.7536 60.615C31.7536 61.0228 32.4331 61.5664 32.4331 61.5664C32.4331 61.5664 34.7436 61.1587 35.4231 59.256C36.1026 57.4892 37.8695 56.5378 38.8208 56.4019ZM29.5791 54.6351C30.2586 54.771 33.5204 55.8583 33.5204 55.8583C33.5204 55.8583 31.8895 56.1301 30.2586 57.761C29.9868 58.0328 29.715 58.3046 29.4431 58.5764C27.9482 60.0714 26.0454 61.8382 22.6477 61.8382C18.9782 61.8382 17.2114 60.0714 15.7164 58.4405C15.4446 58.1687 15.1728 57.8969 14.901 57.761C13.2701 56.1301 11.6392 55.8583 11.6392 55.8583C11.6392 55.8583 14.901 54.771 15.7164 54.6351C16.396 54.3633 17.2114 54.6351 18.8423 56.1301C20.6091 58.0328 22.24 57.8969 22.5118 57.8969H22.6477C22.9196 57.8969 24.5505 58.0328 26.3173 56.1301C27.8122 54.6351 28.7636 54.3633 29.5791 54.6351ZM31.7536 58.8482C31.8895 58.7123 32.0254 58.5764 32.1613 58.5764C32.9768 58.1687 33.7922 57.761 33.9281 57.0814C33.9281 56.6737 33.6563 56.5378 33.5204 56.5378C31.8895 56.6737 29.5791 59.3919 29.5791 59.3919L31.074 60.751C31.074 60.751 31.074 60.615 30.9381 60.3432C30.8022 59.7996 30.9381 59.256 31.7536 58.8482ZM35.9667 49.7424V21.6094H9.19283V49.6065C9.19283 51.2374 10.416 52.3246 12.0469 52.3246H20.3373C21.4246 52.3246 22.1041 53.0042 22.5118 53.5478C22.9196 53.0042 23.5991 52.3246 24.6864 52.3246H32.8409C34.6077 52.3246 35.9667 51.2374 35.9667 49.7424ZM8.92101 19.0271C8.51329 18.4835 7.96966 18.0758 6.74648 16.9885C5.3874 15.7653 4.57195 15.6294 4.30013 15.7653L8.37738 14.5422C8.6492 14.5422 9.60055 14.6781 11.0955 17.1244C12.3187 19.1631 13.9496 20.1144 15.1728 20.658H16.1241V19.5708H29.0354V20.658H29.715C30.9381 20.2503 32.569 19.1631 33.9281 16.9885C35.4231 14.6781 36.3745 14.5422 36.6463 14.5422L40.7235 15.6294C40.7235 15.6294 39.9081 15.6294 38.4131 16.8526C37.054 18.0758 36.6463 18.4835 36.2386 18.8912C35.9667 19.299 35.6949 19.5708 35.2872 19.9785C34.8795 20.2503 34.4717 20.5221 34.1999 20.658H36.7822V49.7424C36.7822 51.781 35.1513 53.1401 32.8409 53.1401H24.6864C23.3273 53.1401 23.0555 54.6351 23.0555 54.771L22.6477 56.6737L22.1041 54.771C22.1041 54.6351 21.8323 53.1401 20.3373 53.1401H12.0469C9.87237 53.1401 8.37738 51.6451 8.37738 49.6065V20.658H10.8237C10.5519 20.5221 10.1442 20.2503 9.87237 19.9785C9.46464 19.5708 9.19283 19.299 8.92101 19.0271Z" fill="white"/>
</svg>
