<svg width="88" height="73" viewBox="0 0 88 73" fill="none" xmlns="http://www.w3.org/2000/svg">
<path d="M0.5 0.469727H36.41V36.9197C36.41 48.2597 33.26 57.0797 26.96 63.3797C20.66 69.6797 11.84 72.8297 0.5 72.8297V54.7397C6.26 53.6597 10.31 51.9497 12.65 49.6097C15.17 47.2697 16.43 44.0297 16.43 39.8897V35.0297H0.5V0.469727ZM51.8 0.469727H87.71V36.9197C87.71 48.2597 84.56 57.0797 78.26 63.3797C71.96 69.6797 63.14 72.8297 51.8 72.8297V54.7397C57.56 53.6597 61.61 51.9497 63.95 49.6097C66.47 47.2697 67.73 44.0297 67.73 39.8897V35.0297H51.8V0.469727Z" fill="#5DC5C6"/>
</svg>
