<svg width="223" height="167" viewBox="0 0 223 167" fill="none" xmlns="http://www.w3.org/2000/svg">
<path fill-rule="evenodd" clip-rule="evenodd" d="M22.2436 147.539C-11.6693 122.116 -4.71824 87.6594 28.9841 73.1623C76.7992 52.5722 78.063 17.6952 127.353 11.6022C209.081 1.51725 272.904 117.704 168.849 155.312C116.821 174.012 51.7331 169.389 22.2436 147.539Z" fill="#C2E2E2"/>
<path d="M99.8664 7.36325L105.129 3.85453C108.839 1.38182 113.671 1.38182 117.38 3.85453L122.643 7.36325C143.122 21.0162 155.423 44.0009 155.423 68.6142V106.512H67.0859V68.6142C67.0859 44.0009 79.3869 21.0162 99.8664 7.36325Z" fill="#5DC5C6" stroke="black" stroke-width="3.67" stroke-linecap="round" stroke-linejoin="round"/>
<path d="M111.256 80.7468C123.453 80.7468 133.341 70.8593 133.341 58.6624C133.341 46.4656 123.453 36.5781 111.256 36.5781C99.0594 36.5781 89.1719 46.4656 89.1719 58.6624C89.1719 70.8593 99.0594 80.7468 111.256 80.7468Z" stroke="black" stroke-width="3.67"/>
<path d="M67.0843 66.0234L45 88.9079V106.511H177.506V88.9079L155.422 66.0234" stroke="black" stroke-width="3.67" stroke-linecap="round" stroke-linejoin="round"/>
<path d="M111.25 124.916V147" stroke="black" stroke-width="3.67" stroke-linecap="round" stroke-linejoin="round"/>
<path d="M81.8047 132.277V139.639" stroke="black" stroke-width="3.67" stroke-linecap="round" stroke-linejoin="round"/>
<path d="M140.703 132.277V139.639" stroke="black" stroke-width="3.67" stroke-linecap="round" stroke-linejoin="round"/>
</svg>
