<svg width="223" height="177" viewBox="0 0 223 177" fill="none" xmlns="http://www.w3.org/2000/svg">
<path fill-rule="evenodd" clip-rule="evenodd" d="M22.2436 157.554C-11.6693 132.132 -4.71824 97.675 28.9841 83.1779C76.7992 62.5879 78.063 27.7108 127.353 21.6178C209.081 11.5329 272.904 127.72 168.849 165.328C116.821 184.027 51.7331 179.405 22.2436 157.554Z" fill="#C2E2E2"/>
<path d="M111.5 81.75C104.25 85.7045 93.375 94.4375 93.375 107.125C93.375 119.812 129.625 116.187 129.625 128.875C129.625 141.562 89.75 147 89.75 147" stroke="black" stroke-width="3.67" stroke-linecap="round" stroke-linejoin="round"/>
<path d="M87.3332 2C72.8332 2 68 13.442 68 27.5562C68 53.1124 96.275 76.3453 111.5 81.7498C126.725 76.3453 155 53.1124 155 27.5562C155 13.442 148.88 2 135.667 2C127.575 2 115.83 13.1545 111.5 19.7222C107.17 13.1545 95.4249 2 87.3332 2Z" fill="#5DC5C6" stroke="black" stroke-width="3.67" stroke-linecap="round" stroke-linejoin="round"/>
<path d="M80.4453 29.7773C80.4642 42.9132 84.0324 49.3934 95.4453 59.7773" stroke="black" stroke-width="3.67" stroke-linecap="round" stroke-linejoin="round"/>
</svg>
