<svg width="465" height="1074" viewBox="0 0 465 1074" fill="none" xmlns="http://www.w3.org/2000/svg">
<path opacity="0.3" d="M213.068 0L314.56 87.0383L443.598 52.5411L392.411 176.231L465 288.631L331.876 278.039L247.702 382L216.609 251.766L92 203.616L205.91 133.719L213.068 0Z" fill="#E1E1E1"/>
<path opacity="0.3" d="M37.9759 498L69.811 525.342L110.287 514.505L94.2308 553.36L117 588.669L75.2425 585.342L48.8396 618L39.0865 577.089L0 561.963L35.7305 540.006L37.9759 498Z" fill="#E1E1E1"/>
<path opacity="0.3" d="M162.434 851L221.478 901.81L296.549 881.672L266.77 953.878L309 1019.49L231.552 1013.31L182.583 1074L164.494 997.973L92 969.865L158.269 929.061L162.434 851Z" fill="#E1E1E1"/>
</svg>
