<?xml version="1.0" encoding="UTF-8"?>
<svg id="_Слой_2" data-name="Слой 2" xmlns="http://www.w3.org/2000/svg" xmlns:xlink="http://www.w3.org/1999/xlink" viewBox="0 0 480 480">
  <defs>
    <style>
      .cls-1, .cls-2 {
        stroke-width: 0px;
      fill: #02b8b2;
      }

      .cls-2 {
        fill: none;
      }

      .cls-3 {
        clip-path: url(#clippath);
      }
    </style>
    <clipPath id="clippath">
      <rect class="cls-2" width="480" height="480"/>
    </clipPath>
  </defs>
  <g id="_Слой_1-2" data-name="Слой 1">
    <g class="cls-3">
      <path class="cls-1" d="m240.16,256c53.02,0,96-42.98,96-96s-42.98-96-96-96-96,42.98-96,96,42.98,96,96,96"/>
      <path class="cls-1" d="m480,239.84C479.91,107.29,372.39-.09,239.84,0,107.29.09-.09,107.61,0,240.16c.04,53.03,17.28,102.02,46.43,141.72l-.03.04.57.7c43.75,59.12,114,97.43,193.19,97.38,71.85-.05,139.89-32.28,185.44-87.84l8.32-10.24-.21-.25c30.03-41.07,46.32-90.72,46.29-141.83M240.16,32c114.88,0,208,93.12,208,208,0,43.34-13.26,83.58-35.94,116.9-6.23-6.4-12.79-12.47-19.7-18.14-97.2-79.86-238.36-70.57-324.42,18.13-22.67-33.31-35.93-73.55-35.93-116.89,0-114.88,93.12-208,208-208"/>
    </g>
  </g>
</svg>
