<svg width="544" height="461" viewBox="0 0 544 461" fill="none" xmlns="http://www.w3.org/2000/svg">
<path opacity="0.12" d="M147.089 216.096C147.089 216.096 91.6821 235.97 61.9204 287.234C61.9204 287.234 55.6776 294.503 45.5324 291.435C36.0904 288.155 22.9189 285.237 11.1999 297.239C11.1999 297.239 16.5492 297.153 21.005 304.249C25.9508 310.429 37.4621 323.066 54.7897 327.027C54.7897 327.027 55.0831 401.431 134.095 436.605C134.095 436.605 162.571 449.473 121.201 338.374C121.201 338.374 168.946 369.206 180.757 387.895C193.272 406.372 185.721 376.407 180.198 365.794C175.166 354.264 181.749 343.052 185.946 334.1C189.226 324.657 175.011 325.896 169.448 325.279C164.802 325.152 118.895 320.642 118.895 320.642L154.421 220.016C154.421 220.016 162.624 209.081 147.089 216.096Z" fill="#5DC5C6"/>
<path opacity="0.12" d="M294.531 0.616138C294.531 0.616138 389.749 5.37029 459.973 70.7398C459.973 70.7398 473.066 79.0596 487.348 69.5513C500.441 60.043 519.484 49.3462 543.289 62.4201C543.289 62.4201 534.957 64.7972 531.387 77.8711C526.626 89.7565 514.724 114.716 489.729 128.978C489.729 128.978 524.245 244.266 418.315 335.784C418.315 335.784 380.228 369.063 392.13 177.708C392.13 177.708 332.618 247.832 323.097 282.3C312.385 316.767 310.004 266.849 313.575 247.832C315.955 227.627 300.482 213.364 289.77 201.479C280.248 188.405 302.863 183.651 311.194 180.085C318.336 177.708 387.369 149.183 387.369 149.183L285.009 10.1244C285.009 10.1244 267.156 -2.94947 294.531 0.616138Z" fill="#5DC5C6"/>
</svg>
