<svg width="1440" height="813" viewBox="0 0 1440 813" fill="none" xmlns="http://www.w3.org/2000/svg">
<path fill-rule="evenodd" clip-rule="evenodd" d="M46.8673 132.4C31.6354 127.713 16.4035 126.542 0 131.228C0 358.535 0 585.841 0 813.147C480.39 813.147 959.607 813.147 1440 813.147C1440 542.489 1440 270.658 1440 0C1312.28 0 1184.57 0 1056.86 0C1013.5 56.2407 970.153 92.5629 926.8 114.825C834.237 160.52 774.482 142.945 685.434 110.138C619.82 85.5328 537.802 33.9788 471.016 43.3522C439.381 48.0389 415.947 62.0991 393.685 79.6744C355.02 111.31 319.869 159.349 276.517 185.126C261.285 194.499 244.881 201.529 227.306 205.044C127.713 222.62 111.31 153.49 46.8673 132.4Z" fill="#F8F8F8"/>
<path fill-rule="evenodd" clip-rule="evenodd" d="M1440 813.147C1038.11 813.147 636.223 813.147 235.508 813.147C271.83 727.614 312.839 644.425 362.049 569.437C414.775 487.419 493.278 381.968 599.901 386.655C617.476 387.826 633.88 391.341 650.283 396.028C759.25 432.35 816.662 510.853 902.195 515.54C946.719 519.055 998.273 502.651 1069.75 451.097C1125.99 410.088 1176.37 344.474 1253.7 349.161C1346.26 355.019 1362.67 424.148 1440 424.148C1440 554.205 1440 683.09 1440 813.147Z" fill="white"/>
<circle cx="162.5" cy="150.5" r="3.5" fill="#E40032"/>
<circle cx="187.5" cy="150.5" r="3.5" fill="#E40032"/>
<circle cx="212.5" cy="150.5" r="3.5" fill="#E40032"/>
<circle cx="16.5" cy="481.5" r="3.5" fill="white"/>
<circle cx="41.5" cy="481.5" r="3.5" fill="white"/>
<circle cx="66.5" cy="481.5" r="3.5" fill="white"/>
<circle cx="91.5" cy="481.5" r="3.5" fill="white"/>
<circle cx="116.5" cy="481.5" r="3.5" fill="white"/>
<circle cx="141.5" cy="481.5" r="3.5" fill="white"/>
<circle cx="16.5" cy="505.5" r="3.5" fill="white"/>
<circle cx="41.5" cy="505.5" r="3.5" fill="white"/>
<circle cx="66.5" cy="505.5" r="3.5" fill="white"/>
<circle cx="91.5" cy="505.5" r="3.5" fill="white"/>
<circle cx="116.5" cy="505.5" r="3.5" fill="white"/>
<circle cx="141.5" cy="505.5" r="3.5" fill="white"/>
<circle cx="16.5" cy="529.5" r="3.5" fill="white"/>
<circle cx="41.5" cy="529.5" r="3.5" fill="white"/>
<circle cx="66.5" cy="529.5" r="3.5" fill="white"/>
<circle cx="91.5" cy="529.5" r="3.5" fill="white"/>
<circle cx="116.5" cy="529.5" r="3.5" fill="white"/>
<circle cx="141.5" cy="529.5" r="3.5" fill="white"/>
<circle cx="16.5" cy="553.5" r="3.5" fill="white"/>
<circle cx="41.5" cy="553.5" r="3.5" fill="white"/>
<circle cx="66.5" cy="553.5" r="3.5" fill="white"/>
<circle cx="91.5" cy="553.5" r="3.5" fill="white"/>
<circle cx="116.5" cy="553.5" r="3.5" fill="white"/>
<circle cx="141.5" cy="553.5" r="3.5" fill="white"/>
<circle cx="16.5" cy="577.5" r="3.5" fill="white"/>
<circle cx="41.5" cy="577.5" r="3.5" fill="white"/>
<circle cx="66.5" cy="577.5" r="3.5" fill="white"/>
<circle cx="91.5" cy="577.5" r="3.5" fill="white"/>
<circle cx="116.5" cy="577.5" r="3.5" fill="white"/>
<circle cx="141.5" cy="577.5" r="3.5" fill="white"/>
<circle cx="16.5" cy="601.5" r="3.5" fill="white"/>
<circle cx="41.5" cy="601.5" r="3.5" fill="white"/>
<circle cx="66.5" cy="601.5" r="3.5" fill="white"/>
<circle cx="91.5" cy="601.5" r="3.5" fill="white"/>
<circle cx="116.5" cy="601.5" r="3.5" fill="white"/>
<circle cx="141.5" cy="601.5" r="3.5" fill="white"/>
<circle cx="16.5" cy="625.5" r="3.5" fill="white"/>
<circle cx="41.5" cy="625.5" r="3.5" fill="white"/>
<circle cx="66.5" cy="625.5" r="3.5" fill="white"/>
<circle cx="91.5" cy="625.5" r="3.5" fill="white"/>
<circle cx="116.5" cy="625.5" r="3.5" fill="white"/>
<circle cx="141.5" cy="625.5" r="3.5" fill="white"/>
<circle cx="16.5" cy="649.5" r="3.5" fill="white"/>
<circle cx="41.5" cy="649.5" r="3.5" fill="white"/>
<circle cx="66.5" cy="649.5" r="3.5" fill="white"/>
<circle cx="91.5" cy="649.5" r="3.5" fill="white"/>
<circle cx="116.5" cy="649.5" r="3.5" fill="white"/>
<circle cx="141.5" cy="649.5" r="3.5" fill="white"/>
<circle cx="16.5" cy="673.5" r="3.5" fill="white"/>
<circle cx="41.5" cy="673.5" r="3.5" fill="white"/>
<circle cx="66.5" cy="673.5" r="3.5" fill="white"/>
<circle cx="91.5" cy="673.5" r="3.5" fill="white"/>
<circle cx="116.5" cy="673.5" r="3.5" fill="white"/>
<circle cx="141.5" cy="673.5" r="3.5" fill="white"/>
<circle cx="16.5" cy="697.5" r="3.5" fill="white"/>
<circle cx="41.5" cy="697.5" r="3.5" fill="white"/>
<circle cx="66.5" cy="697.5" r="3.5" fill="white"/>
<circle cx="91.5" cy="697.5" r="3.5" fill="white"/>
<circle cx="116.5" cy="697.5" r="3.5" fill="white"/>
<circle cx="141.5" cy="697.5" r="3.5" fill="white"/>
<circle cx="16.5" cy="721.5" r="3.5" fill="white"/>
<circle cx="41.5" cy="721.5" r="3.5" fill="white"/>
<circle cx="66.5" cy="721.5" r="3.5" fill="white"/>
<circle cx="91.5" cy="721.5" r="3.5" fill="white"/>
<circle cx="116.5" cy="721.5" r="3.5" fill="white"/>
<circle cx="141.5" cy="721.5" r="3.5" fill="white"/>
<circle cx="16.5" cy="745.5" r="3.5" fill="white"/>
<circle cx="41.5" cy="745.5" r="3.5" fill="white"/>
<circle cx="66.5" cy="745.5" r="3.5" fill="white"/>
<circle cx="91.5" cy="745.5" r="3.5" fill="white"/>
<circle cx="116.5" cy="745.5" r="3.5" fill="white"/>
<circle cx="141.5" cy="745.5" r="3.5" fill="white"/>
<circle cx="1335.5" cy="757.5" r="3.5" fill="#E40032"/>
<circle cx="1360.5" cy="757.5" r="3.5" fill="#E40032"/>
<circle cx="1385.5" cy="757.5" r="3.5" fill="#E40032"/>
<circle cx="1310.5" cy="781.5" r="3.5" fill="#E40032"/>
<circle cx="1335.5" cy="781.5" r="3.5" fill="#E40032"/>
<circle cx="1360.5" cy="781.5" r="3.5" fill="#E40032"/>
</svg>
