<svg width="1151" height="216" viewBox="0 0 1151 216" fill="none" xmlns="http://www.w3.org/2000/svg">
<path d="M0 15C0 6.71572 6.71573 0 15 0H1136C1144.28 0 1151 6.71573 1151 15V201C1151 209.284 1144.28 216 1136 216H15C6.71572 216 0 209.284 0 201V15Z" fill="#F0F0F0"/>
<path d="M0 15C0 6.71572 6.71573 0 15 0H1136C1144.28 0 1151 6.71573 1151 15V201C1151 209.284 1144.28 216 1136 216H15C6.71572 216 0 209.284 0 201V15Z" fill="#9CEAEB"/>
<path d="M0 15C0 6.71572 6.71573 0 15 0H1136C1144.28 0 1151 6.71573 1151 15V201C1151 209.284 1144.28 216 1136 216H15C6.71572 216 0 209.284 0 201V15Z" fill="url(#paint0_linear_26002_6)"/>
<mask id="mask0_26002_6" style="mask-type:alpha" maskUnits="userSpaceOnUse" x="0" y="0" width="1151" height="216">
<path d="M0 15C0 6.71572 6.71573 0 15 0H1136C1144.28 0 1151 6.71573 1151 15V201C1151 209.284 1144.28 216 1136 216H15C6.71572 216 0 209.284 0 201V15Z" fill="#F0F0F0"/>
<path d="M0 15C0 6.71572 6.71573 0 15 0H1136C1144.28 0 1151 6.71573 1151 15V201C1151 209.284 1144.28 216 1136 216H15C6.71572 216 0 209.284 0 201V15Z" fill="#9CEAEB"/>
<path d="M0 15C0 6.71572 6.71573 0 15 0H1136C1144.28 0 1151 6.71573 1151 15V201C1151 209.284 1144.28 216 1136 216H15C6.71572 216 0 209.284 0 201V15Z" fill="url(#paint1_linear_26002_6)"/>
</mask>
<g mask="url(#mask0_26002_6)">
<path opacity="0.3" d="M1040.21 130.329C1043.13 127.511 1045.47 124.156 1047.34 120.035C1054.8 103.55 1047.54 83.9787 1031.11 76.8093C1023.17 73.2129 1014.57 72.9012 1006.96 75.8039C1003.8 68.3007 998.225 61.9098 990.287 58.3134C973.731 50.8123 954.456 58.3611 946.988 74.8463C945.12 78.9676 944.141 82.9392 943.946 86.9902C943.946 86.9902 943.946 86.9902 944.069 87.3219C944.023 89.2329 943.977 91.1438 944.262 92.9286C945.329 104.45 949.912 130.535 971.61 154.44C971.61 154.44 1007.2 153.729 1034.34 134.844C1036.3 133.526 1038.27 132.208 1040.11 130.558C1040.21 130.329 1040.21 130.329 1040.21 130.329Z" fill="white"/>
<path opacity="0.3" d="M804.087 116.453C805.387 107.569 804.95 98.524 802.647 88.7755C793.437 49.7818 754.238 25.3047 715.74 34.9697C696.964 39.4047 681.46 50.5001 672.064 65.8709C656.374 56.9973 637.953 53.3433 619.177 57.7783C580.015 67.0285 556.447 106.331 565.658 145.325C567.961 155.073 571.617 163.358 576.754 170.722C576.754 170.722 576.754 170.722 577.419 171.137C579.924 174.548 582.428 177.958 585.342 180.701C602.797 199.45 646.114 238.964 716.478 251.506C716.478 251.506 777.878 202.124 799.903 132.308C801.561 127.342 803.22 122.376 804.215 116.995C804.087 116.453 804.087 116.453 804.087 116.453Z" fill="white"/>
</g>
<defs>
<linearGradient id="paint0_linear_26002_6" x1="1372.88" y1="228.075" x2="1358.15" y2="-28.1533" gradientUnits="userSpaceOnUse">
<stop stop-color="#77DBDC"/>
<stop offset="1" stop-color="#DDFFFF"/>
</linearGradient>
<linearGradient id="paint1_linear_26002_6" x1="1372.88" y1="228.075" x2="1358.15" y2="-28.1533" gradientUnits="userSpaceOnUse">
<stop stop-color="#77DBDC"/>
<stop offset="1" stop-color="#DDFFFF"/>
</linearGradient>
</defs>
</svg>
