<svg width="1151" height="216" viewBox="0 0 1151 216" fill="none" xmlns="http://www.w3.org/2000/svg">
<path d="M0 15C0 6.71572 6.71573 0 15 0H1136C1144.28 0 1151 6.71573 1151 15V201C1151 209.284 1144.28 216 1136 216H15C6.71572 216 0 209.284 0 201V15Z" fill="#F0F0F0"/>
<path d="M0 15C0 6.71572 6.71573 0 15 0H1136C1144.28 0 1151 6.71573 1151 15V201C1151 209.284 1144.28 216 1136 216H15C6.71572 216 0 209.284 0 201V15Z" fill="#9CEAEB"/>
<path d="M0 15C0 6.71572 6.71573 0 15 0H1136C1144.28 0 1151 6.71573 1151 15V201C1151 209.284 1144.28 216 1136 216H15C6.71572 216 0 209.284 0 201V15Z" fill="url(#paint0_linear_26002_7)"/>
<mask id="mask0_26002_7" style="mask-type:alpha" maskUnits="userSpaceOnUse" x="0" y="0" width="1151" height="216">
<path d="M0 15C0 6.71572 6.71573 0 15 0H1136C1144.28 0 1151 6.71573 1151 15V201C1151 209.284 1144.28 216 1136 216H15C6.71572 216 0 209.284 0 201V15Z" fill="#F0F0F0"/>
<path d="M0 15C0 6.71572 6.71573 0 15 0H1136C1144.28 0 1151 6.71573 1151 15V201C1151 209.284 1144.28 216 1136 216H15C6.71572 216 0 209.284 0 201V15Z" fill="#9CEAEB"/>
<path d="M0 15C0 6.71572 6.71573 0 15 0H1136C1144.28 0 1151 6.71573 1151 15V201C1151 209.284 1144.28 216 1136 216H15C6.71572 216 0 209.284 0 201V15Z" fill="url(#paint1_linear_26002_7)"/>
</mask>
<g mask="url(#mask0_26002_7)">
<path opacity="0.3" d="M556.694 175.762C557.555 171.799 557.638 167.709 556.902 163.245C553.96 145.388 537.054 133.143 519.406 136.306C510.807 137.723 503.477 142.242 498.766 148.878C491.971 144.393 483.783 142.176 475.184 143.593C457.25 146.548 445.412 163.529 448.354 181.386C449.09 185.851 450.481 189.697 452.568 193.175C452.568 193.175 452.568 193.175 452.854 193.382C453.878 194.997 454.901 196.612 456.129 197.938C463.414 206.928 481.71 226.076 513.03 233.908C513.03 233.908 542.229 213.557 554.317 182.778C555.218 180.591 556.12 178.405 556.735 176.01C556.694 175.762 556.694 175.762 556.694 175.762Z" fill="white"/>
<path opacity="0.3" d="M1131.31 146.015C1136.24 138.514 1139.67 130.132 1141.71 120.324C1149.84 81.0918 1124.67 42.3386 1085.69 34.8231C1066.8 30.9049 1048.06 34.406 1033.05 44.3635C1022.58 29.6893 1007.43 18.5904 988.54 14.6722C949.139 6.4999 911.167 32.1551 903.029 71.3868C900.995 81.1947 900.806 90.2487 902.349 99.0937C902.349 99.0937 902.349 99.0937 902.776 99.7505C903.604 103.901 904.432 108.051 905.913 111.768C913.806 136.138 936.358 190.26 994.823 231.371C994.823 231.371 1071.34 212.575 1120.82 158.615C1124.42 154.816 1128.02 151.016 1131.2 146.56C1131.31 146.015 1131.31 146.015 1131.31 146.015Z" fill="white"/>
</g>
<defs>
<linearGradient id="paint0_linear_26002_7" x1="1372.88" y1="228.075" x2="1358.15" y2="-28.1533" gradientUnits="userSpaceOnUse">
<stop stop-color="#77DBDC"/>
<stop offset="1" stop-color="#DDFFFF"/>
</linearGradient>
<linearGradient id="paint1_linear_26002_7" x1="1372.88" y1="228.075" x2="1358.15" y2="-28.1533" gradientUnits="userSpaceOnUse">
<stop stop-color="#77DBDC"/>
<stop offset="1" stop-color="#DDFFFF"/>
</linearGradient>
</defs>
</svg>
