<svg width="339" height="767" viewBox="0 0 339 767" fill="none" xmlns="http://www.w3.org/2000/svg">
<path opacity="0.3" d="M244.379 323C154.202 323 101.331 267.132 85.8507 247.959C57.2877 256.386 32.0729 247.569 24.567 244.449C18.4666 241.917 14.7904 243.473 14.6285 243.54C11.1622 245.467 7.08446 245.075 3.89999 242.705C0.721241 240.334 -0.59639 236.216 0.251151 232.336C7.42001 199.339 35.6343 192.01 46.2562 189.249C52.8803 187.524 54.4403 182.357 54.7889 180.396C49.5151 90.3313 99.2152 20.4844 103.851 14.1787C107.197 8.85655 114.661 -2.64338 125.123 0.551453C131.345 2.44964 134.892 8.6407 134.972 17.6427L170.544 160.234C188.529 150.781 222.036 133.17 226.741 130.652C227.561 130.214 228.567 129.588 229.71 128.893C237.067 124.386 248.214 117.576 258.225 121.886C261.874 123.456 266.598 127.048 268.378 135.267C268.976 138.049 269.474 140.979 269.984 143.977C271.999 155.84 273.907 167.051 283.314 172.958C287.822 175.796 327.116 201.111 318.865 216.814C313.334 227.325 300.084 221.564 293.708 218.789C277.1 211.554 242.194 213.648 216.608 216.801C308.06 286.757 302.189 301.639 298.941 309.871C295.65 318.211 286.823 320.649 279.739 320.231C267.371 322.139 255.585 323 244.379 323ZM89.4657 225.897C92.7778 225.897 95.9772 227.533 97.8913 230.43C100.297 234.041 158.421 319.053 277.791 300.048C277.878 300.035 277.958 300.022 278.046 300.008C273.06 291.781 254.483 269.719 185.299 218.568C182.059 216.175 180.549 212.092 181.448 208.166C182.335 204.238 185.466 201.213 189.416 200.472C195.928 199.238 243.882 190.576 279.269 194.758C276.938 193.007 274.667 191.418 272.584 190.11C255.524 179.386 252.508 161.641 250.089 147.38C249.733 145.339 249.397 143.33 249.02 141.389C246.118 142.57 242.032 145.067 240.219 146.173C238.694 147.103 237.343 147.924 236.262 148.505C229.765 151.98 168.542 184.135 168.542 184.135C165.805 185.569 162.561 185.678 159.726 184.404C156.903 183.13 154.821 180.638 154.069 177.627L117.309 30.2675C106.552 46.5223 70.3968 107.06 75.0002 180.121C75.0345 180.571 75.027 181.03 74.9927 181.48C74.4156 189.505 68.7837 204.304 51.3149 208.846C40.154 211.743 31.2061 215.684 25.5152 223.592C27.6578 224.063 29.93 224.764 32.307 225.748C36.8361 227.64 60.7216 236.541 85.7555 226.603C86.9668 226.126 88.2296 225.897 89.4657 225.897Z" fill="#E1E1E1"/>
<path opacity="0.3" d="M218.99 738.95C262.981 706.019 268.353 659.433 268.897 644.419C285.911 638.103 294.989 624.59 297.51 620.325C299.561 616.861 301.923 616.279 302.027 616.252C304.422 615.927 306.268 614.247 306.955 611.927C307.639 609.608 306.777 607.117 304.945 605.531C289.388 592.038 272.945 598.763 266.754 601.294C262.892 602.871 260.243 600.918 259.356 600.087C229.01 554.187 179.235 538.233 174.669 536.847C171.091 535.471 163.247 532.582 159.311 537.962C156.969 541.161 157.502 545.479 160.753 549.904L195.518 632.515C183.289 634.467 160.506 638.105 157.291 638.593C156.731 638.68 156.011 638.741 155.199 638.819C149.963 639.305 142.036 640.051 138.728 645.811C137.522 647.91 136.53 651.389 138.666 656.052C139.391 657.629 140.219 659.241 141.066 660.891C144.419 667.419 147.585 673.59 145.155 679.909C143.993 682.941 134.078 709.651 143.842 714.305C150.382 717.418 154.74 709.766 156.837 706.082C162.294 696.485 180.088 684.761 193.722 676.956C174.677 744.51 182.981 749.632 187.574 752.465C192.228 755.335 197.426 753.302 200.728 750.511C207.459 746.926 213.523 743.043 218.99 738.95ZM259.07 634.967C257.454 636.177 256.492 638.144 256.617 640.257C256.763 642.899 259.48 705.633 194.302 739.945C194.254 739.971 194.21 739.993 194.163 740.019C193.588 734.181 194.587 716.625 209.641 666.385C210.347 664.034 209.591 661.489 207.718 659.9C205.849 658.306 203.216 657.973 201.018 659.053C197.391 660.829 170.831 674.112 155.097 689.076C155.594 687.37 156.121 685.765 156.659 684.366C161.062 672.899 156.048 663.134 152.015 655.288C151.443 654.161 150.872 653.057 150.347 651.972C152.194 651.489 155.1 651.216 156.389 651.094C157.473 650.991 158.432 650.899 159.171 650.787C163.611 650.112 205.23 643.454 205.23 643.454C207.089 643.155 208.712 642.023 209.629 640.366C210.541 638.713 210.645 636.736 209.912 634.991L173.984 549.617C185.173 553.626 224.937 569.98 249.396 607.334C249.544 607.567 249.715 607.788 249.896 607.995C253.111 611.702 261.267 616.872 271.449 612.71C277.952 610.048 283.758 608.705 289.425 610.488C288.552 611.501 287.699 612.673 286.899 614.021C285.382 616.599 276.983 629.667 261.138 633.957C260.373 634.166 259.673 634.516 259.07 634.967Z" fill="#E1E1E1"/>
</svg>
