<svg width="234" height="31" viewBox="0 0 234 31" fill="none" xmlns="http://www.w3.org/2000/svg">
<path fill-rule="evenodd" clip-rule="evenodd" d="M77.2085 19.5349C75.9914 19.5946 75.1855 20.7627 75.1855 20.7627C75.1855 20.7627 74.379 19.5946 73.1622 19.5349C71.6392 19.4676 70.6166 20.553 70.5418 21.7806C70.4748 22.9933 71.6464 24.2058 72.3859 24.9023C73.9385 26.3694 74.6403 26.8259 75.1701 27.3128V27.3423C75.1701 27.3423 75.1776 27.3351 75.1855 27.3278C75.1855 27.3278 75.1927 27.3351 75.2 27.3423V27.3128C75.7301 26.8259 76.4319 26.3694 77.9845 24.9023C78.7237 24.2058 79.8958 22.9933 79.8285 21.7806C79.754 20.553 78.7312 19.4601 77.2085 19.5349Z" fill="white"/>
<path d="M141.81 7.56025H142.707V0.16833H136.899V7.56025H137.797V1.01308H141.81V7.56025ZM144.576 9.67227H145.421V7.3384C145.759 7.56024 146.255 7.66552 146.762 7.66552C148.251 7.66552 149.233 6.55716 149.233 5.11038C149.233 3.70566 148.388 2.70259 147.037 2.70259C146.382 2.70259 145.748 2.98793 145.421 3.36782V2.80814H144.576V9.67227ZM146.794 3.49455C147.776 3.49455 148.336 4.18095 148.336 5.14199C148.336 6.14507 147.702 6.87384 146.688 6.87384C146.234 6.87384 145.843 6.78917 145.421 6.5041V4.14936C145.716 3.77962 146.234 3.49455 146.794 3.49455ZM154.196 6.37737C153.89 6.66244 153.351 6.87384 152.739 6.87384C151.81 6.87384 151.155 6.34576 151.081 5.44824H154.735C154.767 5.30034 154.788 5.1104 154.788 4.87782C154.788 3.56851 153.806 2.70259 152.581 2.70259C151.018 2.70259 150.131 3.80078 150.131 5.18404C150.131 6.68388 151.134 7.66552 152.676 7.66552C153.309 7.66552 153.995 7.46512 154.46 7.0426L154.196 6.37737ZM152.539 3.49455C153.362 3.49455 153.869 3.9803 153.911 4.76183H151.028C151.123 4.03307 151.673 3.49455 152.539 3.49455ZM155.939 7.56025H156.783V4.09657L158.494 6.30343H158.526L160.173 4.09657V7.56025H161.018V2.80814H160.268L158.536 5.16289L156.71 2.80814H155.939V7.56025ZM163.394 7.56025L166.14 4.02263V7.56025H166.984V2.80814H166.14L163.394 6.34577V2.80814H162.549V7.56025H163.394ZM170.596 2.80814C169.012 2.80814 168.473 3.57895 168.473 4.39208C168.473 5.17362 169.012 5.64862 169.498 5.76491L168.125 7.56025H169.149L170.311 5.97631H171.229V7.56025H172.074V2.80814H170.596ZM169.371 4.41324C169.371 3.96984 169.667 3.60041 170.459 3.60041H171.229V5.18404H170.258C169.836 5.18404 169.371 4.89898 169.371 4.41324ZM176.33 7.56025H177.228V1.01308H180.448V0.16833H176.33V7.56025ZM184.281 2.80814H183.321L182.222 5.81798C182.138 6.07143 182.064 6.31416 182.001 6.54616C181.905 6.30343 181.821 6.07144 181.716 5.82843L180.322 2.80814H179.308L181.589 7.56025L181.483 7.81372C181.166 8.57408 180.871 8.89045 180.469 8.89045C180.28 8.89045 180.1 8.80635 179.941 8.7324L179.667 9.37648C179.92 9.54554 180.205 9.67227 180.564 9.67227C181.24 9.67227 181.684 9.26019 182.381 7.56025L184.281 2.80814ZM188.822 0.0625C188.337 0.696134 187.682 0.400626 186.573 0.875924C185.063 1.50927 184.81 3.30431 184.81 4.70904C184.81 6.5357 185.781 7.66552 187.323 7.66552C188.77 7.66552 189.762 6.55716 189.762 5.22638C189.762 3.80078 188.918 2.86121 187.555 2.86121C186.753 2.86121 185.982 3.30431 185.676 3.96984H185.654C185.718 3.08275 185.971 2.07939 186.858 1.67833C187.904 1.20303 188.696 1.50926 189.277 0.727727L188.822 0.0625ZM185.707 4.86737C185.855 4.25491 186.446 3.65289 187.344 3.65289C188.326 3.65289 188.864 4.33958 188.864 5.26872C188.864 6.15552 188.231 6.87384 187.302 6.87384C186.362 6.87384 185.707 6.0923 185.707 4.86737ZM194.725 6.37737C194.419 6.66244 193.881 6.87384 193.268 6.87384C192.339 6.87384 191.684 6.34576 191.61 5.44824H195.264C195.296 5.30034 195.317 5.1104 195.317 4.87782C195.317 3.56851 194.335 2.70259 193.11 2.70259C191.547 2.70259 190.66 3.80078 190.66 5.18404C190.66 6.68388 191.663 7.66552 193.205 7.66552C193.839 7.66552 194.525 7.46512 194.99 7.0426L194.725 6.37737ZM193.068 3.49455C193.891 3.49455 194.398 3.9803 194.44 4.76183H191.558C191.653 4.03307 192.202 3.49455 193.068 3.49455ZM196.468 9.67227H197.313V7.3384C197.651 7.56024 198.147 7.66552 198.654 7.66552C200.143 7.66552 201.125 6.55716 201.125 5.11038C201.125 3.70566 200.28 2.70259 198.928 2.70259C198.274 2.70259 197.64 2.98793 197.313 3.36782V2.80814H196.468V9.67227ZM198.686 3.49455C199.668 3.49455 200.227 4.18095 200.227 5.14199C200.227 6.14507 199.594 6.87384 198.58 6.87384C198.126 6.87384 197.735 6.78917 197.313 6.5041V4.14936C197.608 3.77962 198.126 3.49455 198.686 3.49455ZM205.824 7.56025H206.669V2.80814H205.824V4.76183H203.184V2.80814H202.339V7.56025H203.184V5.5535H205.824V7.56025ZM208.454 3.81122C208.834 3.61084 209.182 3.46295 209.763 3.46295C210.703 3.46295 210.84 4.07512 210.84 4.9625C210.523 4.73021 210.027 4.65625 209.657 4.65625C208.633 4.65625 207.862 5.19478 207.862 6.16625C207.862 7.08495 208.454 7.63391 209.32 7.63391C210.101 7.63391 210.555 7.3068 210.84 6.94779V7.56025H211.643V4.64555C211.643 3.41018 211.167 2.70259 209.816 2.70259C209.225 2.70259 208.654 2.87165 208.232 3.13554L208.454 3.81122ZM209.615 6.87384C209.066 6.87384 208.76 6.57804 208.76 6.12391C208.76 5.57496 209.267 5.34269 209.773 5.34269C210.186 5.34269 210.545 5.44824 210.84 5.65936V6.26138C210.597 6.54615 210.238 6.87384 209.615 6.87384ZM212.456 3.65289H214.198V7.56025H215.043V3.65289H216.785V2.80814H212.456V3.65289ZM217.229 5.18404C217.229 6.60965 218.242 7.66552 219.763 7.66552C221.284 7.66552 222.298 6.60965 222.298 5.18404C222.298 3.75873 221.284 2.70259 219.763 2.70259C218.242 2.70259 217.229 3.75873 217.229 5.18404ZM218.126 5.18404C218.126 4.18096 218.834 3.49455 219.763 3.49455C220.713 3.49455 221.4 4.1914 221.4 5.18404C221.4 6.19815 220.713 6.87384 219.763 6.87384C218.813 6.87384 218.126 6.17669 218.126 5.18404ZM223.512 9.67227H224.357V7.3384C224.695 7.56024 225.191 7.66552 225.698 7.66552C227.187 7.66552 228.169 6.55716 228.169 5.11038C228.169 3.70566 227.324 2.70259 225.972 2.70259C225.318 2.70259 224.684 2.98793 224.357 3.36782V2.80814H223.512V9.67227ZM225.73 3.49455C226.712 3.49455 227.271 4.18095 227.271 5.14199C227.271 6.14507 226.638 6.87384 225.624 6.87384C225.17 6.87384 224.779 6.78917 224.357 6.5041V4.14936C224.652 3.77962 225.17 3.49455 225.73 3.49455ZM229.637 3.81122C230.017 3.61084 230.365 3.46295 230.946 3.46295C231.886 3.46295 232.023 4.07512 232.023 4.9625C231.706 4.73021 231.21 4.65625 230.841 4.65625C229.816 4.65625 229.045 5.19478 229.045 6.16625C229.045 7.08495 229.637 7.63391 230.503 7.63391C231.284 7.63391 231.738 7.3068 232.023 6.94779V7.56025H232.826V4.64555C232.826 3.41018 232.351 2.70259 230.999 2.70259C230.408 2.70259 229.838 2.87165 229.415 3.13554L229.637 3.81122ZM230.799 6.87384C230.249 6.87384 229.943 6.57804 229.943 6.12391C229.943 5.57496 230.45 5.34269 230.957 5.34269C231.369 5.34269 231.728 5.44824 232.023 5.65936V6.26138C231.78 6.54615 231.421 6.87384 230.799 6.87384ZM136.899 18.1447H137.797V12.1995L140.447 15.8424H140.584L143.203 12.1679V18.1447H144.101V10.7528H143.245L140.584 14.5439L137.807 10.7528H136.899V18.1447ZM145.653 15.7688C145.653 17.1941 146.667 18.2503 148.187 18.2503C149.708 18.2503 150.722 17.1941 150.722 15.7688C150.722 14.3432 149.708 13.2873 148.187 13.2873C146.667 13.2873 145.653 14.3432 145.653 15.7688ZM146.551 15.7688C146.551 14.7657 147.258 14.079 148.187 14.079C149.138 14.079 149.825 14.7761 149.825 15.7688C149.825 16.7826 149.138 17.4583 148.187 17.4583C147.237 17.4583 146.551 16.7614 146.551 15.7688ZM155.59 16.8458C155.273 17.2048 154.798 17.4583 154.228 17.4583C153.288 17.4583 152.517 16.8142 152.517 15.7688C152.517 14.7657 153.288 14.079 154.143 14.079C154.64 14.079 155.104 14.2057 155.506 14.5755L155.896 13.9102C155.453 13.4665 154.788 13.2873 154.027 13.2873C152.633 13.2873 151.62 14.3852 151.62 15.7688C151.62 17.2683 152.655 18.2503 154.165 18.2503C154.893 18.2503 155.59 17.9759 155.991 17.4583L155.59 16.8458ZM161.25 13.3926H160.142L158.135 15.7157L160.279 18.1447H161.451L159.17 15.6632L161.25 13.3926ZM157.09 18.1447H157.934V13.3926H157.09V18.1447ZM161.778 15.7688C161.778 17.1941 162.792 18.2503 164.313 18.2503C165.833 18.2503 166.847 17.1941 166.847 15.7688C166.847 14.3432 165.833 13.2873 164.313 13.2873C162.792 13.2873 161.778 14.3432 161.778 15.7688ZM162.676 15.7688C162.676 14.7657 163.383 14.079 164.313 14.079C165.263 14.079 165.95 14.7761 165.95 15.7688C165.95 16.7826 165.263 17.4583 164.313 17.4583C163.362 17.4583 162.676 16.7614 162.676 15.7688ZM168.062 18.1447C168.495 18.1447 169.213 18.1867 169.804 18.1867C171.282 18.1867 171.99 17.701 171.99 16.8035C171.99 16.2122 171.641 15.8216 170.881 15.6841V15.6632C171.451 15.5785 171.831 15.1352 171.831 14.5755C171.831 13.72 171.113 13.3505 169.783 13.3505C169.097 13.3505 168.473 13.3926 168.062 13.3926V18.1447ZM169.92 16.0118C170.68 16.0118 171.092 16.2441 171.092 16.7403C171.092 17.2367 170.659 17.5006 169.878 17.5006C169.498 17.5006 169.16 17.4794 168.906 17.4687V16.0118H169.92ZM169.846 14.0369C170.459 14.0369 170.934 14.2269 170.934 14.7442C170.934 15.2091 170.533 15.4834 169.973 15.4834H168.906V14.0686C169.118 14.0581 169.466 14.0369 169.846 14.0369ZM176.932 16.8458C176.615 17.2048 176.14 17.4583 175.57 17.4583C174.63 17.4583 173.859 16.8142 173.859 15.7688C173.859 14.7657 174.63 14.079 175.485 14.079C175.982 14.079 176.446 14.2057 176.847 14.5755L177.238 13.9102C176.795 13.4665 176.129 13.2873 175.369 13.2873C173.975 13.2873 172.962 14.3852 172.962 15.7688C172.962 17.2683 173.996 18.2503 175.506 18.2503C176.235 18.2503 176.932 17.9759 177.333 17.4583L176.932 16.8458ZM182.592 13.3926H181.484L179.477 15.7157L181.621 18.1447H182.793L180.512 15.6632L182.592 13.3926ZM178.432 18.1447H179.276V13.3926H178.432V18.1447ZM183.12 15.7688C183.12 17.1941 184.134 18.2503 185.655 18.2503C187.175 18.2503 188.189 17.1941 188.189 15.7688C188.189 14.3432 187.175 13.2873 185.655 13.2873C184.134 13.2873 183.12 14.3432 183.12 15.7688ZM184.018 15.7688C184.018 14.7657 184.725 14.079 185.655 14.079C186.605 14.079 187.292 14.7761 187.292 15.7688C187.292 16.7826 186.605 17.4583 185.655 17.4583C184.704 17.4583 184.018 16.7614 184.018 15.7688ZM190.248 18.1447L192.994 14.6071V18.1447H193.839V13.3926H192.994L190.248 16.9302V13.3926H189.404V18.1447H190.248ZM190.079 10.9639C190.079 11.7982 190.639 12.4423 191.684 12.4423C192.635 12.4423 193.247 11.7982 193.247 10.9639H192.455C192.413 11.534 192.149 11.7982 191.684 11.7982C191.177 11.7982 190.914 11.534 190.871 10.9639H190.079ZM197.429 15.7688C197.429 17.1941 198.443 18.2503 199.963 18.2503C201.484 18.2503 202.498 17.1941 202.498 15.7688C202.498 14.3432 201.484 13.2873 199.963 13.2873C198.443 13.2873 197.429 14.3432 197.429 15.7688ZM198.327 15.7688C198.327 14.7657 199.034 14.079 199.963 14.079C200.914 14.079 201.6 14.7761 201.6 15.7688C201.6 16.7826 200.914 17.4583 199.963 17.4583C199.013 17.4583 198.327 16.7614 198.327 15.7688ZM207.387 10.6469C206.901 11.2806 206.247 10.9851 205.138 11.4604C203.628 12.0937 203.374 13.8888 203.374 15.2935C203.374 17.1204 204.346 18.2503 205.887 18.2503C207.334 18.2503 208.327 17.1416 208.327 15.8108C208.327 14.3852 207.482 13.4457 206.12 13.4457C205.317 13.4457 204.546 13.8888 204.24 14.5543H204.219C204.282 13.6675 204.536 12.6641 205.423 12.2628C206.468 11.7875 207.26 12.0937 207.841 11.3125L207.387 10.6469ZM204.272 15.4518C204.42 14.8394 205.011 14.2373 205.908 14.2373C206.891 14.2373 207.429 14.924 207.429 15.8532C207.429 16.7403 206.796 17.4583 205.866 17.4583C204.927 17.4583 204.272 16.6768 204.272 15.4518ZM212.604 18.1447H213.448V13.3926H210.143L210.059 14.871C209.943 17.0674 209.267 17.4159 208.908 17.3843L208.971 18.2079C209.953 18.2079 210.671 17.7433 210.882 15.04L210.935 14.2373H212.604V18.1447ZM215.223 14.396C215.603 14.1953 215.951 14.0474 216.532 14.0474C217.472 14.0474 217.609 14.6599 217.609 15.5469C217.292 15.3147 216.796 15.2407 216.426 15.2407C215.402 15.2407 214.631 15.7792 214.631 16.751C214.631 17.6694 215.223 18.2186 216.089 18.2186C216.87 18.2186 217.324 17.8912 217.609 17.5322V18.1447H218.411V15.23C218.411 13.9946 217.936 13.2873 216.585 13.2873C215.994 13.2873 215.423 13.4561 215.001 13.72L215.223 14.396ZM216.384 17.4583C215.835 17.4583 215.529 17.1625 215.529 16.7084C215.529 16.1594 216.036 15.9271 216.542 15.9271C216.955 15.9271 217.313 16.0327 217.609 16.2441V16.8458C217.366 17.1309 217.007 17.4583 216.384 17.4583ZM223.48 16.8458C223.164 17.2048 222.688 17.4583 222.118 17.4583C221.178 17.4583 220.408 16.8142 220.408 15.7688C220.408 14.7657 221.178 14.079 222.034 14.079C222.53 14.079 222.994 14.2057 223.396 14.5755L223.787 13.9102C223.343 13.4665 222.678 13.2873 221.918 13.2873C220.523 13.2873 219.51 14.3852 219.51 15.7688C219.51 17.2683 220.545 18.2503 222.055 18.2503C222.783 18.2503 223.48 17.9759 223.882 17.4583L223.48 16.8458ZM224.315 14.2373H226.057V18.1447H226.902V14.2373H228.644V13.3926H224.315V14.2373ZM230.408 18.1447L233.154 14.6071V18.1447H233.998V13.3926H233.154L230.408 16.9302V13.3926H229.563V18.1447H230.408ZM136.266 28.7291H140.774V27.9372H137.364C137.955 27.4198 140.468 25.1918 140.468 23.1218C140.468 22.2031 139.824 21.2528 138.441 21.2528C137.406 21.2528 136.508 21.8865 136.329 22.9847L137.047 23.2802C137.195 22.4885 137.776 22.0976 138.367 22.0976C139.17 22.0976 139.571 22.6361 139.571 23.2909C139.571 24.8644 137.469 26.8601 136.266 28.043V28.7291ZM141.936 25.0332C141.936 27.2612 142.686 28.8138 144.354 28.8138C146.023 28.8138 146.73 27.2612 146.73 25.0332C146.73 22.8156 146.002 21.2528 144.333 21.2528C142.665 21.2528 141.936 22.8156 141.936 25.0332ZM142.834 25.0332C142.834 23.143 143.256 22.0448 144.333 22.0448C145.41 22.0448 145.832 23.1219 145.832 25.0332C145.832 26.9445 145.431 28.0216 144.354 28.0216C143.309 28.0216 142.834 26.9341 142.834 25.0332ZM147.786 28.7291H152.296V27.9372H148.885C149.476 27.4198 151.989 25.1918 151.989 23.1218C151.989 22.2031 151.345 21.2528 149.962 21.2528C148.927 21.2528 148.029 21.8865 147.85 22.9847L148.568 23.2802C148.716 22.4885 149.296 22.0976 149.888 22.0976C150.69 22.0976 151.092 22.6361 151.092 23.2909C151.092 24.8644 148.99 26.8601 147.786 28.043V28.7291ZM153.922 25.0543C154.165 24.9595 154.64 24.8644 155.083 24.8644C156.181 24.8644 156.879 25.5401 156.879 26.4272C156.879 27.3354 156.235 27.99 155.389 27.99C154.788 27.99 154.091 27.6733 153.732 27.0924L153.246 27.7153C153.689 28.4861 154.576 28.8347 155.369 28.8347C156.678 28.8347 157.776 27.9267 157.776 26.3953C157.776 24.9911 156.783 24.1041 155.442 24.1041C155.231 24.1041 155.009 24.1357 154.851 24.1777L155.126 22.182H157.723V21.3372H154.386L153.922 25.0543Z" fill="white"/>
<path d="M35.9141 11.7314H37.3185V2.42928L41.4654 8.12937H41.6803L45.7779 2.37967V11.7314H47.1823V0.165585H45.844L41.6803 6.0971L37.335 0.165585H35.9141V11.7314ZM59.7393 11.7314H61.1437V0.165585H59.7393V11.7314ZM53.4937 5.70068C55.3607 5.70068 56.3855 6.51005 56.3855 7.9806C56.3855 9.61645 55.3444 10.4423 53.4441 10.4423C52.9157 10.4423 52.5022 10.4096 52.0565 10.3928V5.79985C52.6347 5.73373 53.1141 5.70068 53.4937 5.70068ZM52.0565 0.165585H50.6521V11.7314C51.3295 11.7314 52.2876 11.7647 53.2791 11.7647C56.1541 11.7647 57.8723 10.3765 57.8723 7.94784C57.8723 5.76651 56.5009 4.37889 53.5929 4.37889C53.2133 4.37889 52.6843 4.41165 52.0565 4.46124V0.165585ZM69.7359 11.7314V7.30345C70.3139 7.35304 71.0081 7.3693 71.4706 7.3693C74.2957 7.3693 75.6343 5.61774 75.6343 3.72612C75.6343 1.91715 74.6597 0.132536 71.3549 0.132536C70.6279 0.132536 68.9755 0.165585 68.3314 0.165585V11.7314H69.7359ZM71.4869 1.45401C73.3211 1.45401 74.147 2.3327 74.147 3.70958C74.147 5.16912 73.123 6.04751 71.421 6.04751C70.8428 6.04751 70.2976 6.01446 69.7359 5.96487V1.48737C70.2808 1.47084 71.0243 1.45401 71.4869 1.45401ZM83.6144 11.7314H85.0188V0.165585C84.3417 0.165585 83.086 0.115997 82.3091 0.115997C79.1864 0.115997 77.7989 1.86754 77.7989 3.94911C77.7989 5.60149 78.8889 6.70841 80.0788 7.18777L76.8732 11.7314H78.4597L81.4498 7.43511H83.6144V11.7314ZM81.2848 6.11363C80.2771 5.94863 79.2856 5.08937 79.2856 3.86647C79.2856 2.4951 80.2438 1.43779 82.0449 1.43779C82.5405 1.43779 83.2348 1.47084 83.6144 1.48737V6.11363H81.2848ZM87.0018 13.8793H88.3235V11.7314H97.3119V13.8793H98.6339V10.4096H97.0639V0.165585H90.2569L90.1409 2.47887C89.8936 7.31972 88.72 9.8148 88.2412 10.4096H87.0018V13.8793ZM91.463 3.55241L91.6118 1.48737H95.6595V10.4096H89.7944C90.2236 9.88063 91.182 7.5343 91.463 3.55241ZM99.8064 5.94862C99.8064 9.46768 102.351 11.8964 105.705 11.8964C109.059 11.8964 111.604 9.38503 111.604 5.94862C111.604 2.42926 109.059 0 105.705 0C102.268 0 99.8064 2.59427 99.8064 5.94862ZM101.294 5.94862C101.294 3.25516 103.194 1.32207 105.705 1.32207C108.184 1.32207 110.117 3.25516 110.117 5.94862C110.117 8.55913 108.349 10.5749 105.705 10.5749C103.227 10.5749 101.294 8.57537 101.294 5.94862ZM114.165 11.7314H115.57V2.42928L119.717 8.12937H119.931L124.029 2.37967V11.7314H125.434V0.165585H124.095L119.931 6.0971L115.586 0.165585H114.165V11.7314Z" fill="white"/>
<path d="M2.47769 30.7256H0V26.2658H1.23885C1.56916 25.8253 1.90496 25.016 2.24628 23.8374C2.59891 22.6372 2.81902 21.1889 2.90717 19.4931L3.00635 17.1807H10.5551V26.2658H12.1246V30.7256H9.6466V28.7436H2.47769V30.7256ZM5.56669 19.6584L5.38487 21.6074C5.30773 22.5325 5.13171 23.4796 4.85621 24.4487C4.59203 25.3848 4.3554 25.9904 4.14603 26.2658H7.91215V19.6584H5.56669Z" fill="white"/>
<path d="M12.8203 22.9621C12.8203 21.2552 13.3875 19.8345 14.522 18.7003C15.6672 17.5552 17.1484 16.9824 18.9653 16.9824C20.7713 16.9824 22.2416 17.5276 23.3758 18.6177C24.5322 19.7081 25.1102 21.156 25.1102 22.9621C25.1102 24.702 24.5267 26.1337 23.3592 27.2569C22.203 28.3803 20.7383 28.942 18.9653 28.942C17.1702 28.942 15.6947 28.3968 14.5385 27.3064C13.393 26.2164 12.8203 24.7682 12.8203 22.9621ZM15.6286 22.9621C15.6286 23.9423 15.9534 24.7736 16.6033 25.4566C17.2418 26.1282 18.0292 26.464 18.9653 26.464C20.0226 26.464 20.843 26.1392 21.4267 25.4893C22.0102 24.8177 22.3022 23.9753 22.3022 22.9621C22.3022 21.9161 21.9826 21.0736 21.3441 20.4348C20.6942 19.7852 19.9013 19.4601 18.9653 19.4601C17.9964 19.4601 17.1978 19.7852 16.5702 20.4348C15.9424 21.0847 15.6286 21.9271 15.6286 22.9621Z" fill="white"/>
<path d="M27.25 28.7445V17.1816H34.2209V19.6594H29.8927V21.493C30.2123 21.4268 30.6528 21.3938 31.2142 21.3938C32.3376 21.3938 33.2407 21.7186 33.9233 22.3685C34.6173 23.018 34.9641 23.8825 34.9641 24.9619C34.9641 26.1842 34.5703 27.1339 33.783 27.8113C32.9956 28.4884 31.8916 28.8272 30.471 28.8272C29.8875 28.8272 29.2431 28.8106 28.5384 28.7776C28.3401 28.7776 28.1391 28.7747 27.9355 28.7692C27.7317 28.7637 27.5774 28.7581 27.473 28.7526C27.3683 28.7471 27.2938 28.7445 27.25 28.7445ZM30.9996 23.8715C30.6583 23.8715 30.2894 23.9046 29.8927 23.9707V26.2668C30.4214 26.3219 30.752 26.3495 30.8839 26.3495C31.842 26.3495 32.3211 25.9528 32.3211 25.1599C32.3211 24.7745 32.2109 24.4634 31.9908 24.2267C31.7704 23.9898 31.4401 23.8715 30.9996 23.8715Z" fill="white"/>
<path d="M40.088 24.8129V28.7444H37.4453V17.1815C37.9516 17.1815 38.5079 17.176 39.1136 17.1649C39.7302 17.1539 40.3525 17.1484 40.98 17.1484C42.6101 17.1484 43.7993 17.5118 44.5481 18.2385C45.2861 18.9435 45.655 19.8572 45.655 20.9807C45.655 22.0597 45.2641 22.9793 44.482 23.7394C43.7002 24.4881 42.6652 24.8625 41.3768 24.8625C40.804 24.8625 40.3745 24.846 40.088 24.8129ZM41.2445 19.6261C41.2335 19.6261 41.1839 19.6287 41.0957 19.6342C41.0076 19.6398 40.8701 19.6453 40.6828 19.6508C40.4957 19.6563 40.2974 19.6592 40.088 19.6592V22.3022C40.5506 22.3573 40.9528 22.3848 41.2941 22.3848C41.7456 22.3848 42.1171 22.2662 42.4091 22.0296C42.7009 21.7927 42.8467 21.4377 42.8467 20.9642C42.8467 20.0721 42.3126 19.6261 41.2445 19.6261Z" fill="white"/>
<path d="M46.9766 22.9621C46.9766 21.2552 47.5438 19.8345 48.6782 18.7003C49.8234 17.5552 51.3047 16.9824 53.1215 16.9824C54.9276 16.9824 56.3978 17.5276 57.532 18.6177C58.6885 19.7081 59.2664 21.156 59.2664 22.9621C59.2664 24.702 58.683 26.1337 57.5155 27.2569C56.3593 28.3803 54.8945 28.942 53.1215 28.942C51.3265 28.942 49.851 28.3968 48.6948 27.3064C47.5493 26.2164 46.9766 24.7682 46.9766 22.9621ZM49.7848 22.9621C49.7848 23.9423 50.1096 24.7736 50.7595 25.4566C51.3981 26.1282 52.1854 26.464 53.1215 26.464C54.1788 26.464 54.9992 26.1392 55.583 25.4893C56.1664 24.8177 56.4584 23.9753 56.4584 22.9621C56.4584 21.9161 56.1389 21.0736 55.5003 20.4348C54.8504 19.7852 54.0576 19.4601 53.1215 19.4601C52.1526 19.4601 51.354 19.7852 50.7265 20.4348C50.0986 21.0847 49.7848 21.9271 49.7848 22.9621Z" fill="white"/>
<path d="M68.4342 28.7445H61.4141V17.1816H68.2692V19.6594H64.0568V21.691H67.7736V24.169H64.0568V26.2668H68.4342V28.7445Z" fill="white"/>
<path d="M83.0324 30.7266H80.5547V26.2668H81.7935C82.1238 25.8263 82.4596 25.0169 82.801 23.8384C83.1536 22.6381 83.3737 21.1899 83.4619 19.494L83.561 17.1816H91.1098V26.2668H92.6793V30.7266H90.2013V28.7445H83.0324V30.7266ZM86.1214 19.6594L85.9396 21.6084C85.8624 22.5335 85.6864 23.4806 85.4109 24.4497C85.1467 25.3858 84.9101 25.9913 84.7007 26.2668H88.4668V19.6594H86.1214Z" fill="white"/>
<path d="M101.52 28.7445H94.5V17.1816H101.355V19.6594H97.1427V21.691H100.86V24.169H97.1427V26.2668H101.52V28.7445Z" fill="white"/>
<path d="M113.135 28.7445H110.492V19.6594H107.948L107.7 21.8398C107.469 23.8439 107.141 25.3774 106.717 26.4403C106.294 27.5028 105.781 28.1938 105.181 28.5134C104.581 28.8327 103.802 28.9098 102.844 28.7445L102.893 26.1015C103.136 26.1456 103.337 26.1427 103.496 26.0934C103.656 26.0438 103.829 25.909 104.017 25.6886C104.204 25.4574 104.375 25.1103 104.529 24.6478C104.87 23.6569 105.129 21.939 105.305 19.494L105.47 17.1816H113.135V28.7445Z" fill="white"/>
<path d="M115.273 22.9621C115.273 21.2552 115.841 19.8345 116.975 18.7003C118.12 17.5552 119.602 16.9824 121.418 16.9824C123.224 16.9824 124.695 17.5276 125.829 18.6177C126.985 19.7081 127.563 21.156 127.563 22.9621C127.563 24.702 126.98 26.1337 125.812 27.2569C124.656 28.3803 123.191 28.942 121.418 28.942C119.623 28.942 118.148 28.3968 116.992 27.3064C115.846 26.2164 115.273 24.7682 115.273 22.9621ZM118.082 22.9621C118.082 23.9423 118.407 24.7736 119.056 25.4566C119.695 26.1282 120.482 26.464 121.418 26.464C122.476 26.464 123.296 26.1392 123.88 25.4893C124.463 24.8177 124.755 23.9753 124.755 22.9621C124.755 21.9161 124.436 21.0736 123.797 20.4348C123.147 19.7852 122.354 19.4601 121.418 19.4601C120.45 19.4601 119.651 19.7852 119.023 20.4348C118.396 21.0847 118.082 21.9271 118.082 22.9621Z" fill="white"/>
</svg>
