<svg width="311" height="139" viewBox="0 0 311 139" fill="none" xmlns="http://www.w3.org/2000/svg">
<path fill-rule="evenodd" clip-rule="evenodd" d="M31.0044 210.958C-16.2654 175.447 -6.57655 127.316 40.3996 107.066C107.047 78.3052 108.809 29.5877 177.511 21.0768C291.428 6.98987 380.389 169.284 235.351 221.816C162.831 247.936 72.1085 241.479 31.0044 210.958Z" fill="#5DC5C6"/>
<path d="M146.983 20.1955C277.048 -5.33718 342.815 192.174 221.558 252.631C196.895 264.663 169.884 271.12 144.047 272" stroke="white" stroke-width="2.61581"/>
<path d="M170.469 2C190.14 2.88044 210.986 7.86957 231.538 17.8479" stroke="white" stroke-width="2.61581"/>
<path d="M109.109 12.5637C123.496 6.69417 139.057 3.17243 155.498 2.29199" stroke="white" stroke-width="2.61581"/>
<path d="M147.857 243.827C50.9684 243.827 12.2131 161.36 29.242 92.392C29.8292 90.3377 30.1228 88.2833 31.0036 86.5225" stroke="white" stroke-width="2.61581"/>
<path d="M236.239 135.24C238 130.838 238.881 126.143 238.881 120.86C238.881 99.7295 221.559 82.4143 200.419 82.7078C190.143 82.7078 180.748 86.523 173.995 93.273C166.949 86.8165 157.847 82.7078 147.571 82.7078C126.138 82.7078 109.109 100.023 109.109 121.153C109.109 126.436 109.99 131.132 111.752 135.534C111.752 135.534 111.752 135.534 112.045 135.827C112.926 137.882 113.807 139.936 114.981 141.697C121.734 153.436 139.35 178.969 174.289 193.936C174.289 193.936 212.163 176.034 232.128 142.871C233.596 140.523 235.064 138.175 236.239 135.534C236.239 135.24 236.239 135.24 236.239 135.24Z" fill="#E40032"/>
<path d="M35.4161 2.58866C35.4161 2.58866 58.9042 3.76258 76.2266 19.9039C76.2266 19.9039 79.4562 21.9583 82.9794 19.6104C86.209 17.2626 90.9067 14.6213 96.7787 17.8496C96.7787 17.8496 94.7235 18.4365 93.8427 21.6648C92.6683 24.5996 89.7323 30.7626 83.5666 34.2844C83.5666 34.2844 92.0811 62.7518 65.9506 85.3496C65.9506 85.3496 56.5554 93.567 59.4914 46.317C59.4914 46.317 44.8113 63.6322 42.4625 72.1431C39.8201 80.654 39.2329 68.3279 40.1137 63.6322C40.7009 58.6431 36.8841 55.1213 34.2417 52.1866C31.8929 48.9583 37.4713 47.7844 39.5265 46.9039C41.2881 46.317 58.317 39.2735 58.317 39.2735L33.0673 4.93649C33.0673 4.93649 28.6633 1.70823 35.4161 2.58866Z" fill="white"/>
<path d="M113.38 82.8174L124.125 92.0243L137.786 88.3752L132.367 101.459L140.052 113.349L125.958 112.229L117.047 123.226L113.755 109.449L100.562 104.356L112.622 96.9623L113.38 82.8174Z" fill="white"/>
</svg>
