<svg width="279" height="177" viewBox="0 0 279 177" fill="none" xmlns="http://www.w3.org/2000/svg">
<path d="M55.6625 35.229L59.0141 46.7119L70.3446 50.4634L60.4613 57.1856L60.4042 69.1255L50.9589 61.794L39.5712 65.4312L43.6273 54.1958L36.6576 44.4839L48.5975 44.8648L55.6625 35.229Z" fill="#E4012F"/>
<path d="M57.7785 107.249C55.36 108.639 52.8082 110.277 50.2184 112.124L49.9708 111.763C52.5988 109.896 55.1315 108.259 57.569 106.868L57.7785 107.249Z" fill="#11100D"/>
<path d="M23.1184 138.594L22.7566 138.366C26.8508 131.891 36.4295 122.141 46.0652 114.676L46.3318 115.019C36.7151 122.446 27.1746 132.158 23.1184 138.594Z" fill="#11100D"/>
<path d="M257.082 83.4456C263.118 89.0252 268.069 96.0711 271.821 104.374L271.402 104.621C267.67 96.3758 262.756 89.387 256.777 83.8455L257.082 83.4456Z" fill="#11100D"/>
<path d="M274.677 111.591C274.943 112.372 275.21 113.191 275.457 114.009C279.99 128.615 278.485 148.135 271.458 166.244C264.146 185.097 252.206 199.132 238.724 204.768L238.571 204.292C251.939 198.713 263.765 184.792 271.02 166.073C278.009 148.077 279.495 128.692 275 114.219C274.753 113.4 274.486 112.6 274.22 111.82L274.677 111.591Z" fill="#11100D"/>
<path fill-rule="evenodd" clip-rule="evenodd" d="M52.502 198.828C17.2724 170.549 24.4516 132.12 59.4146 116.01C109.117 93.1199 110.374 54.0627 161.694 47.3406C246.417 36.2195 312.915 165.769 204.751 207.587C150.65 228.497 83.0088 223.317 52.502 198.828Z" fill="#00ADB1"/>
<mask id="mask0_14316_2235" style="mask-type:luminance" maskUnits="userSpaceOnUse" x="58" y="52" width="178" height="231">
<path d="M155.602 53.8157C147.414 57.9861 150.822 68.0217 150.822 68.0217C149.585 67.0886 147.261 67.0506 147.261 67.0506C137.054 53.5681 123.153 68.8025 123.153 68.8025L94.1124 106.508C94.1124 106.508 94.1124 98.4715 85.1432 96.929C73.089 95.0818 70.3087 108.679 70.004 113.915C69.6993 119.171 67.2237 117.933 60.7301 139.871C54.2364 161.808 64.1387 179.728 77.4117 196.733C84.629 205.969 89.3136 265.859 92.4938 282.998H200.582C204.562 252.929 213.074 170.149 213.074 170.149C230.841 147.907 229.908 127.969 230.06 120.866C230.213 113.763 235.164 102.794 235.011 98.4715C234.859 94.1487 229.756 87.5027 220.329 90.74C210.903 93.9773 205.952 114.696 205.952 114.696C205.952 114.696 194.831 76.3816 191.574 67.7171C188.337 59.0715 183.081 53.511 176.588 54.4251C170.094 55.3582 169.332 60.2903 169.332 60.2903C169.332 60.2903 165.447 52.8254 159.373 52.8254C158.211 52.8635 156.935 53.1492 155.602 53.8157Z" fill="white"/>
</mask>
<g mask="url(#mask0_14316_2235)">
<path d="M96.8915 262.222C96.8915 262.222 90.7025 213.739 77.4296 196.733C64.1376 179.747 54.2542 161.809 60.7479 139.871C67.2416 117.934 69.7171 119.171 70.0218 113.915C70.3265 108.66 73.1068 95.0629 85.161 96.9291C94.1303 98.4716 94.1303 106.508 94.1303 106.508L123.171 68.8026C123.171 68.8026 137.072 53.5491 147.279 67.0506C147.279 67.0506 149.603 67.1077 150.84 68.0218C150.84 68.0218 147.432 57.9862 155.62 53.8157C163.809 49.6453 169.369 60.3094 169.369 60.3094C169.369 60.3094 170.15 55.3582 176.625 54.4442C183.118 53.5111 188.374 59.0716 191.611 67.7362C194.849 76.3817 205.989 114.715 205.989 114.715C205.989 114.715 210.94 94.0155 220.366 90.7592C229.793 87.5218 234.896 94.1488 235.048 98.4906C235.201 102.813 230.25 113.782 230.097 120.885C229.945 127.988 230.878 147.926 213.111 170.168C213.111 170.168 210.635 174.263 207.703 181.042C203.78 190.087 199.019 203.932 198.124 219.299L197.972 260.07C197.972 260.07 197.972 263.155 193.801 263.003C189.631 262.851 100.948 263.003 100.948 263.003C100.948 263.003 97.558 263.86 96.8915 262.222Z" fill="white"/>
</g>
<mask id="mask1_14316_2235" style="mask-type:luminance" maskUnits="userSpaceOnUse" x="58" y="52" width="178" height="231">
<path d="M155.602 53.8157C147.414 57.9861 150.822 68.0217 150.822 68.0217C149.585 67.0886 147.261 67.0506 147.261 67.0506C137.054 53.5681 123.153 68.8025 123.153 68.8025L94.1124 106.508C94.1124 106.508 94.1124 98.4715 85.1432 96.929C73.089 95.0818 70.3087 108.679 70.004 113.915C69.6993 119.171 67.2237 117.933 60.7301 139.871C54.2364 161.808 64.1387 179.728 77.4117 196.733C84.629 205.969 89.3136 265.859 92.4938 282.998H200.582C204.562 252.929 213.074 170.149 213.074 170.149C230.841 147.907 229.908 127.969 230.06 120.866C230.213 113.763 235.164 102.794 235.011 98.4715C234.859 94.1487 229.756 87.5027 220.329 90.74C210.903 93.9773 205.952 114.696 205.952 114.696C205.952 114.696 194.831 76.3816 191.574 67.7171C188.337 59.0715 183.081 53.511 176.588 54.4251C170.094 55.3582 169.332 60.2903 169.332 60.2903C169.332 60.2903 165.447 52.8254 159.373 52.8254C158.211 52.8635 156.935 53.1492 155.602 53.8157Z" fill="white"/>
</mask>
<g mask="url(#mask1_14316_2235)">
<path d="M111.611 175.539C111.192 167.293 102.794 158.362 96.662 151.849C90.0541 144.822 88.5497 137.034 91.6347 125.798C95.2719 112.64 93.6532 98.7384 93.6532 98.6051L94.3007 98.5289C94.3197 98.6622 95.9384 112.697 92.2631 125.97C89.2353 136.958 90.6825 144.575 97.1381 151.411C103.346 158 111.839 167.027 112.258 175.52L111.611 175.539Z" fill="#010203"/>
</g>
<mask id="mask2_14316_2235" style="mask-type:luminance" maskUnits="userSpaceOnUse" x="58" y="52" width="178" height="231">
<path d="M155.602 53.8157C147.414 57.9861 150.822 68.0217 150.822 68.0217C149.585 67.0886 147.261 67.0506 147.261 67.0506C137.054 53.5681 123.153 68.8025 123.153 68.8025L94.1124 106.508C94.1124 106.508 94.1124 98.4715 85.1432 96.929C73.089 95.0818 70.3087 108.679 70.004 113.915C69.6993 119.171 67.2237 117.933 60.7301 139.871C54.2364 161.808 64.1387 179.728 77.4117 196.733C84.629 205.969 89.3136 265.859 92.4938 282.998H200.582C204.562 252.929 213.074 170.149 213.074 170.149C230.841 147.907 229.908 127.969 230.06 120.866C230.213 113.763 235.164 102.794 235.011 98.4715C234.859 94.1487 229.756 87.5027 220.329 90.74C210.903 93.9773 205.952 114.696 205.952 114.696C205.952 114.696 194.831 76.3816 191.574 67.7171C188.337 59.0715 183.081 53.511 176.588 54.4251C170.094 55.3582 169.332 60.2903 169.332 60.2903C169.332 60.2903 165.447 52.8254 159.373 52.8254C158.211 52.8635 156.935 53.1492 155.602 53.8157Z" fill="white"/>
</mask>
<g mask="url(#mask2_14316_2235)">
<path d="M152.23 121.494C151.468 119.952 133.834 83.7321 136.71 73.8298C137.548 70.9733 139.109 68.8976 141.337 67.6979C145.488 65.4509 150.478 66.9172 150.687 66.9933L150.84 67.0505L150.897 67.2028C151.03 67.6027 164.17 107.06 168.016 112.525L167.483 112.887C163.674 107.479 151.392 70.7258 150.344 67.5646C149.468 67.3361 145.165 66.3649 141.642 68.2692C139.566 69.3928 138.1 71.3351 137.319 74.0202C136.157 78.0002 138.462 87.4074 143.984 101.233C148.173 111.725 152.763 121.114 152.801 121.209L152.23 121.494Z" fill="#010203"/>
</g>
<mask id="mask3_14316_2235" style="mask-type:luminance" maskUnits="userSpaceOnUse" x="58" y="52" width="178" height="231">
<path d="M155.602 53.8157C147.414 57.9861 150.822 68.0217 150.822 68.0217C149.585 67.0886 147.261 67.0506 147.261 67.0506C137.054 53.5681 123.153 68.8025 123.153 68.8025L94.1124 106.508C94.1124 106.508 94.1124 98.4715 85.1432 96.929C73.089 95.0818 70.3087 108.679 70.004 113.915C69.6993 119.171 67.2237 117.933 60.7301 139.871C54.2364 161.808 64.1387 179.728 77.4117 196.733C84.629 205.969 89.3136 265.859 92.4938 282.998H200.582C204.562 252.929 213.074 170.149 213.074 170.149C230.841 147.907 229.908 127.969 230.06 120.866C230.213 113.763 235.164 102.794 235.011 98.4715C234.859 94.1487 229.756 87.5027 220.329 90.74C210.903 93.9773 205.952 114.696 205.952 114.696C205.952 114.696 194.831 76.3816 191.574 67.7171C188.337 59.0715 183.081 53.511 176.588 54.4251C170.094 55.3582 169.332 60.2903 169.332 60.2903C169.332 60.2903 165.447 52.8254 159.373 52.8254C158.211 52.8635 156.935 53.1492 155.602 53.8157Z" fill="white"/>
</mask>
<g mask="url(#mask3_14316_2235)">
<path d="M140.876 154.268C140.191 137.281 136.839 128.579 134.611 122.847C134.421 122.371 134.249 121.914 134.078 121.476C133.583 120.181 132.935 118.695 132.173 116.962C129.488 110.831 125.794 102.414 124.994 92.5493C124.69 88.7597 125.566 85.6747 127.622 83.3705C131.126 79.4477 136.706 79.2192 136.953 79.2192L136.972 79.8666C136.915 79.8666 131.412 80.0952 128.098 83.8085C126.175 85.9794 125.337 88.893 125.642 92.4921C126.442 102.261 130.098 110.602 132.783 116.715C133.545 118.448 134.192 119.933 134.687 121.247C134.859 121.685 135.03 122.142 135.22 122.618C137.448 128.407 140.838 137.148 141.524 154.249L140.876 154.268Z" fill="#010203"/>
</g>
<mask id="mask4_14316_2235" style="mask-type:luminance" maskUnits="userSpaceOnUse" x="58" y="52" width="178" height="231">
<path d="M155.602 53.8157C147.414 57.9861 150.822 68.0217 150.822 68.0217C149.585 67.0886 147.261 67.0506 147.261 67.0506C137.054 53.5681 123.153 68.8025 123.153 68.8025L94.1124 106.508C94.1124 106.508 94.1124 98.4715 85.1432 96.929C73.089 95.0818 70.3087 108.679 70.004 113.915C69.6993 119.171 67.2237 117.933 60.7301 139.871C54.2364 161.808 64.1387 179.728 77.4117 196.733C84.629 205.969 89.3136 265.859 92.4938 282.998H200.582C204.562 252.929 213.074 170.149 213.074 170.149C230.841 147.907 229.908 127.969 230.06 120.866C230.213 113.763 235.164 102.794 235.011 98.4715C234.859 94.1487 229.756 87.5027 220.329 90.74C210.903 93.9773 205.952 114.696 205.952 114.696C205.952 114.696 194.831 76.3816 191.574 67.7171C188.337 59.0715 183.081 53.511 176.588 54.4251C170.094 55.3582 169.332 60.2903 169.332 60.2903C169.332 60.2903 165.447 52.8254 159.373 52.8254C158.211 52.8635 156.935 53.1492 155.602 53.8157Z" fill="white"/>
</mask>
<g mask="url(#mask4_14316_2235)">
<path d="M182.527 105.461C176.186 95.6343 167.807 56.3867 167.445 54.73L168.073 54.5967C168.092 54.6919 170.263 64.8989 173.196 76.1914C177.062 91.1021 180.47 101.1 183.06 105.118L182.527 105.461Z" fill="#010203"/>
</g>
<mask id="mask5_14316_2235" style="mask-type:luminance" maskUnits="userSpaceOnUse" x="58" y="52" width="178" height="231">
<path d="M155.602 53.8157C147.414 57.9861 150.822 68.0217 150.822 68.0217C149.585 67.0886 147.261 67.0506 147.261 67.0506C137.054 53.5681 123.153 68.8025 123.153 68.8025L94.1124 106.508C94.1124 106.508 94.1124 98.4715 85.1432 96.929C73.089 95.0818 70.3087 108.679 70.004 113.915C69.6993 119.171 67.2237 117.933 60.7301 139.871C54.2364 161.808 64.1387 179.728 77.4117 196.733C84.629 205.969 89.3136 265.859 92.4938 282.998H200.582C204.562 252.929 213.074 170.149 213.074 170.149C230.841 147.907 229.908 127.969 230.06 120.866C230.213 113.763 235.164 102.794 235.011 98.4715C234.859 94.1487 229.756 87.5027 220.329 90.74C210.903 93.9773 205.952 114.696 205.952 114.696C205.952 114.696 194.831 76.3816 191.574 67.7171C188.337 59.0715 183.081 53.511 176.588 54.4251C170.094 55.3582 169.332 60.2903 169.332 60.2903C169.332 60.2903 165.447 52.8254 159.373 52.8254C158.211 52.8635 156.935 53.1492 155.602 53.8157Z" fill="white"/>
</mask>
<g mask="url(#mask5_14316_2235)">
<path d="M187.421 153.906C187.23 146.555 191.344 136.653 197.19 130.407C206.807 120.105 206.921 105.442 206.921 105.289H207.568C207.568 105.442 207.454 120.371 197.666 130.845C191.915 136.996 187.878 146.689 188.068 153.887L187.421 153.906Z" fill="#010203"/>
</g>
<mask id="mask6_14316_2235" style="mask-type:luminance" maskUnits="userSpaceOnUse" x="58" y="52" width="178" height="231">
<path d="M155.602 53.8157C147.414 57.9861 150.822 68.0217 150.822 68.0217C149.585 67.0886 147.261 67.0506 147.261 67.0506C137.054 53.5681 123.153 68.8025 123.153 68.8025L94.1124 106.508C94.1124 106.508 94.1124 98.4715 85.1432 96.929C73.089 95.0818 70.3087 108.679 70.004 113.915C69.6993 119.171 67.2237 117.933 60.7301 139.871C54.2364 161.808 64.1387 179.728 77.4117 196.733C84.629 205.969 89.3136 265.859 92.4938 282.998H200.582C204.562 252.929 213.074 170.149 213.074 170.149C230.841 147.907 229.908 127.969 230.06 120.866C230.213 113.763 235.164 102.794 235.011 98.4715C234.859 94.1487 229.756 87.5027 220.329 90.74C210.903 93.9773 205.952 114.696 205.952 114.696C205.952 114.696 194.831 76.3816 191.574 67.7171C188.337 59.0715 183.081 53.511 176.588 54.4251C170.094 55.3582 169.332 60.2903 169.332 60.2903C169.332 60.2903 165.447 52.8254 159.373 52.8254C158.211 52.8635 156.935 53.1492 155.602 53.8157Z" fill="white"/>
</mask>
<g mask="url(#mask6_14316_2235)">
<path d="M125.92 98.3442L108.99 119.914L109.499 120.314L126.429 98.7439L125.92 98.3442Z" fill="#010203"/>
</g>
<mask id="mask7_14316_2235" style="mask-type:luminance" maskUnits="userSpaceOnUse" x="58" y="52" width="178" height="231">
<path d="M155.602 53.8157C147.414 57.9861 150.822 68.0217 150.822 68.0217C149.585 67.0886 147.261 67.0506 147.261 67.0506C137.054 53.5681 123.153 68.8025 123.153 68.8025L94.1124 106.508C94.1124 106.508 94.1124 98.4715 85.1432 96.929C73.089 95.0818 70.3087 108.679 70.004 113.915C69.6993 119.171 67.2237 117.933 60.7301 139.871C54.2364 161.808 64.1387 179.728 77.4117 196.733C84.629 205.969 89.3136 265.859 92.4938 282.998H200.582C204.562 252.929 213.074 170.149 213.074 170.149C230.841 147.907 229.908 127.969 230.06 120.866C230.213 113.763 235.164 102.794 235.011 98.4715C234.859 94.1487 229.756 87.5027 220.329 90.74C210.903 93.9773 205.952 114.696 205.952 114.696C205.952 114.696 194.831 76.3816 191.574 67.7171C188.337 59.0715 183.081 53.511 176.588 54.4251C170.094 55.3582 169.332 60.2903 169.332 60.2903C169.332 60.2903 165.447 52.8254 159.373 52.8254C158.211 52.8635 156.935 53.1492 155.602 53.8157Z" fill="white"/>
</mask>
<g mask="url(#mask7_14316_2235)">
<path d="M131.279 114.52L123.601 126.518L124.146 126.867L131.824 114.869L131.279 114.52Z" fill="#010203"/>
</g>
<path d="M236.878 179.518C236.878 179.518 239.277 174.357 236.021 169.959C231.203 163.427 219.758 160.551 219.758 160.551L213.093 170.168C213.093 170.168 223.243 172.929 231.736 182.394C231.736 182.394 235.24 180.756 236.878 179.518Z" fill="#D7D7D8"/>
<path d="M207.663 181.042C207.663 181.042 210.919 173.196 213.071 170.168C213.071 170.168 224.478 173.881 231.714 182.394C231.714 182.394 223.107 186.259 220.707 186.945C220.726 186.945 214.652 183.212 207.663 181.042Z" fill="#00528C"/>
<path d="M191.627 17.2337L204.576 10.1116C204.576 10.1116 233.236 27.4598 235.007 49.1879C236.702 69.9066 227.257 83.1225 202.501 102.946L199.416 92.5487C199.416 92.5487 221.848 76.1718 223.715 60.1757C226.952 32.6966 191.627 17.2337 191.627 17.2337Z" fill="white"/>
<path d="M213.893 5.00831L222.995 0C222.995 0 267.308 26.5269 247.637 75.5055C243.352 86.1695 233.278 93.901 233.278 93.901C233.278 93.901 230.689 90.0162 226.823 90.0353C226.823 90.0353 238.991 79.0094 241.791 56.2149C244.59 33.4204 231.793 21.5376 231.793 21.5376C231.793 21.5376 218.653 7.95997 213.893 5.00831Z" fill="#E4012F"/>
<path d="M204.599 10.1115L213.892 5.008C213.892 5.008 239.753 21.7087 243.18 40.7517C246.608 59.7947 237.144 81.1038 226.841 90.035C226.841 90.035 220.195 88.8733 216.12 93.5769C212.045 98.2806 205.989 114.715 205.989 114.715L202.352 102.299C202.352 102.299 239.429 77.2952 234.744 47.3215C231.774 28.5832 204.599 10.1115 204.599 10.1115Z" fill="#00528C"/>
<path d="M200.136 94.1415L199.716 94.2656L204.379 110.044L204.799 109.92L200.136 94.1415Z" fill="#010203"/>
<path d="M175.081 155.467C175.957 153.239 176.452 150.801 176.452 148.268C176.433 137.547 167.712 128.864 156.99 128.883C151.83 128.902 147.145 130.92 143.679 134.215C140.195 130.939 135.51 128.94 130.349 128.94C119.628 128.959 110.944 137.68 110.964 148.402C110.964 150.953 111.478 153.372 112.373 155.6C112.373 155.6 112.392 155.638 112.43 155.733C112.849 156.781 113.382 157.771 113.972 158.704C117.324 164.607 126.293 177.499 143.832 185.002C143.832 185.002 163.008 176.09 173.044 159.332C173.863 158.152 174.548 156.876 175.081 155.524C175.062 155.505 175.081 155.486 175.081 155.467Z" fill="#E4012F"/>
<path d="M144.003 157.142C143.717 157.142 143.431 157.142 143.127 157.123C136.557 156.723 132.329 151.867 132.158 151.658L133.072 150.877C133.11 150.915 137.166 155.581 143.222 155.923C147.316 156.171 151.391 154.438 155.371 150.763L156.171 151.639C152.229 155.276 148.135 157.123 144.003 157.142Z" fill="#221E1F"/>
<path d="M124.634 144.174C124.634 144.803 124.12 145.317 123.492 145.317C122.863 145.317 122.349 144.803 122.349 144.174C122.349 143.546 122.863 143.032 123.492 143.013C124.12 143.032 124.634 143.546 124.634 144.174Z" fill="#221E1F"/>
<path d="M163.142 144.098C163.142 144.726 162.628 145.241 161.999 145.241C161.371 145.241 160.857 144.726 160.857 144.098C160.857 143.47 161.371 142.955 161.999 142.955C162.609 142.955 163.123 143.451 163.142 144.098Z" fill="#221E1F"/>
</svg>
