<svg width="380" height="411" viewBox="0 0 380 411" fill="none" xmlns="http://www.w3.org/2000/svg">
<path d="M316.06 69.5004C268.503 54.3486 271.892 14.7104 218.569 29.0052C216.254 29.6258 213.984 30.5943 211.688 31.2838C185.902 39.029 160.746 0.000557023 119.06 0C93.8953 -0.00033625 102.56 30.5 62.0597 42.5C21.5597 54.5 0.0666339 74.4997 0.0666339 124.5C0.0666339 173.226 32.3483 165.446 18.2592 221.935C17.5048 224.959 16.365 227.897 14.9873 230.693C3.11768 254.784 -17.2212 299.31 28.0084 337C58.5156 362.422 93.0597 378.5 93.0597 397C93.0597 440.361 200.715 366.996 240.512 387C335.012 434.5 396.5 326 375.5 280.5C351.112 227.66 353.687 192.5 365.687 164C377.687 135.5 377.263 89 316.06 69.5004Z" fill="#00B6B5"/>
<path opacity="0.5" fill-rule="evenodd" clip-rule="evenodd" d="M179.203 163.092L179.467 163.255C179.545 163.303 179.606 163.352 179.669 163.418L188.207 172.299C188.633 172.742 189.239 173.006 189.854 173.006C190.441 173.006 191.048 172.767 191.442 172.326C191.451 172.316 191.459 172.308 191.468 172.299L239.082 122.781C239.67 122.17 239.831 121.318 239.585 120.534L230.533 93.5264C230.224 92.6057 229.347 92 228.381 92H206.452C205.801 92 205.181 92.267 204.746 92.7261L190.578 108.22C190.376 108.441 190.118 108.555 189.818 108.555C189.518 108.555 189.26 108.441 189.058 108.22L174.904 92.7396C174.47 92.2823 173.856 92 173.223 92H151.291C150.326 92 149.449 92.6045 149.142 93.5252L140.123 120.546C139.846 121.341 140.047 122.178 140.627 122.781L178.675 162.32C178.731 162.378 178.773 162.433 178.815 162.502L179.036 162.869C179.065 162.917 179.08 162.95 179.104 163.008C179.127 163.036 179.167 163.066 179.203 163.092ZM145.053 120.062L152.707 97.1846C152.85 96.7569 153.233 96.4811 153.683 96.4811H171.787C172.087 96.4811 172.346 96.5947 172.548 96.8161L188.195 113.928C188.612 114.394 189.239 114.606 189.854 114.606C190.471 114.606 191.097 114.395 191.524 113.919L207.163 96.8517C207.365 96.6309 207.623 96.5176 207.922 96.5176H226.026C226.478 96.5176 226.861 96.794 227.004 97.2222L230.315 107.162C230.442 107.543 230.348 107.936 230.063 108.218L223.33 114.906C222.901 115.332 222.679 115.873 222.679 116.477C222.679 117.081 222.9 117.623 223.329 118.049C223.763 118.479 224.312 118.701 224.923 118.701C225.533 118.701 226.083 118.48 226.516 118.049L230.93 113.664C231.19 113.405 231.538 113.307 231.895 113.393C232.252 113.478 232.518 113.722 232.634 114.07L234.62 120.065C234.743 120.437 234.657 120.819 234.386 121.102L190.598 166.708C190.396 166.918 190.145 167.025 189.854 167.025C189.563 167.025 189.313 166.918 189.111 166.708L184.697 162.105C184.308 161.7 184.316 161.056 184.715 160.661L217.573 128.026C218.455 127.15 218.456 125.723 217.574 124.847C217.14 124.417 216.591 124.195 215.98 124.195C215.37 124.195 214.784 124.455 214.352 124.883L181.603 157.409C181.399 157.611 181.152 157.711 180.865 157.708C180.578 157.704 180.332 157.598 180.134 157.391L145.287 121.102C145.015 120.819 144.928 120.435 145.053 120.062Z" fill="white"/>
</svg>
