<svg width="410" height="444" viewBox="0 0 410 444" fill="none" xmlns="http://www.w3.org/2000/svg">
<path opacity="0.5" d="M340.033 76.412C289.101 60.167 292.805 17.633 235.53 33.1186C233.215 33.7447 230.937 34.709 228.646 35.4216C200.984 44.0284 174.054 2.0006 129.342 2C102.428 1.99964 111.695 34.6554 68.3805 47.5035C25.0659 60.3515 2.07908 81.7646 2.07908 135.298C2.07908 187.558 36.7248 179.108 21.4566 239.936C20.6983 242.957 19.5631 245.898 18.1866 248.692C5.51506 274.413 -16.6012 322.303 31.9626 362.816C64.59 390.034 101.535 407.249 101.535 427.056C101.535 473.482 216.672 394.932 259.234 416.349C360.302 467.206 426.063 351.039 403.604 302.323C377.521 245.749 380.275 208.104 393.109 177.59C405.943 147.076 405.49 97.2896 340.033 76.412Z" stroke="#5DC5C6" stroke-width="3.67"/>
</svg>
