<svg width="88" height="73" viewBox="0 0 88 73" fill="none" xmlns="http://www.w3.org/2000/svg">
<path d="M87.71 72.8297H51.8V36.3797C51.8 25.0397 54.95 16.2197 61.25 9.91972C67.55 3.61972 76.37 0.469727 87.71 0.469727V18.5597C81.95 19.6397 77.81 21.3497 75.29 23.6897C72.95 26.0297 71.78 29.2697 71.78 33.4097V38.2697H87.71V72.8297ZM36.41 72.8297H0.5V36.3797C0.5 25.0397 3.65 16.2197 9.95 9.91972C16.25 3.61972 25.07 0.469727 36.41 0.469727V18.5597C30.65 19.6397 26.51 21.3497 23.99 23.6897C21.65 26.0297 20.48 29.2697 20.48 33.4097V38.2697H36.41V72.8297Z" fill="#5DC5C6"/>
</svg>
